<svg width="350" height="200" viewBox="0 0 350 200" fill="none" xmlns="http://www.w3.org/2000/svg">
<g clip-path="url(#clip0_81_343)">
<path d="M4.52557 23H0.571023L6.59659 5.54545H11.3523L17.3693 23H13.4148L9.04261 9.53409H8.90625L4.52557 23ZM4.27841 16.1392H13.6193V19.0199H4.27841V16.1392ZM23.1605 5.54545V23H19.4702V5.54545H23.1605ZM26.7933 23V5.54545H32.6911C34.0547 5.54545 35.174 5.77841 36.049 6.24432C36.924 6.70454 37.5717 7.33807 37.9922 8.14489C38.4126 8.9517 38.6229 9.86932 38.6229 10.8977C38.6229 11.9261 38.4126 12.8381 37.9922 13.6335C37.5717 14.429 36.9268 15.054 36.0575 15.5085C35.1882 15.9574 34.0774 16.1818 32.7251 16.1818H27.9524V14.2727H32.657C33.5888 14.2727 34.3388 14.1364 34.907 13.8636C35.4808 13.5909 35.8956 13.2045 36.1513 12.7045C36.4126 12.1989 36.5433 11.5966 36.5433 10.8977C36.5433 10.1989 36.4126 9.58807 36.1513 9.06534C35.8899 8.54261 35.4723 8.1392 34.8984 7.85511C34.3246 7.56534 33.5661 7.42045 32.6229 7.42045H28.907V23H26.7933ZM35.0092 15.1591L39.3047 23H36.8501L32.6229 15.1591H35.0092ZM40.0589 5.54545H42.4794L47.3203 13.6932H47.5249L52.3658 5.54545H54.7862L48.4794 15.8068V23H46.3658V15.8068L40.0589 5.54545ZM63.6733 23V5.54545H70.6619C71.946 5.54545 73.017 5.7358 73.875 6.11648C74.733 6.49716 75.3778 7.02557 75.8097 7.7017C76.2415 8.37216 76.4574 9.14489 76.4574 10.0199C76.4574 10.7017 76.321 11.3011 76.0483 11.8182C75.7756 12.3295 75.4006 12.75 74.9233 13.0795C74.4517 13.4034 73.9119 13.6335 73.304 13.7699V13.9403C73.9688 13.9687 74.5909 14.1562 75.1705 14.5028C75.7557 14.8494 76.2301 15.3352 76.5938 15.9602C76.9574 16.5795 77.1392 17.3182 77.1392 18.1761C77.1392 19.1023 76.9091 19.929 76.4489 20.6562C75.9943 21.3778 75.321 21.9489 74.429 22.3693C73.5369 22.7898 72.4375 23 71.1307 23H63.6733ZM67.3636 19.983H70.3722C71.4006 19.983 72.1506 19.7869 72.6222 19.3949C73.0938 18.9972 73.3295 18.4687 73.3295 17.8097C73.3295 17.3267 73.2131 16.9006 72.9801 16.5312C72.7472 16.1619 72.4148 15.8722 71.983 15.6619C71.5568 15.4517 71.0483 15.3466 70.4574 15.3466H67.3636V19.983ZM67.3636 12.8494H70.0994C70.6051 12.8494 71.054 12.7614 71.446 12.5852C71.8438 12.4034 72.1563 12.1477 72.3835 11.8182C72.6165 11.4886 72.733 11.0938 72.733 10.6335C72.733 10.0028 72.5085 9.49432 72.0597 9.10795C71.6165 8.72159 70.9858 8.52841 70.1676 8.52841H67.3636V12.8494ZM79.5405 23V5.54545H83.2308V19.9574H90.7138V23H79.5405ZM96.848 5.54545V23H93.1577V5.54545H96.848ZM114.484 5.54545V23H111.296L103.702 12.0142H103.575V23H99.8842V5.54545H103.123L110.657 16.5227H110.81V5.54545H114.484ZM123.72 23H117.533V5.54545H123.771C125.527 5.54545 127.038 5.89489 128.305 6.59375C129.572 7.28693 130.547 8.28409 131.229 9.58523C131.916 10.8864 132.26 12.4432 132.26 14.2557C132.26 16.0739 131.916 17.6364 131.229 18.9432C130.547 20.25 129.567 21.2528 128.288 21.9517C127.016 22.6506 125.493 23 123.72 23ZM121.223 19.8381H123.567C124.658 19.8381 125.575 19.6449 126.32 19.2585C127.07 18.8665 127.632 18.2614 128.007 17.4432C128.388 16.6193 128.578 15.5568 128.578 14.2557C128.578 12.9659 128.388 11.9119 128.007 11.0938C127.632 10.2756 127.072 9.6733 126.328 9.28693C125.584 8.90057 124.666 8.70739 123.575 8.70739H121.223V19.8381ZM141.744 5.54545H146.295L151.102 17.2727H151.306L156.113 5.54545H160.664V23H157.085V11.6392H156.94L152.423 22.9148H149.985L145.468 11.5966H145.323V23H141.744V5.54545ZM179.744 14.2727C179.744 16.1761 179.384 17.7955 178.662 19.1307C177.946 20.4659 176.969 21.4858 175.73 22.1903C174.497 22.8892 173.111 23.2386 171.571 23.2386C170.02 23.2386 168.628 22.8864 167.395 22.1818C166.162 21.4773 165.188 20.4574 164.472 19.1222C163.756 17.7869 163.398 16.1705 163.398 14.2727C163.398 12.3693 163.756 10.75 164.472 9.41477C165.188 8.07955 166.162 7.0625 167.395 6.36364C168.628 5.65909 170.02 5.30682 171.571 5.30682C173.111 5.30682 174.497 5.65909 175.73 6.36364C176.969 7.0625 177.946 8.07955 178.662 9.41477C179.384 10.75 179.744 12.3693 179.744 14.2727ZM176.003 14.2727C176.003 13.0398 175.818 12 175.449 11.1534C175.085 10.3068 174.571 9.66477 173.906 9.22727C173.241 8.78977 172.463 8.57102 171.571 8.57102C170.679 8.57102 169.901 8.78977 169.236 9.22727C168.571 9.66477 168.054 10.3068 167.685 11.1534C167.321 12 167.139 13.0398 167.139 14.2727C167.139 15.5057 167.321 16.5455 167.685 17.392C168.054 18.2386 168.571 18.8807 169.236 19.3182C169.901 19.7557 170.679 19.9744 171.571 19.9744C172.463 19.9744 173.241 19.7557 173.906 19.3182C174.571 18.8807 175.085 18.2386 175.449 17.392C175.818 16.5455 176.003 15.5057 176.003 14.2727ZM181.016 8.58807V5.54545H195.352V8.58807H190.008V23H186.36V8.58807H181.016ZM197.712 23V5.54545H201.403V12.7472H208.894V5.54545H212.576V23H208.894V15.7898H201.403V23H197.712ZM216.215 23V5.54545H226.749V7.42045H218.329V13.3182H226.204V15.1932H218.329V21.125H226.886V23H216.215ZM230.559 23V5.54545H236.457C237.82 5.54545 238.94 5.77841 239.815 6.24432C240.69 6.70454 241.337 7.33807 241.758 8.14489C242.178 8.9517 242.388 9.86932 242.388 10.8977C242.388 11.9261 242.178 12.8381 241.758 13.6335C241.337 14.429 240.692 15.054 239.823 15.5085C238.954 15.9574 237.843 16.1818 236.491 16.1818H231.718V14.2727H236.423C237.354 14.2727 238.104 14.1364 238.673 13.8636C239.246 13.5909 239.661 13.2045 239.917 12.7045C240.178 12.1989 240.309 11.5966 240.309 10.8977C240.309 10.1989 240.178 9.58807 239.917 9.06534C239.656 8.54261 239.238 8.1392 238.664 7.85511C238.09 7.56534 237.332 7.42045 236.388 7.42045H232.673V23H230.559ZM238.775 15.1591L243.07 23H240.616L236.388 15.1591H238.775ZM247.411 5.54545V7.07954C247.411 7.54545 247.325 8.04261 247.155 8.57102C246.99 9.09375 246.746 9.60227 246.422 10.0966C246.104 10.5852 245.717 11.0114 245.263 11.375L244.172 10.4886C244.53 9.97727 244.839 9.44602 245.101 8.89489C245.368 8.33807 245.501 7.74432 245.501 7.11364V5.54545H247.411ZM259.886 9.90909C259.783 9.04545 259.369 8.375 258.641 7.89773C257.914 7.42045 257.022 7.18182 255.965 7.18182C255.192 7.18182 254.516 7.30682 253.937 7.55682C253.363 7.80682 252.914 8.15057 252.59 8.58807C252.272 9.02557 252.113 9.52273 252.113 10.0795C252.113 10.5455 252.224 10.946 252.445 11.2812C252.673 11.6108 252.962 11.8864 253.315 12.108C253.667 12.3239 254.036 12.5028 254.423 12.6449C254.809 12.7812 255.164 12.892 255.488 12.9773L257.261 13.4545C257.715 13.5739 258.221 13.7386 258.778 13.9489C259.34 14.1591 259.877 14.446 260.388 14.8097C260.906 15.1676 261.332 15.6278 261.667 16.1903C262.002 16.7528 262.17 17.4432 262.17 18.2614C262.17 19.2045 261.923 20.0568 261.428 20.8182C260.94 21.5795 260.224 22.1847 259.281 22.6335C258.343 23.0824 257.204 23.3068 255.863 23.3068C254.613 23.3068 253.531 23.1051 252.616 22.7017C251.707 22.2983 250.991 21.7358 250.468 21.0142C249.951 20.2926 249.658 19.4545 249.59 18.5H251.772C251.829 19.1591 252.05 19.7045 252.437 20.1364C252.829 20.5625 253.323 20.8807 253.92 21.0909C254.522 21.2955 255.17 21.3977 255.863 21.3977C256.67 21.3977 257.394 21.267 258.036 21.0057C258.678 20.7386 259.187 20.3693 259.562 19.8977C259.937 19.4205 260.124 18.8636 260.124 18.2273C260.124 17.6477 259.962 17.1761 259.638 16.8125C259.315 16.4489 258.888 16.1534 258.36 15.9261C257.832 15.6989 257.261 15.5 256.647 15.3295L254.499 14.7159C253.136 14.3239 252.056 13.7642 251.261 13.0369C250.465 12.3097 250.067 11.358 250.067 10.1818C250.067 9.20454 250.332 8.35227 250.86 7.625C251.394 6.89205 252.11 6.32386 253.008 5.92045C253.911 5.51136 254.92 5.30682 256.033 5.30682C257.158 5.30682 258.158 5.50852 259.033 5.91193C259.908 6.30966 260.602 6.85511 261.113 7.54829C261.63 8.24148 261.903 9.02841 261.931 9.90909H259.886ZM287.199 11.6562H283.466C283.398 11.1733 283.259 10.7443 283.048 10.3693C282.838 9.98864 282.568 9.66477 282.239 9.39773C281.909 9.13068 281.528 8.92614 281.097 8.78409C280.67 8.64205 280.207 8.57102 279.707 8.57102C278.804 8.57102 278.017 8.79545 277.347 9.24432C276.676 9.6875 276.156 10.3352 275.787 11.1875C275.418 12.0341 275.233 13.0625 275.233 14.2727C275.233 15.517 275.418 16.5625 275.787 17.4091C276.162 18.2557 276.685 18.8949 277.355 19.3267C278.026 19.7585 278.801 19.9744 279.682 19.9744C280.176 19.9744 280.634 19.9091 281.054 19.7784C281.48 19.6477 281.858 19.4574 282.188 19.2074C282.517 18.9517 282.79 18.642 283.006 18.2784C283.227 17.9148 283.381 17.5 283.466 17.0341L287.199 17.0511C287.102 17.8523 286.861 18.625 286.474 19.3693C286.094 20.108 285.58 20.7699 284.932 21.3551C284.29 21.9347 283.523 22.3949 282.631 22.7358C281.744 23.071 280.741 23.2386 279.622 23.2386C278.065 23.2386 276.673 22.8864 275.446 22.1818C274.224 21.4773 273.259 20.4574 272.548 19.1222C271.844 17.7869 271.491 16.1705 271.491 14.2727C271.491 12.3693 271.849 10.75 272.565 9.41477C273.281 8.07955 274.253 7.0625 275.48 6.36364C276.707 5.65909 278.088 5.30682 279.622 5.30682C280.634 5.30682 281.571 5.44886 282.435 5.73295C283.304 6.01705 284.074 6.43182 284.744 6.97727C285.415 7.51704 285.96 8.17898 286.381 8.96307C286.807 9.74716 287.08 10.6449 287.199 11.6562ZM305.885 14.2727C305.885 16.1761 305.524 17.7955 304.803 19.1307C304.087 20.4659 303.109 21.4858 301.871 22.1903C300.638 22.8892 299.251 23.2386 297.712 23.2386C296.161 23.2386 294.768 22.8864 293.536 22.1818C292.303 21.4773 291.328 20.4574 290.612 19.1222C289.896 17.7869 289.538 16.1705 289.538 14.2727C289.538 12.3693 289.896 10.75 290.612 9.41477C291.328 8.07955 292.303 7.0625 293.536 6.36364C294.768 5.65909 296.161 5.30682 297.712 5.30682C299.251 5.30682 300.638 5.65909 301.871 6.36364C303.109 7.0625 304.087 8.07955 304.803 9.41477C305.524 10.75 305.885 12.3693 305.885 14.2727ZM302.143 14.2727C302.143 13.0398 301.959 12 301.589 11.1534C301.226 10.3068 300.712 9.66477 300.047 9.22727C299.382 8.78977 298.604 8.57102 297.712 8.57102C296.82 8.57102 296.041 8.78977 295.376 9.22727C294.712 9.66477 294.195 10.3068 293.825 11.1534C293.462 12 293.28 13.0398 293.28 14.2727C293.28 15.5057 293.462 16.5455 293.825 17.392C294.195 18.2386 294.712 18.8807 295.376 19.3182C296.041 19.7557 296.82 19.9744 297.712 19.9744C298.604 19.9744 299.382 19.7557 300.047 19.3182C300.712 18.8807 301.226 18.2386 301.589 17.392C301.959 16.5455 302.143 15.5057 302.143 14.2727ZM308.619 5.54545H313.17L317.977 17.2727H318.181L322.988 5.54545H327.539V23H323.96V11.6392H323.815L319.298 22.9148H316.86L312.343 11.5966H312.198V23H308.619V5.54545ZM330.58 23V5.54545H337.466C338.79 5.54545 339.918 5.7983 340.849 6.30398C341.781 6.80398 342.491 7.5 342.98 8.39204C343.474 9.27841 343.722 10.3011 343.722 11.4602C343.722 12.6193 343.472 13.642 342.972 14.5284C342.472 15.4148 341.747 16.1051 340.798 16.5994C339.855 17.0937 338.713 17.3409 337.372 17.3409H332.983V14.3835H336.776C337.486 14.3835 338.071 14.2614 338.531 14.017C338.997 13.767 339.344 13.4233 339.571 12.9858C339.804 12.5426 339.92 12.0341 339.92 11.4602C339.92 10.8807 339.804 10.375 339.571 9.94318C339.344 9.50568 338.997 9.16761 338.531 8.92898C338.065 8.68466 337.474 8.5625 336.759 8.5625H334.27V23H330.58ZM346.715 23V5.54545H348.829V21.125H356.942V23H346.715Z" fill="#505050" fill-opacity="0.5"/>
<path d="M1.51705 52V34.5455H13.0739V37.5881H5.20739V41.7472H12.3068V44.7898H5.20739V52H1.51705ZM15.5561 52V34.5455H27.3175V37.5881H19.2464V41.7472H26.7124V44.7898H19.2464V48.9574H27.3516V52H15.5561ZM30.2514 34.5455H34.8026L39.6094 46.2727H39.8139L44.6207 34.5455H49.1719V52H45.5923V40.6392H45.4474L40.9304 51.9148H38.4929L33.9759 40.5966H33.831V52H30.2514V34.5455ZM52.2124 34.5455H56.7635L61.5703 46.2727H61.7749L66.5817 34.5455H71.1328V52H67.5533V40.6392H67.4084L62.8913 51.9148H60.4538L55.9368 40.5966H55.7919V52H52.2124V34.5455ZM74.1733 52V34.5455H85.9347V37.5881H77.8636V41.7472H85.3295V44.7898H77.8636V48.9574H85.9688V52H74.1733ZM95.6186 52V34.5455H107.175V37.5881H99.3089V41.7472H106.408V44.7898H99.3089V52H95.6186ZM110.487 52H106.532L112.558 34.5455H117.313L123.33 52H119.376L115.004 38.5341H114.867L110.487 52ZM110.239 45.1392H119.58V48.0199H110.239V45.1392ZM122.634 37.5881V34.5455H136.969V37.5881H131.625V52H127.977V37.5881H122.634ZM140.642 52H138.426L144.835 34.5455H147.017L153.426 52H151.21L145.994 37.3068H145.858L140.642 52ZM141.46 45.1818H150.392V47.0568H141.46V45.1818ZM156.145 52V34.5455H158.259V50.125H166.372V52H156.145ZM169.645 52V34.5455H180.179V36.4205H171.759V42.3182H179.634V44.1932H171.759V50.125H180.315V52H169.645ZM190.142 52V34.5455H193.832V48.9574H201.315V52H190.142ZM219.119 43.2727C219.119 45.1761 218.759 46.7955 218.037 48.1307C217.321 49.4659 216.344 50.4858 215.105 51.1903C213.872 51.8892 212.486 52.2386 210.946 52.2386C209.395 52.2386 208.003 51.8864 206.77 51.1818C205.537 50.4773 204.563 49.4574 203.847 48.1222C203.131 46.7869 202.773 45.1705 202.773 43.2727C202.773 41.3693 203.131 39.75 203.847 38.4148C204.563 37.0795 205.537 36.0625 206.77 35.3636C208.003 34.6591 209.395 34.3068 210.946 34.3068C212.486 34.3068 213.872 34.6591 215.105 35.3636C216.344 36.0625 217.321 37.0795 218.037 38.4148C218.759 39.75 219.119 41.3693 219.119 43.2727ZM215.378 43.2727C215.378 42.0398 215.193 41 214.824 40.1534C214.46 39.3068 213.946 38.6648 213.281 38.2273C212.616 37.7898 211.838 37.571 210.946 37.571C210.054 37.571 209.276 37.7898 208.611 38.2273C207.946 38.6648 207.429 39.3068 207.06 40.1534C206.696 41 206.514 42.0398 206.514 43.2727C206.514 44.5057 206.696 45.5455 207.06 46.392C207.429 47.2386 207.946 47.8807 208.611 48.3182C209.276 48.7557 210.054 48.9744 210.946 48.9744C211.838 48.9744 212.616 48.7557 213.281 48.3182C213.946 47.8807 214.46 47.2386 214.824 46.392C215.193 45.5455 215.378 44.5057 215.378 43.2727ZM236.452 34.5455V52H233.265L225.671 41.0142H225.543V52H221.853V34.5455H225.092L232.626 45.5227H232.779V34.5455H236.452ZM239.501 52V34.5455H251.263V37.5881H243.192V41.7472H250.658V44.7898H243.192V48.9574H251.297V52H239.501ZM270.415 39.5653C270.347 38.8778 270.055 38.3437 269.538 37.9631C269.021 37.5824 268.319 37.392 267.433 37.392C266.83 37.392 266.322 37.4773 265.907 37.6477C265.492 37.8125 265.174 38.0426 264.952 38.3381C264.737 38.6335 264.629 38.9688 264.629 39.3438C264.617 39.6562 264.683 39.929 264.825 40.1619C264.972 40.3949 265.174 40.5966 265.43 40.767C265.685 40.9318 265.981 41.0767 266.316 41.2017C266.651 41.321 267.009 41.4233 267.39 41.5085L268.958 41.8835C269.719 42.054 270.418 42.2812 271.055 42.5653C271.691 42.8494 272.242 43.1989 272.708 43.6136C273.174 44.0284 273.535 44.517 273.79 45.0795C274.052 45.642 274.185 46.2869 274.191 47.0142C274.185 48.0824 273.913 49.0085 273.373 49.7926C272.839 50.571 272.066 51.1761 271.055 51.608C270.049 52.0341 268.836 52.2472 267.415 52.2472C266.006 52.2472 264.779 52.0312 263.734 51.5994C262.694 51.1676 261.881 50.5284 261.296 49.6818C260.717 48.8295 260.413 47.7756 260.384 46.5199H263.955C263.995 47.1051 264.163 47.5937 264.458 47.9858C264.759 48.3722 265.16 48.6648 265.66 48.8636C266.165 49.0568 266.737 49.1534 267.373 49.1534C267.998 49.1534 268.54 49.0625 269.001 48.8807C269.467 48.6989 269.827 48.446 270.083 48.1222C270.339 47.7983 270.467 47.4261 270.467 47.0057C270.467 46.6136 270.35 46.2841 270.117 46.017C269.89 45.75 269.555 45.5227 269.112 45.3352C268.674 45.1477 268.137 44.9773 267.501 44.8239L265.6 44.3466C264.129 43.9886 262.967 43.429 262.114 42.6676C261.262 41.9062 260.839 40.8807 260.844 39.5909C260.839 38.5341 261.12 37.6108 261.688 36.821C262.262 36.0312 263.049 35.4148 264.049 34.9716C265.049 34.5284 266.185 34.3068 267.458 34.3068C268.754 34.3068 269.884 34.5284 270.85 34.9716C271.822 35.4148 272.577 36.0312 273.117 36.821C273.657 37.6108 273.935 38.5256 273.952 39.5653H270.415ZM276.673 52V34.5455H280.364V48.9574H287.847V52H276.673ZM293.981 34.5455V52H290.29V34.5455H293.981ZM297.017 34.5455H301.568L306.375 46.2727H306.58L311.386 34.5455H315.938V52H312.358V40.6392H312.213L307.696 51.9148H305.259L300.741 40.5966H300.597V52H297.017V34.5455ZM318.978 52V34.5455H330.739V37.5881H322.668V41.7472H330.134V44.7898H322.668V48.9574H330.773V52H318.978ZM341.02 52V34.5455H351.486V36.4205H343.134V42.3182H350.702V44.1932H343.134V52H341.02Z" fill="#505050" fill-opacity="0.5"/>
<path d="M10.9858 68.5653C10.9176 67.8778 10.625 67.3437 10.108 66.9631C9.59091 66.5824 8.8892 66.392 8.00284 66.392C7.40057 66.392 6.89205 66.4773 6.47727 66.6477C6.0625 66.8125 5.74432 67.0426 5.52273 67.3381C5.30682 67.6335 5.19886 67.9688 5.19886 68.3438C5.1875 68.6562 5.25284 68.929 5.39489 69.1619C5.54261 69.3949 5.74432 69.5966 6 69.767C6.25568 69.9318 6.55114 70.0767 6.88636 70.2017C7.22159 70.321 7.57955 70.4233 7.96023 70.5085L9.52841 70.8835C10.2898 71.054 10.9886 71.2812 11.625 71.5653C12.2614 71.8494 12.8125 72.1989 13.2784 72.6136C13.7443 73.0284 14.1051 73.517 14.3608 74.0795C14.6222 74.642 14.7557 75.2869 14.7614 76.0142C14.7557 77.0824 14.483 78.0085 13.9432 78.7926C13.4091 79.571 12.6364 80.1761 11.625 80.608C10.6193 81.0341 9.40625 81.2472 7.9858 81.2472C6.5767 81.2472 5.34943 81.0312 4.30398 80.5994C3.2642 80.1676 2.4517 79.5284 1.86648 78.6818C1.28693 77.8295 0.982955 76.7756 0.954545 75.5199H4.52557C4.56534 76.1051 4.73295 76.5937 5.02841 76.9858C5.32955 77.3722 5.73011 77.6648 6.23011 77.8636C6.7358 78.0568 7.30682 78.1534 7.94318 78.1534C8.56818 78.1534 9.1108 78.0625 9.57102 77.8807C10.0369 77.6989 10.3977 77.446 10.6534 77.1222C10.9091 76.7983 11.0369 76.4261 11.0369 76.0057C11.0369 75.6136 10.9205 75.2841 10.6875 75.017C10.4602 74.75 10.125 74.5227 9.68182 74.3352C9.24432 74.1477 8.70739 73.9773 8.07102 73.8239L6.17045 73.3466C4.69886 72.9886 3.53693 72.429 2.68466 71.6676C1.83239 70.9062 1.40909 69.8807 1.41477 68.5909C1.40909 67.5341 1.69034 66.6108 2.25852 65.821C2.83239 65.0312 3.61932 64.4148 4.61932 63.9716C5.61932 63.5284 6.75568 63.3068 8.02841 63.3068C9.32386 63.3068 10.4545 63.5284 11.4205 63.9716C12.392 64.4148 13.1477 65.0312 13.6875 65.821C14.2273 66.6108 14.5057 67.5256 14.5227 68.5653H10.9858ZM17.2436 81V63.5455H20.9339V70.7472H28.4254V63.5455H32.1072V81H28.4254V73.7898H20.9339V81H17.2436ZM38.8402 63.5455V81H35.1499V63.5455H38.8402ZM41.8764 81V63.5455H45.5668V77.9574H53.0497V81H41.8764ZM56.0902 81V63.5455H61.9879C63.3572 63.5455 64.4766 63.7926 65.3459 64.2869C66.2209 64.7756 66.8686 65.4375 67.2891 66.2727C67.7095 67.108 67.9197 68.0398 67.9197 69.0682C67.9197 70.0966 67.7095 71.0312 67.2891 71.8722C66.8743 72.7131 66.2322 73.3835 65.3629 73.8835C64.4936 74.3778 63.38 74.625 62.022 74.625H57.7947V72.75H61.9538C62.8913 72.75 63.6442 72.5881 64.2124 72.2642C64.7805 71.9403 65.1925 71.5028 65.4482 70.9517C65.7095 70.3949 65.8402 69.767 65.8402 69.0682C65.8402 68.3693 65.7095 67.7443 65.4482 67.1932C65.1925 66.642 64.7777 66.2102 64.2038 65.8977C63.63 65.5795 62.8686 65.4205 61.9197 65.4205H58.2038V81H56.0902ZM70.2592 81H68.0433L74.4524 63.5455H76.6342L83.0433 81H80.8274L75.6115 66.3068H75.4751L70.2592 81ZM71.0774 74.1818H80.0092V76.0568H71.0774V74.1818ZM95.6058 63.5455V81H91.9155V63.5455H95.6058ZM108.111 68.5653C108.043 67.8778 107.75 67.3437 107.233 66.9631C106.716 66.5824 106.014 66.392 105.128 66.392C104.526 66.392 104.017 66.4773 103.602 66.6477C103.188 66.8125 102.869 67.0426 102.648 67.3381C102.432 67.6335 102.324 67.9688 102.324 68.3438C102.313 68.6562 102.378 68.929 102.52 69.1619C102.668 69.3949 102.869 69.5966 103.125 69.767C103.381 69.9318 103.676 70.0767 104.011 70.2017C104.347 70.321 104.705 70.4233 105.085 70.5085L106.653 70.8835C107.415 71.054 108.114 71.2812 108.75 71.5653C109.386 71.8494 109.938 72.1989 110.403 72.6136C110.869 73.0284 111.23 73.517 111.486 74.0795C111.747 74.642 111.881 75.2869 111.886 76.0142C111.881 77.0824 111.608 78.0085 111.068 78.7926C110.534 79.571 109.761 80.1761 108.75 80.608C107.744 81.0341 106.531 81.2472 105.111 81.2472C103.702 81.2472 102.474 81.0312 101.429 80.5994C100.389 80.1676 99.5767 79.5284 98.9915 78.6818C98.4119 77.8295 98.108 76.7756 98.0795 75.5199H101.651C101.69 76.1051 101.858 76.5937 102.153 76.9858C102.455 77.3722 102.855 77.6648 103.355 77.8636C103.861 78.0568 104.432 78.1534 105.068 78.1534C105.693 78.1534 106.236 78.0625 106.696 77.8807C107.162 77.6989 107.523 77.446 107.778 77.1222C108.034 76.7983 108.162 76.4261 108.162 76.0057C108.162 75.6136 108.045 75.2841 107.812 75.017C107.585 74.75 107.25 74.5227 106.807 74.3352C106.369 74.1477 105.832 73.9773 105.196 73.8239L103.295 73.3466C101.824 72.9886 100.662 72.429 99.8097 71.6676C98.9574 70.9062 98.5341 69.8807 98.5398 68.5909C98.5341 67.5341 98.8153 66.6108 99.3835 65.821C99.9574 65.0312 100.744 64.4148 101.744 63.9716C102.744 63.5284 103.881 63.3068 105.153 63.3068C106.449 63.3068 107.58 63.5284 108.545 63.9716C109.517 64.4148 110.273 65.0312 110.812 65.821C111.352 66.6108 111.631 67.5256 111.648 68.5653H108.111ZM114.369 81V63.5455H118.059V70.7472H125.55V63.5455H129.232V81H125.55V73.7898H118.059V81H114.369ZM132.871 81V63.5455H138.769C140.133 63.5455 141.252 63.7784 142.127 64.2443C143.002 64.7045 143.65 65.3381 144.07 66.1449C144.491 66.9517 144.701 67.8693 144.701 68.8977C144.701 69.9261 144.491 70.8381 144.07 71.6335C143.65 72.429 143.005 73.054 142.136 73.5085C141.266 73.9574 140.156 74.1818 138.803 74.1818H134.031V72.2727H138.735C139.667 72.2727 140.417 72.1364 140.985 71.8636C141.559 71.5909 141.974 71.2045 142.229 70.7045C142.491 70.1989 142.621 69.5966 142.621 68.8977C142.621 68.1989 142.491 67.5881 142.229 67.0653C141.968 66.5426 141.55 66.1392 140.977 65.8551C140.403 65.5653 139.644 65.4205 138.701 65.4205H134.985V81H132.871ZM141.087 73.1591L145.383 81H142.928L138.701 73.1591H141.087ZM148.939 81H146.723L153.132 63.5455H155.314L161.723 81H159.507L154.291 66.3068H154.155L148.939 81ZM149.757 74.1818H158.689V76.0568H149.757V74.1818ZM161.448 65.4205V63.5455H174.539V65.4205H169.05V81H166.937V65.4205H161.448ZM198.554 63.5455V81H195.366L187.773 70.0142H187.645V81H183.955V63.5455H187.193L194.727 74.5227H194.881V63.5455H198.554ZM204.612 81H200.657L206.683 63.5455H211.438L217.455 81H213.501L209.129 67.5341H208.992L204.612 81ZM204.364 74.1392H213.705V77.0199H204.364V74.1392ZM219.369 81V78.8097L228.079 66.5881H219.352V63.5455H232.715V65.7358L223.996 77.9574H232.732V81H219.369ZM236.161 81V63.5455H242.058C243.422 63.5455 244.541 63.7784 245.416 64.2443C246.291 64.7045 246.939 65.3381 247.359 66.1449C247.78 66.9517 247.99 67.8693 247.99 68.8977C247.99 69.9261 247.78 70.8381 247.359 71.6335C246.939 72.429 246.294 73.054 245.425 73.5085C244.555 73.9574 243.445 74.1818 242.092 74.1818H237.32V72.2727H242.024C242.956 72.2727 243.706 72.1364 244.274 71.8636C244.848 71.5909 245.263 71.2045 245.518 70.7045C245.78 70.1989 245.911 69.5966 245.911 68.8977C245.911 68.1989 245.78 67.5881 245.518 67.0653C245.257 66.5426 244.839 66.1392 244.266 65.8551C243.692 65.5653 242.933 65.4205 241.99 65.4205H238.274V81H236.161ZM244.376 73.1591L248.672 81H246.217L241.99 73.1591H244.376ZM262.967 63.5455H265.08V75.1023C265.08 76.2955 264.799 77.3608 264.237 78.2983C263.68 79.2301 262.893 79.9659 261.876 80.5057C260.859 81.0398 259.665 81.3068 258.296 81.3068C256.927 81.3068 255.734 81.0398 254.717 80.5057C253.7 79.9659 252.91 79.2301 252.347 78.2983C251.79 77.3608 251.512 76.2955 251.512 75.1023V63.5455H253.626V74.9318C253.626 75.7841 253.813 76.5426 254.188 77.2074C254.563 77.8665 255.097 78.3864 255.79 78.767C256.489 79.142 257.325 79.3295 258.296 79.3295C259.268 79.3295 260.103 79.142 260.802 78.767C261.501 78.3864 262.035 77.8665 262.404 77.2074C262.779 76.5426 262.967 75.7841 262.967 74.9318V63.5455ZM269.301 81V63.5455H271.415V79.125H279.528V81H269.301ZM288.955 81V63.5455H292.645V71.2415H292.875L299.156 63.5455H303.58L297.102 71.3608L303.656 81H299.241L294.46 73.8239L292.645 76.0398V81H288.955ZM305.501 81V63.5455H309.192V70.7472H316.683V63.5455H320.365V81H316.683V73.7898H309.192V81H305.501ZM326.416 81H322.462L328.487 63.5455H333.243L339.26 81H335.305L330.933 67.5341H330.797L326.416 81ZM326.169 74.1392H335.51V77.0199H326.169V74.1392ZM338.563 66.5881V63.5455H352.898V66.5881H347.555V81H343.907V66.5881H338.563Z" fill="#505050" fill-opacity="0.5"/>
<path d="M8.50568 92.5455H12.1534V104.716C12.1534 105.841 11.9006 106.818 11.3949 107.648C10.8949 108.477 10.1989 109.116 9.30682 109.565C8.41477 110.014 7.37784 110.239 6.19602 110.239C5.14489 110.239 4.19034 110.054 3.33239 109.685C2.48011 109.31 1.80398 108.741 1.30398 107.98C0.803977 107.213 0.556818 106.25 0.5625 105.091H4.2358C4.24716 105.551 4.34091 105.946 4.51705 106.276C4.69886 106.599 4.94602 106.849 5.25852 107.026C5.5767 107.196 5.9517 107.281 6.38352 107.281C6.83807 107.281 7.22159 107.185 7.53409 106.991C7.85227 106.793 8.09375 106.503 8.25852 106.122C8.4233 105.741 8.50568 105.273 8.50568 104.716V92.5455ZM31.2443 101.273C31.2443 103.176 30.8835 104.795 30.1619 106.131C29.446 107.466 28.4688 108.486 27.2301 109.19C25.9972 109.889 24.6108 110.239 23.071 110.239C21.5199 110.239 20.1278 109.886 18.8949 109.182C17.6619 108.477 16.6875 107.457 15.9716 106.122C15.2557 104.787 14.8977 103.17 14.8977 101.273C14.8977 99.3693 15.2557 97.75 15.9716 96.4148C16.6875 95.0795 17.6619 94.0625 18.8949 93.3636C20.1278 92.6591 21.5199 92.3068 23.071 92.3068C24.6108 92.3068 25.9972 92.6591 27.2301 93.3636C28.4688 94.0625 29.446 95.0795 30.1619 96.4148C30.8835 97.75 31.2443 99.3693 31.2443 101.273ZM27.5028 101.273C27.5028 100.04 27.3182 99 26.9489 98.1534C26.5852 97.3068 26.071 96.6648 25.4062 96.2273C24.7415 95.7898 23.9631 95.571 23.071 95.571C22.179 95.571 21.4006 95.7898 20.7358 96.2273C20.071 96.6648 19.554 97.3068 19.1847 98.1534C18.821 99 18.6392 100.04 18.6392 101.273C18.6392 102.506 18.821 103.545 19.1847 104.392C19.554 105.239 20.071 105.881 20.7358 106.318C21.4006 106.756 22.179 106.974 23.071 106.974C23.9631 106.974 24.7415 106.756 25.4062 106.318C26.071 105.881 26.5852 105.239 26.9489 104.392C27.3182 103.545 27.5028 102.506 27.5028 101.273ZM44.7592 92.5455H48.4496V103.881C48.4496 105.153 48.1456 106.267 47.5376 107.222C46.9354 108.176 46.0916 108.92 45.0064 109.455C43.9212 109.983 42.657 110.247 41.2138 110.247C39.7649 110.247 38.4979 109.983 37.4126 109.455C36.3274 108.92 35.4837 108.176 34.8814 107.222C34.2791 106.267 33.978 105.153 33.978 103.881V92.5455H37.6683V103.565C37.6683 104.23 37.8132 104.821 38.103 105.338C38.3984 105.855 38.8132 106.261 39.3473 106.557C39.8814 106.852 40.5036 107 41.2138 107C41.9297 107 42.5518 106.852 43.0803 106.557C43.6143 106.261 44.0263 105.855 44.3161 105.338C44.6115 104.821 44.7592 104.23 44.7592 103.565V92.5455ZM51.4858 110V92.5455H58.3722C59.6903 92.5455 60.8153 92.7812 61.7472 93.2528C62.6847 93.7187 63.3977 94.3807 63.8864 95.2386C64.3807 96.0909 64.6278 97.0937 64.6278 98.2472C64.6278 99.4062 64.3778 100.403 63.8778 101.239C63.3778 102.068 62.6534 102.705 61.7045 103.148C60.7614 103.591 59.6193 103.812 58.2784 103.812H53.6676V100.847H57.6818C58.3864 100.847 58.9716 100.75 59.4375 100.557C59.9034 100.364 60.25 100.074 60.4773 99.6875C60.7102 99.3011 60.8267 98.821 60.8267 98.2472C60.8267 97.6676 60.7102 97.179 60.4773 96.7812C60.25 96.3835 59.9006 96.0824 59.429 95.8778C58.9631 95.6676 58.375 95.5625 57.6648 95.5625H55.1761V110H51.4858ZM60.9119 102.057L65.25 110H61.1761L56.9318 102.057H60.9119ZM81.8352 92.5455V110H78.6477L71.054 99.0142H70.9261V110H67.2358V92.5455H70.4744L78.0085 103.523H78.1619V92.5455H81.8352ZM86.1967 110H83.9808L90.3899 92.5455H92.5717L98.9808 110H96.7649L91.549 95.3068H91.4126L86.1967 110ZM87.0149 103.182H95.9467V105.057H87.0149V103.182ZM101.7 110V92.5455H103.813V108.125H111.927V110H101.7ZM117.313 92.5455V110H115.2V92.5455H117.313ZM131.097 96.9091C130.994 96.0455 130.58 95.375 129.852 94.8977C129.125 94.4205 128.233 94.1818 127.176 94.1818C126.403 94.1818 125.727 94.3068 125.148 94.5568C124.574 94.8068 124.125 95.1506 123.801 95.5881C123.483 96.0256 123.324 96.5227 123.324 97.0795C123.324 97.5455 123.435 97.946 123.656 98.2812C123.884 98.6108 124.173 98.8864 124.526 99.108C124.878 99.3239 125.247 99.5028 125.634 99.6449C126.02 99.7812 126.375 99.892 126.699 99.9773L128.472 100.455C128.926 100.574 129.432 100.739 129.989 100.949C130.551 101.159 131.088 101.446 131.599 101.81C132.116 102.168 132.543 102.628 132.878 103.19C133.213 103.753 133.381 104.443 133.381 105.261C133.381 106.205 133.134 107.057 132.639 107.818C132.151 108.58 131.435 109.185 130.491 109.634C129.554 110.082 128.415 110.307 127.074 110.307C125.824 110.307 124.741 110.105 123.827 109.702C122.918 109.298 122.202 108.736 121.679 108.014C121.162 107.293 120.869 106.455 120.801 105.5H122.983C123.04 106.159 123.261 106.705 123.648 107.136C124.04 107.562 124.534 107.881 125.131 108.091C125.733 108.295 126.381 108.398 127.074 108.398C127.881 108.398 128.605 108.267 129.247 108.006C129.889 107.739 130.398 107.369 130.773 106.898C131.148 106.42 131.335 105.864 131.335 105.227C131.335 104.648 131.173 104.176 130.849 103.812C130.526 103.449 130.099 103.153 129.571 102.926C129.043 102.699 128.472 102.5 127.858 102.33L125.71 101.716C124.347 101.324 123.267 100.764 122.472 100.037C121.676 99.3097 121.278 98.358 121.278 97.1818C121.278 96.2045 121.543 95.3523 122.071 94.625C122.605 93.892 123.321 93.3239 124.219 92.9205C125.122 92.5114 126.131 92.3068 127.244 92.3068C128.369 92.3068 129.369 92.5085 130.244 92.9119C131.119 93.3097 131.813 93.8551 132.324 94.5483C132.841 95.2415 133.114 96.0284 133.142 96.9091H131.097ZM136.856 92.5455H139.379L145.31 107.034H145.515L151.447 92.5455H153.969V110H151.992V96.7386H151.822L146.367 110H144.458L139.004 96.7386H138.833V110H136.856V92.5455ZM164.361 92.5455H168.912L173.719 104.273H173.923L178.73 92.5455H183.281V110H179.702V98.6392H179.557L175.04 109.915H172.602L168.085 98.5966H167.94V110H164.361V92.5455ZM189.33 110H185.376L191.401 92.5455H196.157L202.174 110H198.219L193.847 96.5341H193.711L189.33 110ZM189.083 103.139H198.424V106.02H189.083V103.139ZM204.275 110V92.5455H211.161C212.479 92.5455 213.604 92.7812 214.536 93.2528C215.474 93.7187 216.187 94.3807 216.675 95.2386C217.17 96.0909 217.417 97.0937 217.417 98.2472C217.417 99.4062 217.167 100.403 216.667 101.239C216.167 102.068 215.442 102.705 214.494 103.148C213.55 103.591 212.408 103.812 211.067 103.812H206.457V100.847H210.471C211.175 100.847 211.761 100.75 212.227 100.557C212.692 100.364 213.039 100.074 213.266 99.6875C213.499 99.3011 213.616 98.821 213.616 98.2472C213.616 97.6676 213.499 97.179 213.266 96.7812C213.039 96.3835 212.69 96.0824 212.218 95.8778C211.752 95.6676 211.164 95.5625 210.454 95.5625H207.965V110H204.275ZM213.701 102.057L218.039 110H213.965L209.721 102.057H213.701ZM220.025 110V92.5455H226.911C228.229 92.5455 229.354 92.7812 230.286 93.2528C231.224 93.7187 231.937 94.3807 232.425 95.2386C232.92 96.0909 233.167 97.0937 233.167 98.2472C233.167 99.4062 232.917 100.403 232.417 101.239C231.917 102.068 231.192 102.705 230.244 103.148C229.3 103.591 228.158 103.812 226.817 103.812H222.207V100.847H226.221C226.925 100.847 227.511 100.75 227.977 100.557C228.442 100.364 228.789 100.074 229.016 99.6875C229.249 99.3011 229.366 98.821 229.366 98.2472C229.366 97.6676 229.249 97.179 229.016 96.7812C228.789 96.3835 228.44 96.0824 227.968 95.8778C227.502 95.6676 226.914 95.5625 226.204 95.5625H223.715V110H220.025ZM229.451 102.057L233.789 110H229.715L225.471 102.057H229.451ZM238.485 92.5455V110H236.371V92.5455H238.485ZM243.439 110H241.223L247.632 92.5455H249.814L256.223 110H254.007L248.791 95.3068H248.655L243.439 110ZM244.257 103.182H253.189V105.057H244.257V103.182ZM270.053 98C269.866 97.4261 269.619 96.9119 269.312 96.4574C269.011 95.9972 268.65 95.6051 268.229 95.2812C267.815 94.9574 267.343 94.7102 266.815 94.5398C266.286 94.3693 265.707 94.2841 265.076 94.2841C264.042 94.2841 263.102 94.5511 262.255 95.0852C261.408 95.6193 260.735 96.4062 260.235 97.446C259.735 98.4858 259.485 99.7614 259.485 101.273C259.485 102.784 259.738 104.06 260.244 105.099C260.749 106.139 261.434 106.926 262.298 107.46C263.161 107.994 264.133 108.261 265.212 108.261C266.212 108.261 267.093 108.048 267.854 107.622C268.621 107.19 269.218 106.582 269.644 105.798C270.076 105.009 270.292 104.08 270.292 103.011L270.94 103.148H265.69V101.273H272.337V103.148C272.337 104.585 272.031 105.835 271.417 106.898C270.809 107.96 269.968 108.784 268.894 109.369C267.826 109.949 266.599 110.239 265.212 110.239C263.667 110.239 262.309 109.875 261.138 109.148C259.974 108.42 259.065 107.386 258.411 106.045C257.763 104.705 257.44 103.114 257.44 101.273C257.44 99.892 257.624 98.6506 257.994 97.5483C258.369 96.4403 258.897 95.4972 259.579 94.7188C260.261 93.9403 261.067 93.3438 261.999 92.929C262.931 92.5142 263.957 92.3068 265.076 92.3068C265.996 92.3068 266.854 92.446 267.65 92.7244C268.451 92.9972 269.164 93.3864 269.789 93.892C270.42 94.392 270.945 94.9915 271.366 95.6903C271.786 96.3835 272.076 97.1534 272.235 98H270.053ZM275.957 110V92.5455H286.491V94.4205H278.071V100.318H285.946V102.193H278.071V108.125H286.628V110H275.957ZM303.443 92.5455H307.091V104.716C307.091 105.841 306.838 106.818 306.332 107.648C305.832 108.477 305.136 109.116 304.244 109.565C303.352 110.014 302.315 110.239 301.134 110.239C300.082 110.239 299.128 110.054 298.27 109.685C297.418 109.31 296.741 108.741 296.241 107.98C295.741 107.213 295.494 106.25 295.5 105.091H299.173C299.185 105.551 299.278 105.946 299.455 106.276C299.636 106.599 299.884 106.849 300.196 107.026C300.514 107.196 300.889 107.281 301.321 107.281C301.776 107.281 302.159 107.185 302.472 106.991C302.79 106.793 303.031 106.503 303.196 106.122C303.361 105.741 303.443 105.273 303.443 104.716V92.5455ZM326.182 101.273C326.182 103.176 325.821 104.795 325.099 106.131C324.384 107.466 323.406 108.486 322.168 109.19C320.935 109.889 319.548 110.239 318.009 110.239C316.457 110.239 315.065 109.886 313.832 109.182C312.599 108.477 311.625 107.457 310.909 106.122C310.193 104.787 309.835 103.17 309.835 101.273C309.835 99.3693 310.193 97.75 310.909 96.4148C311.625 95.0795 312.599 94.0625 313.832 93.3636C315.065 92.6591 316.457 92.3068 318.009 92.3068C319.548 92.3068 320.935 92.6591 322.168 93.3636C323.406 94.0625 324.384 95.0795 325.099 96.4148C325.821 97.75 326.182 99.3693 326.182 101.273ZM322.44 101.273C322.44 100.04 322.256 99 321.886 98.1534C321.523 97.3068 321.009 96.6648 320.344 96.2273C319.679 95.7898 318.901 95.571 318.009 95.571C317.116 95.571 316.338 95.7898 315.673 96.2273C315.009 96.6648 314.491 97.3068 314.122 98.1534C313.759 99 313.577 100.04 313.577 101.273C313.577 102.506 313.759 103.545 314.122 104.392C314.491 105.239 315.009 105.881 315.673 106.318C316.338 106.756 317.116 106.974 318.009 106.974C318.901 106.974 319.679 106.756 320.344 106.318C321.009 105.881 321.523 105.239 321.886 104.392C322.256 103.545 322.44 102.506 322.44 101.273ZM339.697 92.5455H343.387V103.881C343.387 105.153 343.083 106.267 342.475 107.222C341.873 108.176 341.029 108.92 339.944 109.455C338.859 109.983 337.594 110.247 336.151 110.247C334.702 110.247 333.435 109.983 332.35 109.455C331.265 108.92 330.421 108.176 329.819 107.222C329.217 106.267 328.915 105.153 328.915 103.881V92.5455H332.606V103.565C332.606 104.23 332.751 104.821 333.04 105.338C333.336 105.855 333.751 106.261 334.285 106.557C334.819 106.852 335.441 107 336.151 107C336.867 107 337.489 106.852 338.018 106.557C338.552 106.261 338.964 105.855 339.254 105.338C339.549 104.821 339.697 104.23 339.697 103.565V92.5455ZM346.423 110V92.5455H353.31C354.628 92.5455 355.753 92.7812 356.685 93.2528C357.622 93.7187 358.335 94.3807 358.824 95.2386C359.318 96.0909 359.565 97.0937 359.565 98.2472C359.565 99.4062 359.315 100.403 358.815 101.239C358.315 102.068 357.591 102.705 356.642 103.148C355.699 103.591 354.557 103.812 353.216 103.812H348.605V100.847H352.619C353.324 100.847 353.909 100.75 354.375 100.557C354.841 100.364 355.188 100.074 355.415 99.6875C355.648 99.3011 355.764 98.821 355.764 98.2472C355.764 97.6676 355.648 97.179 355.415 96.7812C355.188 96.3835 354.838 96.0824 354.366 95.8778C353.901 95.6676 353.313 95.5625 352.602 95.5625H350.114V110H346.423ZM355.849 102.057L360.188 110H356.114L351.869 102.057H355.849Z" fill="#505050" fill-opacity="0.5"/>
<path d="M1.88636 139H0.409091L4.68182 127.364H6.13636L10.4091 139H8.93182L5.45455 129.205H5.36364L1.88636 139ZM2.43182 134.455H8.38636V135.705H2.43182V134.455ZM13.6307 127.364V139H12.2216V127.364H13.6307ZM16.456 139V127.364H20.3878C21.2969 127.364 22.0431 127.519 22.6264 127.83C23.2098 128.136 23.6416 128.559 23.9219 129.097C24.2022 129.634 24.3423 130.246 24.3423 130.932C24.3423 131.617 24.2022 132.225 23.9219 132.756C23.6416 133.286 23.2116 133.703 22.6321 134.006C22.0526 134.305 21.312 134.455 20.4105 134.455H17.2287V133.182H20.3651C20.9863 133.182 21.4863 133.091 21.8651 132.909C22.2476 132.727 22.5241 132.47 22.6946 132.136C22.8688 131.799 22.956 131.398 22.956 130.932C22.956 130.466 22.8688 130.059 22.6946 129.71C22.5204 129.362 22.242 129.093 21.8594 128.903C21.4768 128.71 20.9711 128.614 20.3423 128.614H17.8651V139H16.456ZM21.9332 133.773L24.7969 139H23.1605L20.3423 133.773H21.9332ZM25.2997 127.364H26.9134L30.1406 132.795H30.277L33.5043 127.364H35.1179L30.9134 134.205V139H29.5043V134.205L25.2997 127.364ZM41.4403 139V127.364H45.5085C46.3191 127.364 46.9877 127.504 47.5142 127.784C48.0407 128.061 48.4328 128.434 48.6903 128.903C48.9479 129.369 49.0767 129.886 49.0767 130.455C49.0767 130.955 48.9877 131.367 48.8097 131.693C48.6354 132.019 48.4044 132.277 48.1165 132.466C47.8324 132.655 47.5237 132.795 47.1903 132.886V133C47.5464 133.023 47.9044 133.148 48.2642 133.375C48.6241 133.602 48.9252 133.928 49.1676 134.352C49.41 134.777 49.5312 135.295 49.5312 135.909C49.5312 136.492 49.3987 137.017 49.1335 137.483C48.8684 137.949 48.4498 138.318 47.8778 138.591C47.3059 138.864 46.5616 139 45.6449 139H41.4403ZM42.8494 137.75H45.6449C46.5653 137.75 47.2188 137.572 47.6051 137.216C47.9953 136.856 48.1903 136.42 48.1903 135.909C48.1903 135.515 48.09 135.152 47.8892 134.818C47.6884 134.481 47.4025 134.212 47.0312 134.011C46.66 133.807 46.2206 133.705 45.7131 133.705H42.8494V137.75ZM42.8494 132.477H45.4631C45.8873 132.477 46.2699 132.394 46.6108 132.227C46.9555 132.061 47.2282 131.826 47.429 131.523C47.6335 131.22 47.7358 130.864 47.7358 130.455C47.7358 129.943 47.5578 129.509 47.2017 129.153C46.8456 128.794 46.2813 128.614 45.5085 128.614H42.8494V132.477ZM51.8466 139V127.364H53.2557V137.75H58.6648V139H51.8466ZM62.2557 127.364V139H60.8466V127.364H62.2557ZM74.3082 127.364V139H72.9446L66.6037 129.864H66.4901V139H65.081V127.364H66.4446L72.8082 136.523H72.9219V127.364H74.3082ZM80.7188 139H77.1278V127.364H80.8778C82.0066 127.364 82.9725 127.597 83.7756 128.062C84.5786 128.525 85.1941 129.189 85.6222 130.057C86.0502 130.92 86.2642 131.955 86.2642 133.159C86.2642 134.371 86.0483 135.415 85.6165 136.29C85.1847 137.161 84.5559 137.831 83.7301 138.301C82.9044 138.767 81.9006 139 80.7188 139ZM78.5369 137.75H80.6278C81.59 137.75 82.3873 137.564 83.0199 137.193C83.6525 136.822 84.1241 136.294 84.4347 135.608C84.7453 134.922 84.9006 134.106 84.9006 133.159C84.9006 132.22 84.7472 131.411 84.4403 130.733C84.1335 130.051 83.6752 129.528 83.0653 129.165C82.4555 128.797 81.696 128.614 80.7869 128.614H78.5369V137.75ZM93.1278 127.364H94.8097L98.7642 137.023H98.9006L102.855 127.364H104.537V139H103.219V130.159H103.105L99.4688 139H98.196L94.5597 130.159H94.446V139H93.1278V127.364ZM117.18 133.182C117.18 134.409 116.959 135.47 116.516 136.364C116.072 137.258 115.464 137.947 114.692 138.432C113.919 138.917 113.036 139.159 112.044 139.159C111.052 139.159 110.169 138.917 109.396 138.432C108.624 137.947 108.016 137.258 107.572 136.364C107.129 135.47 106.908 134.409 106.908 133.182C106.908 131.955 107.129 130.894 107.572 130C108.016 129.106 108.624 128.417 109.396 127.932C110.169 127.447 111.052 127.205 112.044 127.205C113.036 127.205 113.919 127.447 114.692 127.932C115.464 128.417 116.072 129.106 116.516 130C116.959 130.894 117.18 131.955 117.18 133.182ZM115.817 133.182C115.817 132.174 115.648 131.324 115.311 130.631C114.978 129.938 114.525 129.413 113.953 129.057C113.385 128.701 112.749 128.523 112.044 128.523C111.339 128.523 110.701 128.701 110.129 129.057C109.561 129.413 109.108 129.938 108.771 130.631C108.438 131.324 108.271 132.174 108.271 133.182C108.271 134.189 108.438 135.04 108.771 135.733C109.108 136.426 109.561 136.951 110.129 137.307C110.701 137.663 111.339 137.841 112.044 137.841C112.749 137.841 113.385 137.663 113.953 137.307C114.525 136.951 114.978 136.426 115.311 135.733C115.648 135.04 115.817 134.189 115.817 133.182ZM118.429 128.614V127.364H127.156V128.614H123.497V139H122.088V128.614H118.429ZM129.331 139V127.364H130.74V132.545H136.945V127.364H138.354V139H136.945V133.795H130.74V139H129.331ZM141.175 139V127.364H148.197V128.614H142.584V132.545H147.834V133.795H142.584V137.75H148.288V139H141.175ZM150.737 139V127.364H154.669C155.578 127.364 156.324 127.519 156.908 127.83C157.491 128.136 157.923 128.559 158.203 129.097C158.483 129.634 158.624 130.246 158.624 130.932C158.624 131.617 158.483 132.225 158.203 132.756C157.923 133.286 157.493 133.703 156.913 134.006C156.334 134.305 155.593 134.455 154.692 134.455H151.51V133.182H154.646C155.268 133.182 155.768 133.091 156.146 132.909C156.529 132.727 156.805 132.47 156.976 132.136C157.15 131.799 157.237 131.398 157.237 130.932C157.237 130.466 157.15 130.059 156.976 129.71C156.802 129.362 156.523 129.093 156.141 128.903C155.758 128.71 155.252 128.614 154.624 128.614H152.146V139H150.737ZM156.214 133.773L159.078 139H157.442L154.624 133.773H156.214ZM161.972 127.364V128.386C161.972 128.697 161.915 129.028 161.801 129.381C161.691 129.729 161.528 130.068 161.312 130.398C161.1 130.723 160.843 131.008 160.54 131.25L159.812 130.659C160.051 130.318 160.258 129.964 160.432 129.597C160.61 129.225 160.699 128.83 160.699 128.409V127.364H161.972ZM170.288 130.273C170.22 129.697 169.944 129.25 169.459 128.932C168.974 128.614 168.379 128.455 167.675 128.455C167.16 128.455 166.709 128.538 166.322 128.705C165.94 128.871 165.641 129.1 165.425 129.392C165.213 129.684 165.107 130.015 165.107 130.386C165.107 130.697 165.18 130.964 165.328 131.188C165.48 131.407 165.673 131.591 165.908 131.739C166.143 131.883 166.389 132.002 166.646 132.097C166.904 132.187 167.141 132.261 167.357 132.318L168.538 132.636C168.841 132.716 169.179 132.826 169.55 132.966C169.925 133.106 170.283 133.297 170.624 133.54C170.968 133.778 171.252 134.085 171.476 134.46C171.699 134.835 171.811 135.295 171.811 135.841C171.811 136.47 171.646 137.038 171.317 137.545C170.991 138.053 170.514 138.456 169.885 138.756C169.26 139.055 168.5 139.205 167.607 139.205C166.773 139.205 166.052 139.07 165.442 138.801C164.836 138.532 164.358 138.157 164.01 137.676C163.665 137.195 163.47 136.636 163.425 136H164.879C164.917 136.439 165.065 136.803 165.322 137.091C165.584 137.375 165.913 137.587 166.311 137.727C166.713 137.864 167.144 137.932 167.607 137.932C168.144 137.932 168.627 137.845 169.055 137.67C169.483 137.492 169.822 137.246 170.072 136.932C170.322 136.614 170.447 136.242 170.447 135.818C170.447 135.432 170.339 135.117 170.124 134.875C169.908 134.633 169.624 134.436 169.271 134.284C168.919 134.133 168.538 134 168.129 133.886L166.697 133.477C165.788 133.216 165.069 132.843 164.538 132.358C164.008 131.873 163.743 131.239 163.743 130.455C163.743 129.803 163.919 129.235 164.271 128.75C164.627 128.261 165.105 127.883 165.703 127.614C166.305 127.341 166.978 127.205 167.72 127.205C168.47 127.205 169.137 127.339 169.72 127.608C170.304 127.873 170.766 128.237 171.107 128.699C171.451 129.161 171.633 129.686 171.652 130.273H170.288ZM187.991 131H186.582C186.499 130.595 186.353 130.239 186.145 129.932C185.94 129.625 185.69 129.367 185.395 129.159C185.103 128.947 184.779 128.788 184.423 128.682C184.067 128.576 183.696 128.523 183.31 128.523C182.605 128.523 181.967 128.701 181.395 129.057C180.827 129.413 180.374 129.938 180.037 130.631C179.704 131.324 179.537 132.174 179.537 133.182C179.537 134.189 179.704 135.04 180.037 135.733C180.374 136.426 180.827 136.951 181.395 137.307C181.967 137.663 182.605 137.841 183.31 137.841C183.696 137.841 184.067 137.788 184.423 137.682C184.779 137.576 185.103 137.419 185.395 137.21C185.69 136.998 185.94 136.739 186.145 136.432C186.353 136.121 186.499 135.765 186.582 135.364H187.991C187.885 135.958 187.692 136.491 187.412 136.96C187.132 137.43 186.783 137.83 186.366 138.159C185.95 138.485 185.482 138.733 184.963 138.903C184.448 139.074 183.897 139.159 183.31 139.159C182.317 139.159 181.435 138.917 180.662 138.432C179.889 137.947 179.281 137.258 178.838 136.364C178.395 135.47 178.173 134.409 178.173 133.182C178.173 131.955 178.395 130.894 178.838 130C179.281 129.106 179.889 128.417 180.662 127.932C181.435 127.447 182.317 127.205 183.31 127.205C183.897 127.205 184.448 127.29 184.963 127.46C185.482 127.631 185.95 127.881 186.366 128.21C186.783 128.536 187.132 128.934 187.412 129.403C187.692 129.869 187.885 130.402 187.991 131ZM200.087 133.182C200.087 134.409 199.865 135.47 199.422 136.364C198.979 137.258 198.371 137.947 197.598 138.432C196.825 138.917 195.943 139.159 194.95 139.159C193.958 139.159 193.075 138.917 192.303 138.432C191.53 137.947 190.922 137.258 190.479 136.364C190.036 135.47 189.814 134.409 189.814 133.182C189.814 131.955 190.036 130.894 190.479 130C190.922 129.106 191.53 128.417 192.303 127.932C193.075 127.447 193.958 127.205 194.95 127.205C195.943 127.205 196.825 127.447 197.598 127.932C198.371 128.417 198.979 129.106 199.422 130C199.865 130.894 200.087 131.955 200.087 133.182ZM198.723 133.182C198.723 132.174 198.554 131.324 198.217 130.631C197.884 129.938 197.431 129.413 196.859 129.057C196.291 128.701 195.655 128.523 194.95 128.523C194.246 128.523 193.607 128.701 193.036 129.057C192.467 129.413 192.015 129.938 191.678 130.631C191.344 131.324 191.178 132.174 191.178 133.182C191.178 134.189 191.344 135.04 191.678 135.733C192.015 136.426 192.467 136.951 193.036 137.307C193.607 137.663 194.246 137.841 194.95 137.841C195.655 137.841 196.291 137.663 196.859 137.307C197.431 136.951 197.884 136.426 198.217 135.733C198.554 135.04 198.723 134.189 198.723 133.182ZM202.456 127.364H204.138L208.092 137.023H208.229L212.183 127.364H213.865V139H212.547V130.159H212.433L208.797 139H207.524L203.888 130.159H203.774V139H202.456V127.364ZM216.69 139V127.364H220.622C221.535 127.364 222.281 127.528 222.861 127.858C223.444 128.184 223.876 128.625 224.156 129.182C224.437 129.739 224.577 130.36 224.577 131.045C224.577 131.731 224.437 132.354 224.156 132.915C223.88 133.475 223.452 133.922 222.872 134.256C222.293 134.585 221.55 134.75 220.645 134.75H217.827V133.5H220.599C221.224 133.5 221.726 133.392 222.105 133.176C222.484 132.96 222.759 132.669 222.929 132.301C223.103 131.93 223.19 131.511 223.19 131.045C223.19 130.58 223.103 130.163 222.929 129.795C222.759 129.428 222.482 129.14 222.099 128.932C221.717 128.72 221.209 128.614 220.577 128.614H218.099V139H216.69ZM226.847 139V127.364H228.256V137.75H233.665V139H226.847ZM237.058 139H235.581L239.854 127.364H241.308L245.581 139H244.104L240.626 129.205H240.536L237.058 139ZM237.604 134.455H243.558V135.705H237.604V134.455ZM248.803 127.364V139H247.393V127.364H248.803ZM260.855 127.364V139H259.491L253.151 129.864H253.037V139H251.628V127.364H252.991L259.355 136.523H259.469V127.364H260.855ZM263.038 128.614V127.364H271.766V128.614H268.107V139H266.697V128.614H263.038ZM280.304 130.273C280.236 129.697 279.959 129.25 279.474 128.932C278.99 128.614 278.395 128.455 277.69 128.455C277.175 128.455 276.724 128.538 276.338 128.705C275.955 128.871 275.656 129.1 275.44 129.392C275.228 129.684 275.122 130.015 275.122 130.386C275.122 130.697 275.196 130.964 275.344 131.188C275.495 131.407 275.688 131.591 275.923 131.739C276.158 131.883 276.404 132.002 276.662 132.097C276.92 132.187 277.156 132.261 277.372 132.318L278.554 132.636C278.857 132.716 279.194 132.826 279.565 132.966C279.94 133.106 280.298 133.297 280.639 133.54C280.984 133.778 281.268 134.085 281.491 134.46C281.715 134.835 281.827 135.295 281.827 135.841C281.827 136.47 281.662 137.038 281.332 137.545C281.007 138.053 280.529 138.456 279.901 138.756C279.276 139.055 278.516 139.205 277.622 139.205C276.789 139.205 276.067 139.07 275.457 138.801C274.851 138.532 274.374 138.157 274.026 137.676C273.681 137.195 273.486 136.636 273.44 136H274.895C274.933 136.439 275.08 136.803 275.338 137.091C275.599 137.375 275.929 137.587 276.327 137.727C276.728 137.864 277.16 137.932 277.622 137.932C278.16 137.932 278.643 137.845 279.071 137.67C279.499 137.492 279.838 137.246 280.088 136.932C280.338 136.614 280.463 136.242 280.463 135.818C280.463 135.432 280.355 135.117 280.139 134.875C279.923 134.633 279.639 134.436 279.287 134.284C278.935 134.133 278.554 134 278.145 133.886L276.713 133.477C275.804 133.216 275.084 132.843 274.554 132.358C274.024 131.873 273.759 131.239 273.759 130.455C273.759 129.803 273.935 129.235 274.287 128.75C274.643 128.261 275.12 127.883 275.719 127.614C276.321 127.341 276.993 127.205 277.736 127.205C278.486 127.205 279.152 127.339 279.736 127.608C280.319 127.873 280.781 128.237 281.122 128.699C281.467 129.161 281.649 129.686 281.668 130.273H280.304ZM289.121 139H287.643L291.916 127.364H293.371L297.643 139H296.166L292.689 129.205H292.598L289.121 139ZM289.666 134.455H295.621V135.705H289.666V134.455ZM300.865 127.364V139H299.456V127.364H300.865ZM303.69 139V127.364H307.622C308.531 127.364 309.277 127.519 309.861 127.83C310.444 128.136 310.876 128.559 311.156 129.097C311.437 129.634 311.577 130.246 311.577 130.932C311.577 131.617 311.437 132.225 311.156 132.756C310.876 133.286 310.446 133.703 309.866 134.006C309.287 134.305 308.546 134.455 307.645 134.455H304.463V133.182H307.599C308.221 133.182 308.721 133.091 309.099 132.909C309.482 132.727 309.759 132.47 309.929 132.136C310.103 131.799 310.19 131.398 310.19 130.932C310.19 130.466 310.103 130.059 309.929 129.71C309.755 129.362 309.476 129.093 309.094 128.903C308.711 128.71 308.205 128.614 307.577 128.614H305.099V139H303.69ZM309.168 133.773L312.031 139H310.395L307.577 133.773H309.168ZM312.534 127.364H314.148L317.375 132.795H317.511L320.739 127.364H322.352L318.148 134.205V139H316.739V134.205L312.534 127.364ZM328.675 139V127.364H332.743C333.554 127.364 334.222 127.504 334.749 127.784C335.275 128.061 335.667 128.434 335.925 128.903C336.182 129.369 336.311 129.886 336.311 130.455C336.311 130.955 336.222 131.367 336.044 131.693C335.87 132.019 335.639 132.277 335.351 132.466C335.067 132.655 334.758 132.795 334.425 132.886V133C334.781 133.023 335.139 133.148 335.499 133.375C335.858 133.602 336.16 133.928 336.402 134.352C336.644 134.777 336.766 135.295 336.766 135.909C336.766 136.492 336.633 137.017 336.368 137.483C336.103 137.949 335.684 138.318 335.112 138.591C334.54 138.864 333.796 139 332.879 139H328.675ZM330.084 137.75H332.879C333.8 137.75 334.453 137.572 334.839 137.216C335.23 136.856 335.425 136.42 335.425 135.909C335.425 135.515 335.324 135.152 335.124 134.818C334.923 134.481 334.637 134.212 334.266 134.011C333.894 133.807 333.455 133.705 332.947 133.705H330.084V137.75ZM330.084 132.477H332.697C333.122 132.477 333.504 132.394 333.845 132.227C334.19 132.061 334.463 131.826 334.663 131.523C334.868 131.22 334.97 130.864 334.97 130.455C334.97 129.943 334.792 129.509 334.436 129.153C334.08 128.794 333.516 128.614 332.743 128.614H330.084V132.477ZM339.081 139V127.364H340.49V137.75H345.899V139H339.081ZM349.49 127.364V139H348.081V127.364H349.49Z" fill="#505050" fill-opacity="0.5"/>
<path d="M1.40909 158V146.364H8.38636V147.614H2.81818V151.545H7.86364V152.795H2.81818V158H1.40909ZM10.7997 158V146.364H17.8224V147.614H12.2088V151.545H17.4588V152.795H12.2088V156.75H17.9134V158H10.7997ZM20.3622 146.364H22.044L25.9986 156.023H26.1349L30.0895 146.364H31.7713V158H30.4531V149.159H30.3395L26.7031 158H25.4304L21.794 149.159H21.6804V158H20.3622V146.364ZM34.5966 146.364H36.2784L40.233 156.023H40.3693L44.3239 146.364H46.0057V158H44.6875V149.159H44.5739L40.9375 158H39.6648L36.0284 149.159H35.9148V158H34.5966V146.364ZM48.831 158V146.364H55.8537V147.614H50.2401V151.545H55.4901V152.795H50.2401V156.75H55.9446V158H48.831ZM62.8935 158V146.364H69.8707V147.614H64.3026V151.545H69.348V152.795H64.3026V158H62.8935ZM71.3082 158H69.831L74.1037 146.364H75.5582L79.831 158H78.3537L74.8764 148.205H74.7855L71.3082 158ZM71.8537 153.455H77.8082V154.705H71.8537V153.455ZM79.6477 147.614V146.364H88.375V147.614H84.7159V158H83.3068V147.614H79.6477ZM89.6676 158H88.1903L92.4631 146.364H93.9176L98.1903 158H96.7131L93.2358 148.205H93.1449L89.6676 158ZM90.2131 153.455H96.1676V154.705H90.2131V153.455ZM100.003 158V146.364H101.412V156.75H106.821V158H100.003ZM109.003 158V146.364H116.026V147.614H110.412V151.545H115.662V152.795H110.412V156.75H116.116V158H109.003ZM123.065 158V146.364H124.474V156.75H129.884V158H123.065ZM141.43 152.182C141.43 153.409 141.209 154.47 140.766 155.364C140.322 156.258 139.714 156.947 138.942 157.432C138.169 157.917 137.286 158.159 136.294 158.159C135.302 158.159 134.419 157.917 133.646 157.432C132.874 156.947 132.266 156.258 131.822 155.364C131.379 154.47 131.158 153.409 131.158 152.182C131.158 150.955 131.379 149.894 131.822 149C132.266 148.106 132.874 147.417 133.646 146.932C134.419 146.447 135.302 146.205 136.294 146.205C137.286 146.205 138.169 146.447 138.942 146.932C139.714 147.417 140.322 148.106 140.766 149C141.209 149.894 141.43 150.955 141.43 152.182ZM140.067 152.182C140.067 151.174 139.898 150.324 139.561 149.631C139.228 148.938 138.775 148.413 138.203 148.057C137.635 147.701 136.999 147.523 136.294 147.523C135.589 147.523 134.951 147.701 134.379 148.057C133.811 148.413 133.358 148.938 133.021 149.631C132.688 150.324 132.521 151.174 132.521 152.182C132.521 153.189 132.688 154.04 133.021 154.733C133.358 155.426 133.811 155.951 134.379 156.307C134.951 156.663 135.589 156.841 136.294 156.841C136.999 156.841 137.635 156.663 138.203 156.307C138.775 155.951 139.228 155.426 139.561 154.733C139.898 154.04 140.067 153.189 140.067 152.182ZM153.027 146.364V158H151.663L145.322 148.864H145.209V158H143.8V146.364H145.163L151.527 155.523H151.641V146.364H153.027ZM155.847 158V146.364H162.869V147.614H157.256V151.545H162.506V152.795H157.256V156.75H162.96V158H155.847ZM176.273 149.273C176.205 148.697 175.928 148.25 175.443 147.932C174.958 147.614 174.364 147.455 173.659 147.455C173.144 147.455 172.693 147.538 172.307 147.705C171.924 147.871 171.625 148.1 171.409 148.392C171.197 148.684 171.091 149.015 171.091 149.386C171.091 149.697 171.165 149.964 171.312 150.188C171.464 150.407 171.657 150.591 171.892 150.739C172.127 150.883 172.373 151.002 172.631 151.097C172.888 151.187 173.125 151.261 173.341 151.318L174.523 151.636C174.826 151.716 175.163 151.826 175.534 151.966C175.909 152.106 176.267 152.297 176.608 152.54C176.953 152.778 177.237 153.085 177.46 153.46C177.684 153.835 177.795 154.295 177.795 154.841C177.795 155.47 177.631 156.038 177.301 156.545C176.975 157.053 176.498 157.456 175.869 157.756C175.244 158.055 174.485 158.205 173.591 158.205C172.758 158.205 172.036 158.07 171.426 157.801C170.82 157.532 170.343 157.157 169.994 156.676C169.65 156.195 169.455 155.636 169.409 155H170.864C170.902 155.439 171.049 155.803 171.307 156.091C171.568 156.375 171.898 156.587 172.295 156.727C172.697 156.864 173.129 156.932 173.591 156.932C174.129 156.932 174.612 156.845 175.04 156.67C175.468 156.492 175.807 156.246 176.057 155.932C176.307 155.614 176.432 155.242 176.432 154.818C176.432 154.432 176.324 154.117 176.108 153.875C175.892 153.633 175.608 153.436 175.256 153.284C174.903 153.133 174.523 153 174.114 152.886L172.682 152.477C171.773 152.216 171.053 151.843 170.523 151.358C169.992 150.873 169.727 150.239 169.727 149.455C169.727 148.803 169.903 148.235 170.256 147.75C170.612 147.261 171.089 146.883 171.688 146.614C172.29 146.341 172.962 146.205 173.705 146.205C174.455 146.205 175.121 146.339 175.705 146.608C176.288 146.873 176.75 147.237 177.091 147.699C177.436 148.161 177.617 148.686 177.636 149.273H176.273ZM180.112 158V146.364H181.521V156.75H186.93V158H180.112ZM190.521 146.364V158H189.112V146.364H190.521ZM193.347 146.364H195.028L198.983 156.023H199.119L203.074 146.364H204.756V158H203.438V149.159H203.324L199.688 158H198.415L194.778 149.159H194.665V158H193.347V146.364ZM207.581 158V146.364H214.604V147.614H208.99V151.545H214.24V152.795H208.99V156.75H214.695V158H207.581ZM221.643 158V146.364H228.621V147.614H223.053V151.545H228.098V152.795H223.053V158H221.643ZM231.034 158V146.364H238.057V147.614H232.443V151.545H237.693V152.795H232.443V156.75H238.148V158H231.034ZM240.597 146.364H242.278L246.233 156.023H246.369L250.324 146.364H252.006V158H250.688V149.159H250.574L246.938 158H245.665L242.028 149.159H241.915V158H240.597V146.364ZM254.831 146.364H256.513L260.467 156.023H260.604L264.558 146.364H266.24V158H264.922V149.159H264.808L261.172 158H259.899L256.263 149.159H256.149V158H254.831V146.364ZM269.065 158V146.364H276.088V147.614H270.474V151.545H275.724V152.795H270.474V156.75H276.179V158H269.065ZM283.128 158V146.364H290.105V147.614H284.537V151.545H289.582V152.795H284.537V158H283.128ZM292.518 158V146.364H299.541V147.614H293.928V151.545H299.178V152.795H293.928V156.75H299.632V158H292.518ZM302.081 146.364H303.763L307.717 156.023H307.854L311.808 146.364H313.49V158H312.172V149.159H312.058L308.422 158H307.149L303.513 149.159H303.399V158H302.081V146.364ZM316.315 146.364H317.997L321.952 156.023H322.088L326.043 146.364H327.724V158H326.406V149.159H326.293L322.656 158H321.384L317.747 149.159H317.634V158H316.315V146.364ZM330.55 158V146.364H337.572V147.614H331.959V151.545H337.209V152.795H331.959V156.75H337.663V158H330.55ZM344.612 158V146.364H351.589V147.614H346.021V151.545H351.067V152.795H346.021V158H344.612Z" fill="#505050" fill-opacity="0.5"/>
<path d="M7.77273 168.273C7.70455 167.697 7.42803 167.25 6.94318 166.932C6.45833 166.614 5.86364 166.455 5.15909 166.455C4.64394 166.455 4.19318 166.538 3.80682 166.705C3.42424 166.871 3.125 167.1 2.90909 167.392C2.69697 167.684 2.59091 168.015 2.59091 168.386C2.59091 168.697 2.66477 168.964 2.8125 169.188C2.96402 169.407 3.1572 169.591 3.39205 169.739C3.62689 169.883 3.87311 170.002 4.13068 170.097C4.38826 170.187 4.625 170.261 4.84091 170.318L6.02273 170.636C6.32576 170.716 6.66288 170.826 7.03409 170.966C7.40909 171.106 7.76705 171.297 8.10795 171.54C8.45265 171.778 8.73674 172.085 8.96023 172.46C9.18371 172.835 9.29545 173.295 9.29545 173.841C9.29545 174.47 9.13068 175.038 8.80114 175.545C8.47538 176.053 7.99811 176.456 7.36932 176.756C6.74432 177.055 5.98485 177.205 5.09091 177.205C4.25758 177.205 3.53598 177.07 2.92614 176.801C2.32008 176.532 1.8428 176.157 1.49432 175.676C1.14962 175.195 0.954545 174.636 0.909091 174H2.36364C2.40152 174.439 2.54924 174.803 2.80682 175.091C3.06818 175.375 3.39773 175.587 3.79545 175.727C4.19697 175.864 4.62879 175.932 5.09091 175.932C5.62879 175.932 6.11174 175.845 6.53977 175.67C6.9678 175.492 7.30682 175.246 7.55682 174.932C7.80682 174.614 7.93182 174.242 7.93182 173.818C7.93182 173.432 7.82386 173.117 7.60795 172.875C7.39205 172.633 7.10795 172.436 6.75568 172.284C6.40341 172.133 6.02273 172 5.61364 171.886L4.18182 171.477C3.27273 171.216 2.55303 170.843 2.02273 170.358C1.49242 169.873 1.22727 169.239 1.22727 168.455C1.22727 167.803 1.40341 167.235 1.75568 166.75C2.11174 166.261 2.58902 165.883 3.1875 165.614C3.78977 165.341 4.46212 165.205 5.20455 165.205C5.95455 165.205 6.62121 165.339 7.20455 165.608C7.78788 165.873 8.25 166.237 8.59091 166.699C8.93561 167.161 9.11742 167.686 9.13636 168.273H7.77273ZM11.6122 177V165.364H13.0213V170.545H19.2259V165.364H20.6349V177H19.2259V171.795H13.0213V177H11.6122ZM24.8651 165.364V177H23.456V165.364H24.8651ZM27.6903 177V165.364H29.0994V175.75H34.5085V177H27.6903ZM36.6903 177V165.364H40.6222C41.535 165.364 42.2813 165.528 42.8608 165.858C43.4441 166.184 43.8759 166.625 44.1562 167.182C44.4366 167.739 44.5767 168.36 44.5767 169.045C44.5767 169.731 44.4366 170.354 44.1562 170.915C43.8797 171.475 43.4517 171.922 42.8722 172.256C42.2926 172.585 41.5502 172.75 40.6449 172.75H37.8267V171.5H40.5994C41.2244 171.5 41.7263 171.392 42.1051 171.176C42.4839 170.96 42.7585 170.669 42.929 170.301C43.1032 169.93 43.1903 169.511 43.1903 169.045C43.1903 168.58 43.1032 168.163 42.929 167.795C42.7585 167.428 42.482 167.14 42.0994 166.932C41.7169 166.72 41.2093 166.614 40.5767 166.614H38.0994V177H36.6903ZM46.1364 177H44.6591L48.9318 165.364H50.3864L54.6591 177H53.1818L49.7045 167.205H49.6136L46.1364 177ZM46.6818 172.455H52.6364V173.705H46.6818V172.455ZM62.3807 165.364V177H60.9716V165.364H62.3807ZM71.5696 168.273C71.5014 167.697 71.2249 167.25 70.7401 166.932C70.2552 166.614 69.6605 166.455 68.956 166.455C68.4408 166.455 67.9901 166.538 67.6037 166.705C67.2211 166.871 66.9219 167.1 66.706 167.392C66.4938 167.684 66.3878 168.015 66.3878 168.386C66.3878 168.697 66.4616 168.964 66.6094 169.188C66.7609 169.407 66.9541 169.591 67.1889 169.739C67.4238 169.883 67.67 170.002 67.9276 170.097C68.1851 170.187 68.4219 170.261 68.6378 170.318L69.8196 170.636C70.1226 170.716 70.4598 170.826 70.831 170.966C71.206 171.106 71.5639 171.297 71.9048 171.54C72.2495 171.778 72.5336 172.085 72.7571 172.46C72.9806 172.835 73.0923 173.295 73.0923 173.841C73.0923 174.47 72.9276 175.038 72.598 175.545C72.2723 176.053 71.795 176.456 71.1662 176.756C70.5412 177.055 69.7817 177.205 68.8878 177.205C68.0545 177.205 67.3329 177.07 66.723 176.801C66.117 176.532 65.6397 176.157 65.2912 175.676C64.9465 175.195 64.7514 174.636 64.706 174H66.1605C66.1984 174.439 66.3461 174.803 66.6037 175.091C66.8651 175.375 67.1946 175.587 67.5923 175.727C67.9938 175.864 68.4257 175.932 68.8878 175.932C69.4257 175.932 69.9086 175.845 70.3366 175.67C70.7647 175.492 71.1037 175.246 71.3537 174.932C71.6037 174.614 71.7287 174.242 71.7287 173.818C71.7287 173.432 71.6207 173.117 71.4048 172.875C71.1889 172.633 70.9048 172.436 70.5526 172.284C70.2003 172.133 69.8196 172 69.4105 171.886L67.9787 171.477C67.0696 171.216 66.3499 170.843 65.8196 170.358C65.2893 169.873 65.0241 169.239 65.0241 168.455C65.0241 167.803 65.2003 167.235 65.5526 166.75C65.9086 166.261 66.3859 165.883 66.9844 165.614C67.5866 165.341 68.259 165.205 69.0014 165.205C69.7514 165.205 70.4181 165.339 71.0014 165.608C71.5848 165.873 72.0469 166.237 72.3878 166.699C72.7325 167.161 72.9143 167.686 72.9332 168.273H71.5696ZM75.4091 177V165.364H76.8182V170.545H83.0227V165.364H84.4318V177H83.0227V171.795H76.8182V177H75.4091ZM87.2528 177V165.364H91.1847C92.0938 165.364 92.84 165.519 93.4233 165.83C94.0066 166.136 94.4384 166.559 94.7188 167.097C94.9991 167.634 95.1392 168.246 95.1392 168.932C95.1392 169.617 94.9991 170.225 94.7188 170.756C94.4384 171.286 94.0085 171.703 93.429 172.006C92.8494 172.305 92.1089 172.455 91.2074 172.455H88.0256V171.182H91.1619C91.7831 171.182 92.2831 171.091 92.6619 170.909C93.0445 170.727 93.321 170.47 93.4915 170.136C93.6657 169.799 93.7528 169.398 93.7528 168.932C93.7528 168.466 93.6657 168.059 93.4915 167.71C93.3172 167.362 93.0388 167.093 92.6562 166.903C92.2737 166.71 91.768 166.614 91.1392 166.614H88.6619V177H87.2528ZM92.7301 171.773L95.5938 177H93.9574L91.1392 171.773H92.7301ZM97.9645 177H96.4872L100.76 165.364H102.214L106.487 177H105.01L101.533 167.205H101.442L97.9645 177ZM98.5099 172.455H104.464V173.705H98.5099V172.455ZM106.304 166.614V165.364H115.031V166.614H111.372V177H109.963V166.614H106.304ZM130.933 165.364V177H129.57L123.229 167.864H123.115V177H121.706V165.364H123.07L129.433 174.523H129.547V165.364H130.933ZM134.23 177H132.753L137.026 165.364H138.48L142.753 177H141.276L137.798 167.205H137.707L134.23 177ZM134.776 172.455H140.73V173.705H134.776V172.455ZM144.179 177V175.977L150.452 166.614H144.111V165.364H152.134V166.386L145.861 175.75H152.202V177H144.179ZM154.565 177V165.364H158.497C159.406 165.364 160.152 165.519 160.736 165.83C161.319 166.136 161.751 166.559 162.031 167.097C162.312 167.634 162.452 168.246 162.452 168.932C162.452 169.617 162.312 170.225 162.031 170.756C161.751 171.286 161.321 171.703 160.741 172.006C160.162 172.305 159.421 172.455 158.52 172.455H155.338V171.182H158.474C159.096 171.182 159.596 171.091 159.974 170.909C160.357 170.727 160.634 170.47 160.804 170.136C160.978 169.799 161.065 169.398 161.065 168.932C161.065 168.466 160.978 168.059 160.804 167.71C160.63 167.362 160.351 167.093 159.969 166.903C159.586 166.71 159.08 166.614 158.452 166.614H155.974V177H154.565ZM160.043 171.773L162.906 177H161.27L158.452 171.773H160.043ZM172.436 165.364H173.845V173.068C173.845 173.864 173.658 174.574 173.283 175.199C172.911 175.82 172.387 176.311 171.709 176.67C171.031 177.027 170.235 177.205 169.322 177.205C168.41 177.205 167.614 177.027 166.936 176.67C166.258 176.311 165.732 175.82 165.357 175.199C164.985 174.574 164.8 173.864 164.8 173.068V165.364H166.209V172.955C166.209 173.523 166.334 174.028 166.584 174.472C166.834 174.911 167.19 175.258 167.652 175.511C168.118 175.761 168.675 175.886 169.322 175.886C169.97 175.886 170.527 175.761 170.993 175.511C171.459 175.258 171.815 174.911 172.061 174.472C172.311 174.028 172.436 173.523 172.436 172.955V165.364ZM176.659 177V165.364H178.068V175.75H183.477V177H176.659ZM190.159 177V165.364H191.568V171.136H191.705L196.932 165.364H198.773L193.886 170.614L198.773 177H197.068L193.023 171.591L191.568 173.227V177H190.159ZM200.597 177V165.364H202.006V170.545H208.21V165.364H209.619V177H208.21V171.795H202.006V177H200.597ZM212.918 177H211.44L215.713 165.364H217.168L221.44 177H219.963L216.486 167.205H216.395L212.918 177ZM213.463 172.455H219.418V173.705H213.463V172.455ZM221.257 166.614V165.364H229.984V166.614H226.325V177H224.916V166.614H221.257ZM239.795 165.364H241.205V173.068C241.205 173.864 241.017 174.574 240.642 175.199C240.271 175.82 239.746 176.311 239.068 176.67C238.39 177.027 237.595 177.205 236.682 177.205C235.769 177.205 234.973 177.027 234.295 176.67C233.617 176.311 233.091 175.82 232.716 175.199C232.345 174.574 232.159 173.864 232.159 173.068V165.364H233.568V172.955C233.568 173.523 233.693 174.028 233.943 174.472C234.193 174.911 234.549 175.258 235.011 175.511C235.477 175.761 236.034 175.886 236.682 175.886C237.33 175.886 237.886 175.761 238.352 175.511C238.818 175.258 239.174 174.911 239.42 174.472C239.67 174.028 239.795 173.523 239.795 172.955V165.364ZM253.246 165.364V177H251.882L245.541 167.864H245.428V177H244.018V165.364H245.382L251.746 174.523H251.859V165.364H253.246ZM266.929 168.273C266.861 167.697 266.584 167.25 266.099 166.932C265.615 166.614 265.02 166.455 264.315 166.455C263.8 166.455 263.349 166.538 262.963 166.705C262.58 166.871 262.281 167.1 262.065 167.392C261.853 167.684 261.747 168.015 261.747 168.386C261.747 168.697 261.821 168.964 261.969 169.188C262.12 169.407 262.313 169.591 262.548 169.739C262.783 169.883 263.029 170.002 263.287 170.097C263.545 170.187 263.781 170.261 263.997 170.318L265.179 170.636C265.482 170.716 265.819 170.826 266.19 170.966C266.565 171.106 266.923 171.297 267.264 171.54C267.609 171.778 267.893 172.085 268.116 172.46C268.34 172.835 268.452 173.295 268.452 173.841C268.452 174.47 268.287 175.038 267.957 175.545C267.632 176.053 267.154 176.456 266.526 176.756C265.901 177.055 265.141 177.205 264.247 177.205C263.414 177.205 262.692 177.07 262.082 176.801C261.476 176.532 260.999 176.157 260.651 175.676C260.306 175.195 260.111 174.636 260.065 174H261.52C261.558 174.439 261.705 174.803 261.963 175.091C262.224 175.375 262.554 175.587 262.952 175.727C263.353 175.864 263.785 175.932 264.247 175.932C264.785 175.932 265.268 175.845 265.696 175.67C266.124 175.492 266.463 175.246 266.713 174.932C266.963 174.614 267.088 174.242 267.088 173.818C267.088 173.432 266.98 173.117 266.764 172.875C266.548 172.633 266.264 172.436 265.912 172.284C265.56 172.133 265.179 172 264.77 171.886L263.338 171.477C262.429 171.216 261.709 170.843 261.179 170.358C260.649 169.873 260.384 169.239 260.384 168.455C260.384 167.803 260.56 167.235 260.912 166.75C261.268 166.261 261.745 165.883 262.344 165.614C262.946 165.341 263.618 165.205 264.361 165.205C265.111 165.205 265.777 165.339 266.361 165.608C266.944 165.873 267.406 166.237 267.747 166.699C268.092 167.161 268.274 167.686 268.293 168.273H266.929ZM270.768 177V165.364H272.178V170.545H278.382V165.364H279.791V177H278.382V171.795H272.178V177H270.768ZM284.021 165.364V177H282.612V165.364H284.021ZM286.847 177V165.364H288.256V175.75H293.665V177H286.847ZM295.847 177V165.364H299.778C300.691 165.364 301.438 165.528 302.017 165.858C302.6 166.184 303.032 166.625 303.312 167.182C303.593 167.739 303.733 168.36 303.733 169.045C303.733 169.731 303.593 170.354 303.312 170.915C303.036 171.475 302.608 171.922 302.028 172.256C301.449 172.585 300.706 172.75 299.801 172.75H296.983V171.5H299.756C300.381 171.5 300.883 171.392 301.261 171.176C301.64 170.96 301.915 170.669 302.085 170.301C302.259 169.93 302.347 169.511 302.347 169.045C302.347 168.58 302.259 168.163 302.085 167.795C301.915 167.428 301.638 167.14 301.256 166.932C300.873 166.72 300.366 166.614 299.733 166.614H297.256V177H295.847ZM305.293 177H303.815L308.088 165.364H309.543L313.815 177H312.338L308.861 167.205H308.77L305.293 177ZM305.838 172.455H311.793V173.705H305.838V172.455ZM321.537 165.364V177H320.128V165.364H321.537ZM330.726 168.273C330.658 167.697 330.381 167.25 329.896 166.932C329.411 166.614 328.817 166.455 328.112 166.455C327.597 166.455 327.146 166.538 326.76 166.705C326.377 166.871 326.078 167.1 325.862 167.392C325.65 167.684 325.544 168.015 325.544 168.386C325.544 168.697 325.618 168.964 325.766 169.188C325.917 169.407 326.11 169.591 326.345 169.739C326.58 169.883 326.826 170.002 327.084 170.097C327.341 170.187 327.578 170.261 327.794 170.318L328.976 170.636C329.279 170.716 329.616 170.826 329.987 170.966C330.362 171.106 330.72 171.297 331.061 171.54C331.406 171.778 331.69 172.085 331.913 172.46C332.137 172.835 332.249 173.295 332.249 173.841C332.249 174.47 332.084 175.038 331.754 175.545C331.429 176.053 330.951 176.456 330.322 176.756C329.697 177.055 328.938 177.205 328.044 177.205C327.211 177.205 326.489 177.07 325.879 176.801C325.273 176.532 324.796 176.157 324.447 175.676C324.103 175.195 323.908 174.636 323.862 174H325.317C325.355 174.439 325.502 174.803 325.76 175.091C326.021 175.375 326.351 175.587 326.749 175.727C327.15 175.864 327.582 175.932 328.044 175.932C328.582 175.932 329.065 175.845 329.493 175.67C329.921 175.492 330.26 175.246 330.51 174.932C330.76 174.614 330.885 174.242 330.885 173.818C330.885 173.432 330.777 173.117 330.561 172.875C330.345 172.633 330.061 172.436 329.709 172.284C329.357 172.133 328.976 172 328.567 171.886L327.135 171.477C326.226 171.216 325.506 170.843 324.976 170.358C324.446 169.873 324.18 169.239 324.18 168.455C324.18 167.803 324.357 167.235 324.709 166.75C325.065 166.261 325.542 165.883 326.141 165.614C326.743 165.341 327.415 165.205 328.158 165.205C328.908 165.205 329.574 165.339 330.158 165.608C330.741 165.873 331.203 166.237 331.544 166.699C331.889 167.161 332.071 167.686 332.089 168.273H330.726ZM334.565 177V165.364H335.974V170.545H342.179V165.364H343.588V177H342.179V171.795H335.974V177H334.565ZM346.409 177V165.364H350.341C351.25 165.364 351.996 165.519 352.58 165.83C353.163 166.136 353.595 166.559 353.875 167.097C354.155 167.634 354.295 168.246 354.295 168.932C354.295 169.617 354.155 170.225 353.875 170.756C353.595 171.286 353.165 171.703 352.585 172.006C352.006 172.305 351.265 172.455 350.364 172.455H347.182V171.182H350.318C350.939 171.182 351.439 171.091 351.818 170.909C352.201 170.727 352.477 170.47 352.648 170.136C352.822 169.799 352.909 169.398 352.909 168.932C352.909 168.466 352.822 168.059 352.648 167.71C352.473 167.362 352.195 167.093 351.812 166.903C351.43 166.71 350.924 166.614 350.295 166.614H347.818V177H346.409ZM351.886 171.773L354.75 177H353.114L350.295 171.773H351.886Z" fill="#505050" fill-opacity="0.5"/>
<path d="M5.86364 184.364H7.27273V192.682C7.27273 193.424 7.13636 194.055 6.86364 194.574C6.59091 195.093 6.20644 195.487 5.71023 195.756C5.21402 196.025 4.62879 196.159 3.95455 196.159C3.31818 196.159 2.75189 196.044 2.25568 195.812C1.75947 195.578 1.36932 195.244 1.08523 194.812C0.801136 194.381 0.659091 193.867 0.659091 193.273H2.04545C2.04545 193.602 2.12689 193.89 2.28977 194.136C2.45644 194.379 2.68371 194.568 2.97159 194.705C3.25947 194.841 3.58712 194.909 3.95455 194.909C4.35985 194.909 4.70455 194.824 4.98864 194.653C5.27273 194.483 5.48864 194.233 5.63636 193.903C5.78788 193.57 5.86364 193.163 5.86364 192.682V184.364ZM19.9148 190.182C19.9148 191.409 19.6932 192.47 19.25 193.364C18.8068 194.258 18.1989 194.947 17.4261 195.432C16.6534 195.917 15.7708 196.159 14.7784 196.159C13.786 196.159 12.9034 195.917 12.1307 195.432C11.358 194.947 10.75 194.258 10.3068 193.364C9.86364 192.47 9.64205 191.409 9.64205 190.182C9.64205 188.955 9.86364 187.894 10.3068 187C10.75 186.106 11.358 185.417 12.1307 184.932C12.9034 184.447 13.786 184.205 14.7784 184.205C15.7708 184.205 16.6534 184.447 17.4261 184.932C18.1989 185.417 18.8068 186.106 19.25 187C19.6932 187.894 19.9148 188.955 19.9148 190.182ZM18.5511 190.182C18.5511 189.174 18.3826 188.324 18.0455 187.631C17.7121 186.938 17.2595 186.413 16.6875 186.057C16.1193 185.701 15.483 185.523 14.7784 185.523C14.0739 185.523 13.4356 185.701 12.8636 186.057C12.2955 186.413 11.8428 186.938 11.5057 187.631C11.1723 188.324 11.0057 189.174 11.0057 190.182C11.0057 191.189 11.1723 192.04 11.5057 192.733C11.8428 193.426 12.2955 193.951 12.8636 194.307C13.4356 194.663 14.0739 194.841 14.7784 194.841C15.483 194.841 16.1193 194.663 16.6875 194.307C17.2595 193.951 17.7121 193.426 18.0455 192.733C18.3826 192.04 18.5511 191.189 18.5511 190.182ZM29.9205 184.364H31.3295V192.068C31.3295 192.864 31.142 193.574 30.767 194.199C30.3958 194.82 29.8712 195.311 29.1932 195.67C28.5152 196.027 27.7197 196.205 26.8068 196.205C25.8939 196.205 25.0985 196.027 24.4205 195.67C23.7424 195.311 23.2159 194.82 22.8409 194.199C22.4697 193.574 22.2841 192.864 22.2841 192.068V184.364H23.6932V191.955C23.6932 192.523 23.8182 193.028 24.0682 193.472C24.3182 193.911 24.6742 194.258 25.1364 194.511C25.6023 194.761 26.1591 194.886 26.8068 194.886C27.4545 194.886 28.0114 194.761 28.4773 194.511C28.9432 194.258 29.2992 193.911 29.5455 193.472C29.7955 193.028 29.9205 192.523 29.9205 191.955V184.364ZM34.1435 196V184.364H38.0753C38.9844 184.364 39.7306 184.519 40.3139 184.83C40.8973 185.136 41.3291 185.559 41.6094 186.097C41.8897 186.634 42.0298 187.246 42.0298 187.932C42.0298 188.617 41.8897 189.225 41.6094 189.756C41.3291 190.286 40.8991 190.703 40.3196 191.006C39.7401 191.305 38.9995 191.455 38.098 191.455H34.9162V190.182H38.0526C38.6738 190.182 39.1738 190.091 39.5526 189.909C39.9351 189.727 40.2116 189.47 40.3821 189.136C40.5563 188.799 40.6435 188.398 40.6435 187.932C40.6435 187.466 40.5563 187.059 40.3821 186.71C40.2079 186.362 39.9295 186.093 39.5469 185.903C39.1643 185.71 38.6586 185.614 38.0298 185.614H35.5526V196H34.1435ZM39.6207 190.773L42.4844 196H40.848L38.0298 190.773H39.6207ZM53.6051 184.364V196H52.2415L45.9006 186.864H45.7869V196H44.3778V184.364H45.7415L52.1051 193.523H52.2188V184.364H53.6051ZM56.902 196H55.4247L59.6974 184.364H61.152L65.4247 196H63.9474L60.4702 186.205H60.3793L56.902 196ZM57.4474 191.455H63.402V192.705H57.4474V191.455ZM67.2372 196V184.364H68.6463V194.75H74.0554V196H67.2372ZM77.6463 184.364V196H76.2372V184.364H77.6463ZM86.8352 187.273C86.767 186.697 86.4905 186.25 86.0057 185.932C85.5208 185.614 84.9261 185.455 84.2216 185.455C83.7064 185.455 83.2557 185.538 82.8693 185.705C82.4867 185.871 82.1875 186.1 81.9716 186.392C81.7595 186.684 81.6534 187.015 81.6534 187.386C81.6534 187.697 81.7273 187.964 81.875 188.188C82.0265 188.407 82.2197 188.591 82.4545 188.739C82.6894 188.883 82.9356 189.002 83.1932 189.097C83.4508 189.187 83.6875 189.261 83.9034 189.318L85.0852 189.636C85.3883 189.716 85.7254 189.826 86.0966 189.966C86.4716 190.106 86.8295 190.297 87.1705 190.54C87.5152 190.778 87.7992 191.085 88.0227 191.46C88.2462 191.835 88.358 192.295 88.358 192.841C88.358 193.47 88.1932 194.038 87.8636 194.545C87.5379 195.053 87.0606 195.456 86.4318 195.756C85.8068 196.055 85.0473 196.205 84.1534 196.205C83.3201 196.205 82.5985 196.07 81.9886 195.801C81.3826 195.532 80.9053 195.157 80.5568 194.676C80.2121 194.195 80.017 193.636 79.9716 193H81.4261C81.464 193.439 81.6117 193.803 81.8693 194.091C82.1307 194.375 82.4602 194.587 82.858 194.727C83.2595 194.864 83.6913 194.932 84.1534 194.932C84.6913 194.932 85.1742 194.845 85.6023 194.67C86.0303 194.492 86.3693 194.246 86.6193 193.932C86.8693 193.614 86.9943 193.242 86.9943 192.818C86.9943 192.432 86.8864 192.117 86.6705 191.875C86.4545 191.633 86.1705 191.436 85.8182 191.284C85.4659 191.133 85.0852 191 84.6761 190.886L83.2443 190.477C82.3352 190.216 81.6155 189.843 81.0852 189.358C80.5549 188.873 80.2898 188.239 80.2898 187.455C80.2898 186.803 80.4659 186.235 80.8182 185.75C81.1742 185.261 81.6515 184.883 82.25 184.614C82.8523 184.341 83.5246 184.205 84.267 184.205C85.017 184.205 85.6837 184.339 86.267 184.608C86.8504 184.873 87.3125 185.237 87.6534 185.699C87.9981 186.161 88.1799 186.686 88.1989 187.273H86.8352ZM90.6747 184.364H92.3565L96.3111 194.023H96.4474L100.402 184.364H102.084V196H100.766V187.159H100.652L97.0156 196H95.7429L92.1065 187.159H91.9929V196H90.6747V184.364ZM109.409 184.364H111.091L115.045 194.023H115.182L119.136 184.364H120.818V196H119.5V187.159H119.386L115.75 196H114.477L110.841 187.159H110.727V196H109.409V184.364ZM124.121 196H122.643L126.916 184.364H128.371L132.643 196H131.166L127.689 186.205H127.598L124.121 196ZM124.666 191.455H130.621V192.705H124.666V191.455ZM134.456 196V184.364H138.388C139.297 184.364 140.043 184.519 140.626 184.83C141.21 185.136 141.642 185.559 141.922 186.097C142.202 186.634 142.342 187.246 142.342 187.932C142.342 188.617 142.202 189.225 141.922 189.756C141.642 190.286 141.212 190.703 140.632 191.006C140.053 191.305 139.312 191.455 138.411 191.455H135.229V190.182H138.365C138.986 190.182 139.486 190.091 139.865 189.909C140.248 189.727 140.524 189.47 140.695 189.136C140.869 188.799 140.956 188.398 140.956 187.932C140.956 187.466 140.869 187.059 140.695 186.71C140.52 186.362 140.242 186.093 139.859 185.903C139.477 185.71 138.971 185.614 138.342 185.614H135.865V196H134.456ZM139.933 190.773L142.797 196H141.161L138.342 190.773H139.933ZM144.69 196V184.364H148.622C149.531 184.364 150.277 184.519 150.861 184.83C151.444 185.136 151.876 185.559 152.156 186.097C152.437 186.634 152.577 187.246 152.577 187.932C152.577 188.617 152.437 189.225 152.156 189.756C151.876 190.286 151.446 190.703 150.866 191.006C150.287 191.305 149.546 191.455 148.645 191.455H145.463V190.182H148.599C149.221 190.182 149.721 190.091 150.099 189.909C150.482 189.727 150.759 189.47 150.929 189.136C151.103 188.799 151.19 188.398 151.19 187.932C151.19 187.466 151.103 187.059 150.929 186.71C150.755 186.362 150.476 186.093 150.094 185.903C149.711 185.71 149.205 185.614 148.577 185.614H146.099V196H144.69ZM150.168 190.773L153.031 196H151.395L148.577 190.773H150.168ZM156.334 184.364V196H154.925V184.364H156.334ZM159.636 196H158.159L162.432 184.364H163.886L168.159 196H166.682L163.205 186.205H163.114L159.636 196ZM160.182 191.455H166.136V192.705H160.182V191.455ZM177.379 188C177.254 187.617 177.089 187.275 176.885 186.972C176.684 186.665 176.444 186.403 176.163 186.188C175.887 185.972 175.572 185.807 175.22 185.693C174.868 185.58 174.482 185.523 174.061 185.523C173.372 185.523 172.745 185.701 172.18 186.057C171.616 186.413 171.167 186.938 170.834 187.631C170.5 188.324 170.334 189.174 170.334 190.182C170.334 191.189 170.502 192.04 170.839 192.733C171.177 193.426 171.633 193.951 172.209 194.307C172.785 194.663 173.432 194.841 174.152 194.841C174.819 194.841 175.406 194.699 175.913 194.415C176.425 194.127 176.822 193.722 177.107 193.199C177.394 192.672 177.538 192.053 177.538 191.341L177.97 191.432H174.47V190.182H178.902V191.432C178.902 192.39 178.697 193.223 178.288 193.932C177.883 194.64 177.322 195.189 176.607 195.58C175.894 195.966 175.076 196.159 174.152 196.159C173.122 196.159 172.216 195.917 171.436 195.432C170.66 194.947 170.054 194.258 169.618 193.364C169.186 192.47 168.97 191.409 168.97 190.182C168.97 189.261 169.093 188.434 169.339 187.699C169.589 186.96 169.942 186.331 170.396 185.812C170.851 185.294 171.389 184.896 172.01 184.619C172.631 184.343 173.315 184.205 174.061 184.205C174.675 184.205 175.247 184.297 175.777 184.483C176.311 184.665 176.786 184.924 177.203 185.261C177.624 185.595 177.974 185.994 178.254 186.46C178.535 186.922 178.728 187.436 178.834 188H177.379ZM181.315 196V184.364H188.338V185.614H182.724V189.545H187.974V190.795H182.724V194.75H188.429V196H181.315ZM199.832 184.364H201.241V192.682C201.241 193.424 201.105 194.055 200.832 194.574C200.56 195.093 200.175 195.487 199.679 195.756C199.183 196.025 198.598 196.159 197.923 196.159C197.287 196.159 196.721 196.044 196.224 195.812C195.728 195.578 195.338 195.244 195.054 194.812C194.77 194.381 194.628 193.867 194.628 193.273H196.014C196.014 193.602 196.096 193.89 196.259 194.136C196.425 194.379 196.652 194.568 196.94 194.705C197.228 194.841 197.556 194.909 197.923 194.909C198.329 194.909 198.673 194.824 198.957 194.653C199.241 194.483 199.457 194.233 199.605 193.903C199.757 193.57 199.832 193.163 199.832 192.682V184.364ZM213.884 190.182C213.884 191.409 213.662 192.47 213.219 193.364C212.776 194.258 212.168 194.947 211.395 195.432C210.622 195.917 209.74 196.159 208.747 196.159C207.755 196.159 206.872 195.917 206.099 195.432C205.327 194.947 204.719 194.258 204.276 193.364C203.832 192.47 203.611 191.409 203.611 190.182C203.611 188.955 203.832 187.894 204.276 187C204.719 186.106 205.327 185.417 206.099 184.932C206.872 184.447 207.755 184.205 208.747 184.205C209.74 184.205 210.622 184.447 211.395 184.932C212.168 185.417 212.776 186.106 213.219 187C213.662 187.894 213.884 188.955 213.884 190.182ZM212.52 190.182C212.52 189.174 212.351 188.324 212.014 187.631C211.681 186.938 211.228 186.413 210.656 186.057C210.088 185.701 209.452 185.523 208.747 185.523C208.043 185.523 207.404 185.701 206.832 186.057C206.264 186.413 205.812 186.938 205.474 187.631C205.141 188.324 204.974 189.174 204.974 190.182C204.974 191.189 205.141 192.04 205.474 192.733C205.812 193.426 206.264 193.951 206.832 194.307C207.404 194.663 208.043 194.841 208.747 194.841C209.452 194.841 210.088 194.663 210.656 194.307C211.228 193.951 211.681 193.426 212.014 192.733C212.351 192.04 212.52 191.189 212.52 190.182ZM223.889 184.364H225.298V192.068C225.298 192.864 225.111 193.574 224.736 194.199C224.365 194.82 223.84 195.311 223.162 195.67C222.484 196.027 221.688 196.205 220.776 196.205C219.863 196.205 219.067 196.027 218.389 195.67C217.711 195.311 217.185 194.82 216.81 194.199C216.438 193.574 216.253 192.864 216.253 192.068V184.364H217.662V191.955C217.662 192.523 217.787 193.028 218.037 193.472C218.287 193.911 218.643 194.258 219.105 194.511C219.571 194.761 220.128 194.886 220.776 194.886C221.423 194.886 221.98 194.761 222.446 194.511C222.912 194.258 223.268 193.911 223.514 193.472C223.764 193.028 223.889 192.523 223.889 191.955V184.364ZM228.112 196V184.364H232.044C232.953 184.364 233.699 184.519 234.283 184.83C234.866 185.136 235.298 185.559 235.578 186.097C235.858 186.634 235.999 187.246 235.999 187.932C235.999 188.617 235.858 189.225 235.578 189.756C235.298 190.286 234.868 190.703 234.288 191.006C233.709 191.305 232.968 191.455 232.067 191.455H228.885V190.182H232.021C232.643 190.182 233.143 190.091 233.521 189.909C233.904 189.727 234.18 189.47 234.351 189.136C234.525 188.799 234.612 188.398 234.612 187.932C234.612 187.466 234.525 187.059 234.351 186.71C234.177 186.362 233.898 186.093 233.516 185.903C233.133 185.71 232.627 185.614 231.999 185.614H229.521V196H228.112ZM233.589 190.773L236.453 196H234.817L231.999 190.773H233.589ZM247.574 184.364V196H246.21L239.869 186.864H239.756V196H238.347V184.364H239.71L246.074 193.523H246.188V184.364H247.574ZM250.871 196H249.393L253.666 184.364H255.121L259.393 196H257.916L254.439 186.205H254.348L250.871 196ZM251.416 191.455H257.371V192.705H251.416V191.455ZM261.206 196V184.364H262.615V194.75H268.024V196H261.206ZM271.615 184.364V196H270.206V184.364H271.615ZM280.804 187.273C280.736 186.697 280.459 186.25 279.974 185.932C279.49 185.614 278.895 185.455 278.19 185.455C277.675 185.455 277.224 185.538 276.838 185.705C276.455 185.871 276.156 186.1 275.94 186.392C275.728 186.684 275.622 187.015 275.622 187.386C275.622 187.697 275.696 187.964 275.844 188.188C275.995 188.407 276.188 188.591 276.423 188.739C276.658 188.883 276.904 189.002 277.162 189.097C277.42 189.187 277.656 189.261 277.872 189.318L279.054 189.636C279.357 189.716 279.694 189.826 280.065 189.966C280.44 190.106 280.798 190.297 281.139 190.54C281.484 190.778 281.768 191.085 281.991 191.46C282.215 191.835 282.327 192.295 282.327 192.841C282.327 193.47 282.162 194.038 281.832 194.545C281.507 195.053 281.029 195.456 280.401 195.756C279.776 196.055 279.016 196.205 278.122 196.205C277.289 196.205 276.567 196.07 275.957 195.801C275.351 195.532 274.874 195.157 274.526 194.676C274.181 194.195 273.986 193.636 273.94 193H275.395C275.433 193.439 275.58 193.803 275.838 194.091C276.099 194.375 276.429 194.587 276.827 194.727C277.228 194.864 277.66 194.932 278.122 194.932C278.66 194.932 279.143 194.845 279.571 194.67C279.999 194.492 280.338 194.246 280.588 193.932C280.838 193.614 280.963 193.242 280.963 192.818C280.963 192.432 280.855 192.117 280.639 191.875C280.423 191.633 280.139 191.436 279.787 191.284C279.435 191.133 279.054 191 278.645 190.886L277.213 190.477C276.304 190.216 275.584 189.843 275.054 189.358C274.524 188.873 274.259 188.239 274.259 187.455C274.259 186.803 274.435 186.235 274.787 185.75C275.143 185.261 275.62 184.883 276.219 184.614C276.821 184.341 277.493 184.205 278.236 184.205C278.986 184.205 279.652 184.339 280.236 184.608C280.819 184.873 281.281 185.237 281.622 185.699C281.967 186.161 282.149 186.686 282.168 187.273H280.804ZM284.643 184.364H286.325L290.28 194.023H290.416L294.371 184.364H296.053V196H294.734V187.159H294.621L290.984 196H289.712L286.075 187.159H285.962V196H284.643V184.364ZM307.832 184.364H309.241V192.682C309.241 193.424 309.105 194.055 308.832 194.574C308.56 195.093 308.175 195.487 307.679 195.756C307.183 196.025 306.598 196.159 305.923 196.159C305.287 196.159 304.721 196.044 304.224 195.812C303.728 195.578 303.338 195.244 303.054 194.812C302.77 194.381 302.628 193.867 302.628 193.273H304.014C304.014 193.602 304.096 193.89 304.259 194.136C304.425 194.379 304.652 194.568 304.94 194.705C305.228 194.841 305.556 194.909 305.923 194.909C306.329 194.909 306.673 194.824 306.957 194.653C307.241 194.483 307.457 194.233 307.605 193.903C307.757 193.57 307.832 193.163 307.832 192.682V184.364ZM321.884 190.182C321.884 191.409 321.662 192.47 321.219 193.364C320.776 194.258 320.168 194.947 319.395 195.432C318.622 195.917 317.74 196.159 316.747 196.159C315.755 196.159 314.872 195.917 314.099 195.432C313.327 194.947 312.719 194.258 312.276 193.364C311.832 192.47 311.611 191.409 311.611 190.182C311.611 188.955 311.832 187.894 312.276 187C312.719 186.106 313.327 185.417 314.099 184.932C314.872 184.447 315.755 184.205 316.747 184.205C317.74 184.205 318.622 184.447 319.395 184.932C320.168 185.417 320.776 186.106 321.219 187C321.662 187.894 321.884 188.955 321.884 190.182ZM320.52 190.182C320.52 189.174 320.351 188.324 320.014 187.631C319.681 186.938 319.228 186.413 318.656 186.057C318.088 185.701 317.452 185.523 316.747 185.523C316.043 185.523 315.404 185.701 314.832 186.057C314.264 186.413 313.812 186.938 313.474 187.631C313.141 188.324 312.974 189.174 312.974 190.182C312.974 191.189 313.141 192.04 313.474 192.733C313.812 193.426 314.264 193.951 314.832 194.307C315.404 194.663 316.043 194.841 316.747 194.841C317.452 194.841 318.088 194.663 318.656 194.307C319.228 193.951 319.681 193.426 320.014 192.733C320.351 192.04 320.52 191.189 320.52 190.182ZM331.889 184.364H333.298V192.068C333.298 192.864 333.111 193.574 332.736 194.199C332.365 194.82 331.84 195.311 331.162 195.67C330.484 196.027 329.688 196.205 328.776 196.205C327.863 196.205 327.067 196.027 326.389 195.67C325.711 195.311 325.185 194.82 324.81 194.199C324.438 193.574 324.253 192.864 324.253 192.068V184.364H325.662V191.955C325.662 192.523 325.787 193.028 326.037 193.472C326.287 193.911 326.643 194.258 327.105 194.511C327.571 194.761 328.128 194.886 328.776 194.886C329.423 194.886 329.98 194.761 330.446 194.511C330.912 194.258 331.268 193.911 331.514 193.472C331.764 193.028 331.889 192.523 331.889 191.955V184.364ZM336.112 196V184.364H340.044C340.953 184.364 341.699 184.519 342.283 184.83C342.866 185.136 343.298 185.559 343.578 186.097C343.858 186.634 343.999 187.246 343.999 187.932C343.999 188.617 343.858 189.225 343.578 189.756C343.298 190.286 342.868 190.703 342.288 191.006C341.709 191.305 340.968 191.455 340.067 191.455H336.885V190.182H340.021C340.643 190.182 341.143 190.091 341.521 189.909C341.904 189.727 342.18 189.47 342.351 189.136C342.525 188.799 342.612 188.398 342.612 187.932C342.612 187.466 342.525 187.059 342.351 186.71C342.177 186.362 341.898 186.093 341.516 185.903C341.133 185.71 340.627 185.614 339.999 185.614H337.521V196H336.112ZM341.589 190.773L344.453 196H342.817L339.999 190.773H341.589ZM355.574 184.364V196H354.21L347.869 186.864H347.756V196H346.347V184.364H347.71L354.074 193.523H354.188V184.364H355.574Z" fill="#505050" fill-opacity="0.5"/>
</g>
<defs>
<clipPath id="clip0_81_343">
<rect width="350" height="200" fill="white"/>
</clipPath>
</defs>
</svg>
