<svg width="350" height="200" viewBox="0 0 350 200" fill="none" xmlns="http://www.w3.org/2000/svg">
<g clip-path="url(#clip0_81_354)">
<path d="M16.9176 11.6562H13.1847C13.1165 11.1733 12.9773 10.7443 12.767 10.3693C12.5568 9.98864 12.2869 9.66477 11.9574 9.39773C11.6278 9.13068 11.2472 8.92614 10.8153 8.78409C10.3892 8.64205 9.92614 8.57102 9.42614 8.57102C8.52273 8.57102 7.7358 8.79545 7.06534 9.24432C6.39489 9.6875 5.875 10.3352 5.50568 11.1875C5.13636 12.0341 4.9517 13.0625 4.9517 14.2727C4.9517 15.517 5.13636 16.5625 5.50568 17.4091C5.88068 18.2557 6.40341 18.8949 7.07386 19.3267C7.74432 19.7585 8.51989 19.9744 9.40057 19.9744C9.89489 19.9744 10.3523 19.9091 10.7727 19.7784C11.1989 19.6477 11.5767 19.4574 11.9062 19.2074C12.2358 18.9517 12.5085 18.642 12.7244 18.2784C12.946 17.9148 13.0994 17.5 13.1847 17.0341L16.9176 17.0511C16.821 17.8523 16.5795 18.625 16.1932 19.3693C15.8125 20.108 15.2983 20.7699 14.6506 21.3551C14.0085 21.9347 13.2415 22.3949 12.3494 22.7358C11.4631 23.071 10.4602 23.2386 9.34091 23.2386C7.78409 23.2386 6.39205 22.8864 5.16477 22.1818C3.94318 21.4773 2.97727 20.4574 2.26705 19.1222C1.5625 17.7869 1.21023 16.1705 1.21023 14.2727C1.21023 12.3693 1.56818 10.75 2.28409 9.41477C3 8.07955 3.97159 7.0625 5.19886 6.36364C6.42614 5.65909 7.80682 5.30682 9.34091 5.30682C10.3523 5.30682 11.2898 5.44886 12.1534 5.73295C13.0227 6.01705 13.7926 6.43182 14.4631 6.97727C15.1335 7.51704 15.679 8.17898 16.0994 8.96307C16.5256 9.74716 16.7983 10.6449 16.9176 11.6562ZM35.6037 14.2727C35.6037 16.1761 35.2429 17.7955 34.5213 19.1307C33.8054 20.4659 32.8281 21.4858 31.5895 22.1903C30.3565 22.8892 28.9702 23.2386 27.4304 23.2386C25.8793 23.2386 24.4872 22.8864 23.2543 22.1818C22.0213 21.4773 21.0469 20.4574 20.331 19.1222C19.6151 17.7869 19.2571 16.1705 19.2571 14.2727C19.2571 12.3693 19.6151 10.75 20.331 9.41477C21.0469 8.07955 22.0213 7.0625 23.2543 6.36364C24.4872 5.65909 25.8793 5.30682 27.4304 5.30682C28.9702 5.30682 30.3565 5.65909 31.5895 6.36364C32.8281 7.0625 33.8054 8.07955 34.5213 9.41477C35.2429 10.75 35.6037 12.3693 35.6037 14.2727ZM31.8622 14.2727C31.8622 13.0398 31.6776 12 31.3082 11.1534C30.9446 10.3068 30.4304 9.66477 29.7656 9.22727C29.1009 8.78977 28.3224 8.57102 27.4304 8.57102C26.5384 8.57102 25.7599 8.78977 25.0952 9.22727C24.4304 9.66477 23.9134 10.3068 23.544 11.1534C23.1804 12 22.9986 13.0398 22.9986 14.2727C22.9986 15.5057 23.1804 16.5455 23.544 17.392C23.9134 18.2386 24.4304 18.8807 25.0952 19.3182C25.7599 19.7557 26.5384 19.9744 27.4304 19.9744C28.3224 19.9744 29.1009 19.7557 29.7656 19.3182C30.4304 18.8807 30.9446 18.2386 31.3082 17.392C31.6776 16.5455 31.8622 15.5057 31.8622 14.2727ZM38.3374 23V5.54545H42.0277V19.9574H49.5107V23H38.3374ZM58.142 23H51.9545V5.54545H58.1932C59.9489 5.54545 61.4602 5.89489 62.7273 6.59375C63.9943 7.28693 64.9688 8.28409 65.6506 9.58523C66.3381 10.8864 66.6818 12.4432 66.6818 14.2557C66.6818 16.0739 66.3381 17.6364 65.6506 18.9432C64.9688 20.25 63.9886 21.2528 62.7102 21.9517C61.4375 22.6506 59.9148 23 58.142 23ZM55.6449 19.8381H57.9886C59.0795 19.8381 59.9972 19.6449 60.7415 19.2585C61.4915 18.8665 62.054 18.2614 62.429 17.4432C62.8097 16.6193 63 15.5568 63 14.2557C63 12.9659 62.8097 11.9119 62.429 11.0938C62.054 10.2756 61.4943 9.6733 60.75 9.28693C60.0057 8.90057 59.0881 8.70739 57.9972 8.70739H55.6449V19.8381ZM76.1655 5.54545H80.7166L85.5234 17.2727H85.728L90.5348 5.54545H95.0859V23H91.5064V11.6392H91.3615L86.8445 22.9148H84.407L79.8899 11.5966H79.745V23H76.1655V5.54545ZM108.908 5.54545H112.598V16.8807C112.598 18.1534 112.294 19.267 111.686 20.2216C111.084 21.1761 110.24 21.9205 109.155 22.4545C108.07 22.983 106.805 23.2472 105.362 23.2472C103.913 23.2472 102.646 22.983 101.561 22.4545C100.476 21.9205 99.6321 21.1761 99.0298 20.2216C98.4276 19.267 98.1264 18.1534 98.1264 16.8807V5.54545H101.817V16.5653C101.817 17.2301 101.962 17.821 102.251 18.3381C102.547 18.8551 102.962 19.2614 103.496 19.5568C104.03 19.8523 104.652 20 105.362 20C106.078 20 106.7 19.8523 107.229 19.5568C107.763 19.2614 108.175 18.8551 108.464 18.3381C108.76 17.821 108.908 17.2301 108.908 16.5653V5.54545ZM125.776 9.90909C125.674 9.04545 125.259 8.375 124.532 7.89773C123.805 7.42045 122.913 7.18182 121.856 7.18182C121.083 7.18182 120.407 7.30682 119.827 7.55682C119.254 7.80682 118.805 8.15057 118.481 8.58807C118.163 9.02557 118.004 9.52273 118.004 10.0795C118.004 10.5455 118.114 10.946 118.336 11.2812C118.563 11.6108 118.853 11.8864 119.205 12.108C119.558 12.3239 119.927 12.5028 120.313 12.6449C120.7 12.7812 121.055 12.892 121.379 12.9773L123.151 13.4545C123.606 13.5739 124.112 13.7386 124.668 13.9489C125.231 14.1591 125.768 14.446 126.279 14.8097C126.796 15.1676 127.222 15.6278 127.558 16.1903C127.893 16.7528 128.06 17.4432 128.06 18.2614C128.06 19.2045 127.813 20.0568 127.319 20.8182C126.83 21.5795 126.114 22.1847 125.171 22.6335C124.234 23.0824 123.094 23.3068 121.754 23.3068C120.504 23.3068 119.421 23.1051 118.506 22.7017C117.597 22.2983 116.881 21.7358 116.359 21.0142C115.842 20.2926 115.549 19.4545 115.481 18.5H117.663C117.719 19.1591 117.941 19.7045 118.327 20.1364C118.719 20.5625 119.214 20.8807 119.81 21.0909C120.413 21.2955 121.06 21.3977 121.754 21.3977C122.56 21.3977 123.285 21.267 123.927 21.0057C124.569 20.7386 125.077 20.3693 125.452 19.8977C125.827 19.4205 126.015 18.8636 126.015 18.2273C126.015 17.6477 125.853 17.1761 125.529 16.8125C125.205 16.4489 124.779 16.1534 124.251 15.9261C123.722 15.6989 123.151 15.5 122.538 15.3295L120.39 14.7159C119.026 14.3239 117.947 13.7642 117.151 13.0369C116.356 12.3097 115.958 11.358 115.958 10.1818C115.958 9.20454 116.222 8.35227 116.751 7.625C117.285 6.89205 118.001 6.32386 118.898 5.92045C119.802 5.51136 120.81 5.30682 121.924 5.30682C123.049 5.30682 124.049 5.50852 124.924 5.91193C125.799 6.30966 126.492 6.85511 127.004 7.54829C127.521 8.24148 127.793 9.02841 127.822 9.90909H125.776ZM133.649 5.54545V23H131.536V5.54545H133.649ZM151.933 11H149.819C149.694 10.392 149.475 9.85795 149.163 9.39773C148.856 8.9375 148.481 8.55114 148.038 8.23864C147.6 7.92045 147.114 7.68182 146.58 7.52273C146.046 7.36364 145.489 7.28409 144.91 7.28409C143.853 7.28409 142.896 7.55114 142.038 8.08523C141.185 8.61932 140.506 9.40625 140.001 10.446C139.501 11.4858 139.251 12.7614 139.251 14.2727C139.251 15.7841 139.501 17.0597 140.001 18.0994C140.506 19.1392 141.185 19.9261 142.038 20.4602C142.896 20.9943 143.853 21.2614 144.91 21.2614C145.489 21.2614 146.046 21.1818 146.58 21.0227C147.114 20.8636 147.6 20.6278 148.038 20.3153C148.481 19.9972 148.856 19.608 149.163 19.1477C149.475 18.6818 149.694 18.1477 149.819 17.5455H151.933C151.773 18.4375 151.484 19.2358 151.063 19.9403C150.643 20.6449 150.12 21.2443 149.495 21.7386C148.87 22.2273 148.168 22.5994 147.39 22.8551C146.617 23.1108 145.79 23.2386 144.91 23.2386C143.421 23.2386 142.097 22.875 140.938 22.1477C139.779 21.4205 138.867 20.3864 138.202 19.0455C137.538 17.7045 137.205 16.1136 137.205 14.2727C137.205 12.4318 137.538 10.8409 138.202 9.5C138.867 8.15909 139.779 7.125 140.938 6.39773C142.097 5.67045 143.421 5.30682 144.91 5.30682C145.79 5.30682 146.617 5.43466 147.39 5.69034C148.168 5.94602 148.87 6.32102 149.495 6.81534C150.12 7.30398 150.643 7.90057 151.063 8.60511C151.484 9.30398 151.773 10.1023 151.933 11ZM161.501 23V5.54545H168.388C169.706 5.54545 170.831 5.78125 171.763 6.25284C172.7 6.71875 173.413 7.38068 173.902 8.23864C174.396 9.09091 174.643 10.0937 174.643 11.2472C174.643 12.4062 174.393 13.4034 173.893 14.2386C173.393 15.0682 172.669 15.7045 171.72 16.1477C170.777 16.5909 169.635 16.8125 168.294 16.8125H163.683V13.8466H167.697C168.402 13.8466 168.987 13.75 169.453 13.5568C169.919 13.3636 170.266 13.0739 170.493 12.6875C170.726 12.3011 170.842 11.821 170.842 11.2472C170.842 10.6676 170.726 10.179 170.493 9.78125C170.266 9.38352 169.916 9.08239 169.445 8.87784C168.979 8.66761 168.391 8.5625 167.68 8.5625H165.192V23H161.501ZM170.928 15.0568L175.266 23H171.192L166.947 15.0568H170.928ZM177.251 23V5.54545H180.942V12.7472H188.433V5.54545H192.115V23H188.433V15.7898H180.942V23H177.251ZM194.135 5.54545H198.268L202.249 13.0625H202.419L206.399 5.54545H210.533L204.166 16.8295V23H200.501V16.8295L194.135 5.54545ZM212.19 7.42045V5.54545H225.281V7.42045H219.793V23H217.679V7.42045H212.19ZM228.543 23V5.54545H230.657V13.3182H239.964V5.54545H242.077V23H239.964V15.1932H230.657V23H228.543ZM246.309 5.54545H248.832L254.763 20.0341H254.968L260.9 5.54545H263.423V23H261.445V9.73864H261.275L255.82 23H253.911L248.457 9.73864H248.286V23H246.309V5.54545ZM276.822 23H272.868L278.893 5.54545H283.649L289.666 23H285.712L281.339 9.53409H281.203L276.822 23ZM276.575 16.1392H285.916V19.0199H276.575V16.1392ZM306.366 5.54545V23H303.179L295.585 12.0142H295.457V23H291.767V5.54545H295.006L302.54 16.5227H302.693V5.54545H306.366ZM310.728 23H308.512L314.921 5.54545H317.103L323.512 23H321.296L316.08 8.30682H315.944L310.728 23ZM311.546 16.1818H320.478V18.0568H311.546V16.1818ZM326.231 23V5.54545H332.129C333.492 5.54545 334.612 5.77841 335.487 6.24432C336.362 6.70454 337.009 7.33807 337.43 8.14489C337.85 8.9517 338.06 9.86932 338.06 10.8977C338.06 11.9261 337.85 12.8381 337.43 13.6335C337.009 14.429 336.364 15.054 335.495 15.5085C334.626 15.9574 333.515 16.1818 332.163 16.1818H327.39V14.2727H332.094C333.026 14.2727 333.776 14.1364 334.344 13.8636C334.918 13.5909 335.333 13.2045 335.589 12.7045C335.85 12.1989 335.981 11.5966 335.981 10.8977C335.981 10.1989 335.85 9.58807 335.589 9.06534C335.327 8.54261 334.91 8.1392 334.336 7.85511C333.762 7.56534 333.004 7.42045 332.06 7.42045H328.344V23H326.231ZM334.447 15.1591L338.742 23H336.288L332.06 15.1591H334.447ZM355.628 11H353.514C353.389 10.392 353.17 9.85795 352.858 9.39773C352.551 8.9375 352.176 8.55114 351.733 8.23864C351.295 7.92045 350.81 7.68182 350.276 7.52273C349.741 7.36364 349.185 7.28409 348.605 7.28409C347.548 7.28409 346.591 7.55114 345.733 8.08523C344.881 8.61932 344.202 9.40625 343.696 10.446C343.196 11.4858 342.946 12.7614 342.946 14.2727C342.946 15.7841 343.196 17.0597 343.696 18.0994C344.202 19.1392 344.881 19.9261 345.733 20.4602C346.591 20.9943 347.548 21.2614 348.605 21.2614C349.185 21.2614 349.741 21.1818 350.276 21.0227C350.81 20.8636 351.295 20.6278 351.733 20.3153C352.176 19.9972 352.551 19.608 352.858 19.1477C353.17 18.6818 353.389 18.1477 353.514 17.5455H355.628C355.469 18.4375 355.179 19.2358 354.759 19.9403C354.338 20.6449 353.815 21.2443 353.19 21.7386C352.565 22.2273 351.864 22.5994 351.085 22.8551C350.313 23.1108 349.486 23.2386 348.605 23.2386C347.116 23.2386 345.793 22.875 344.634 22.1477C343.474 21.4205 342.563 20.3864 341.898 19.0455C341.233 17.7045 340.901 16.1136 340.901 14.2727C340.901 12.4318 341.233 10.8409 341.898 9.5C342.563 8.15909 343.474 7.125 344.634 6.39773C345.793 5.67045 347.116 5.30682 348.605 5.30682C349.486 5.30682 350.313 5.43466 351.085 5.69034C351.864 5.94602 352.565 6.32102 353.19 6.81534C353.815 7.30398 354.338 7.90057 354.759 8.60511C355.179 9.30398 355.469 10.1023 355.628 11Z" fill="#505050" fill-opacity="0.5"/>
<path d="M1.51705 52V34.5455H8.50568C9.78977 34.5455 10.8608 34.7358 11.7188 35.1165C12.5767 35.4972 13.2216 36.0256 13.6534 36.7017C14.0852 37.3722 14.3011 38.1449 14.3011 39.0199C14.3011 39.7017 14.1648 40.3011 13.892 40.8182C13.6193 41.3295 13.2443 41.75 12.767 42.0795C12.2955 42.4034 11.7557 42.6335 11.1477 42.7699V42.9403C11.8125 42.9687 12.4347 43.1562 13.0142 43.5028C13.5994 43.8494 14.0739 44.3352 14.4375 44.9602C14.8011 45.5795 14.983 46.3182 14.983 47.1761C14.983 48.1023 14.7528 48.929 14.2926 49.6562C13.8381 50.3778 13.1648 50.9489 12.2727 51.3693C11.3807 51.7898 10.2813 52 8.97443 52H1.51705ZM5.20739 48.983H8.21591C9.24432 48.983 9.99432 48.7869 10.4659 48.3949C10.9375 47.9972 11.1733 47.4687 11.1733 46.8097C11.1733 46.3267 11.0568 45.9006 10.8239 45.5312C10.5909 45.1619 10.2585 44.8722 9.8267 44.6619C9.40057 44.4517 8.89205 44.3466 8.30114 44.3466H5.20739V48.983ZM5.20739 41.8494H7.94318C8.44886 41.8494 8.89773 41.7614 9.28977 41.5852C9.6875 41.4034 10 41.1477 10.2273 40.8182C10.4602 40.4886 10.5767 40.0938 10.5767 39.6335C10.5767 39.0028 10.3523 38.4943 9.90341 38.108C9.46023 37.7216 8.82955 37.5284 8.01136 37.5284H5.20739V41.8494ZM28.1655 34.5455H31.8558V45.8807C31.8558 47.1534 31.5518 48.267 30.9439 49.2216C30.3416 50.1761 29.4979 50.9205 28.4126 51.4545C27.3274 51.983 26.0632 52.2472 24.62 52.2472C23.1712 52.2472 21.9041 51.983 20.8189 51.4545C19.7337 50.9205 18.8899 50.1761 18.2876 49.2216C17.6854 48.267 17.3842 47.1534 17.3842 45.8807V34.5455H21.0746V45.5653C21.0746 46.2301 21.2195 46.821 21.5092 47.3381C21.8047 47.8551 22.2195 48.2614 22.7536 48.5568C23.2876 48.8523 23.9098 49 24.62 49C25.3359 49 25.9581 48.8523 26.4865 48.5568C27.0206 48.2614 27.4325 47.8551 27.7223 47.3381C28.0178 46.821 28.1655 46.2301 28.1655 45.5653V34.5455ZM34.2273 37.5881V34.5455H48.5625V37.5881H43.2188V52H39.571V37.5881H34.2273ZM50.2585 37.5881V34.5455H64.5938V37.5881H59.25V52H55.6023V37.5881H50.2585ZM67.5511 52V34.5455H78.0852V36.4205H69.6648V42.3182H77.5398V44.1932H69.6648V50.125H78.2216V52H67.5511ZM81.8949 52V34.5455H87.7926C89.1563 34.5455 90.2756 34.7784 91.1506 35.2443C92.0256 35.7045 92.6733 36.3381 93.0938 37.1449C93.5142 37.9517 93.7244 38.8693 93.7244 39.8977C93.7244 40.9261 93.5142 41.8381 93.0938 42.6335C92.6733 43.429 92.0284 44.054 91.1591 44.5085C90.2898 44.9574 89.179 45.1818 87.8267 45.1818H83.054V43.2727H87.7585C88.6903 43.2727 89.4403 43.1364 90.0085 42.8636C90.5824 42.5909 90.9972 42.2045 91.2528 41.7045C91.5142 41.1989 91.6449 40.5966 91.6449 39.8977C91.6449 39.1989 91.5142 38.5881 91.2528 38.0653C90.9915 37.5426 90.5739 37.1392 90 36.8551C89.4261 36.5653 88.6676 36.4205 87.7244 36.4205H84.0085V52H81.8949ZM90.1108 44.1591L94.4062 52H91.9517L87.7244 44.1591H90.1108ZM97.2464 52V34.5455H107.712V36.4205H99.3601V42.3182H106.928V44.1932H99.3601V52H97.2464ZM111.332 52V34.5455H113.446V50.125H121.56V52H111.332ZM122.512 34.5455H124.933L129.773 42.6932H129.978L134.819 34.5455H137.239L130.933 44.8068V52H128.819V44.8068L122.512 34.5455ZM161.527 40.6562H157.794C157.726 40.1733 157.587 39.7443 157.376 39.3693C157.166 38.9886 156.896 38.6648 156.567 38.3977C156.237 38.1307 155.857 37.9261 155.425 37.7841C154.999 37.642 154.536 37.571 154.036 37.571C153.132 37.571 152.345 37.7955 151.675 38.2443C151.004 38.6875 150.484 39.3352 150.115 40.1875C149.746 41.0341 149.561 42.0625 149.561 43.2727C149.561 44.517 149.746 45.5625 150.115 46.4091C150.49 47.2557 151.013 47.8949 151.683 48.3267C152.354 48.7585 153.129 48.9744 154.01 48.9744C154.504 48.9744 154.962 48.9091 155.382 48.7784C155.808 48.6477 156.186 48.4574 156.516 48.2074C156.845 47.9517 157.118 47.642 157.334 47.2784C157.555 46.9148 157.709 46.5 157.794 46.0341L161.527 46.0511C161.43 46.8523 161.189 47.625 160.803 48.3693C160.422 49.108 159.908 49.7699 159.26 50.3551C158.618 50.9347 157.851 51.3949 156.959 51.7358C156.072 52.071 155.07 52.2386 153.95 52.2386C152.393 52.2386 151.001 51.8864 149.774 51.1818C148.553 50.4773 147.587 49.4574 146.876 48.1222C146.172 46.7869 145.82 45.1705 145.82 43.2727C145.82 41.3693 146.178 39.75 146.893 38.4148C147.609 37.0795 148.581 36.0625 149.808 35.3636C151.036 34.6591 152.416 34.3068 153.95 34.3068C154.962 34.3068 155.899 34.4489 156.763 34.733C157.632 35.017 158.402 35.4318 159.072 35.9773C159.743 36.517 160.288 37.179 160.709 37.9631C161.135 38.7472 161.408 39.6449 161.527 40.6562ZM167.864 34.5455V52H164.173V34.5455H167.864ZM170.9 52V34.5455H177.786C179.104 34.5455 180.229 34.7812 181.161 35.2528C182.099 35.7187 182.812 36.3807 183.3 37.2386C183.795 38.0909 184.042 39.0937 184.042 40.2472C184.042 41.4062 183.792 42.4034 183.292 43.2386C182.792 44.0682 182.067 44.7045 181.119 45.1477C180.175 45.5909 179.033 45.8125 177.692 45.8125H173.082V42.8466H177.096C177.8 42.8466 178.386 42.75 178.852 42.5568C179.317 42.3636 179.664 42.0739 179.891 41.6875C180.124 41.3011 180.241 40.821 180.241 40.2472C180.241 39.6676 180.124 39.179 179.891 38.7812C179.664 38.3835 179.315 38.0824 178.843 37.8778C178.377 37.6676 177.789 37.5625 177.079 37.5625H174.59V52H170.9ZM180.326 44.0568L184.664 52H180.59L176.346 44.0568H180.326ZM201.292 40H199.178C199.053 39.392 198.835 38.858 198.522 38.3977C198.215 37.9375 197.84 37.5511 197.397 37.2386C196.96 36.9205 196.474 36.6818 195.94 36.5227C195.406 36.3636 194.849 36.2841 194.269 36.2841C193.212 36.2841 192.255 36.5511 191.397 37.0852C190.545 37.6193 189.866 38.4062 189.36 39.446C188.86 40.4858 188.61 41.7614 188.61 43.2727C188.61 44.7841 188.86 46.0597 189.36 47.0994C189.866 48.1392 190.545 48.9261 191.397 49.4602C192.255 49.9943 193.212 50.2614 194.269 50.2614C194.849 50.2614 195.406 50.1818 195.94 50.0227C196.474 49.8636 196.96 49.6278 197.397 49.3153C197.84 48.9972 198.215 48.608 198.522 48.1477C198.835 47.6818 199.053 47.1477 199.178 46.5455H201.292C201.133 47.4375 200.843 48.2358 200.423 48.9403C200.002 49.6449 199.479 50.2443 198.854 50.7386C198.229 51.2273 197.528 51.5994 196.749 51.8551C195.977 52.1108 195.15 52.2386 194.269 52.2386C192.781 52.2386 191.457 51.875 190.298 51.1477C189.138 50.4205 188.227 49.3864 187.562 48.0455C186.897 46.7045 186.565 45.1136 186.565 43.2727C186.565 41.4318 186.897 39.8409 187.562 38.5C188.227 37.1591 189.138 36.125 190.298 35.3977C191.457 34.6705 192.781 34.3068 194.269 34.3068C195.15 34.3068 195.977 34.4347 196.749 34.6903C197.528 34.946 198.229 35.321 198.854 35.8153C199.479 36.304 200.002 36.9006 200.423 37.6051C200.843 38.304 201.133 39.1023 201.292 40ZM204.707 52V34.5455H206.821V50.125H214.935V52H204.707ZM218.207 52V34.5455H228.741V36.4205H220.321V42.3182H228.196V44.1932H220.321V50.125H228.878V52H218.207ZM242.634 52L237.639 34.5455H241.67L244.56 46.6733H244.705L247.892 34.5455H251.344L254.523 46.6989H254.676L257.565 34.5455H261.597L256.602 52H253.006L249.682 40.5881H249.545L246.23 52H242.634ZM263.572 52V34.5455H275.333V37.5881H267.262V41.7472H274.728V44.7898H267.262V48.9574H275.367V52H263.572ZM278.267 52V34.5455H290.028V37.5881H281.957V41.7472H289.423V44.7898H281.957V48.9574H290.062V52H278.267ZM292.962 52V34.5455H296.653V42.2415H296.883L303.164 34.5455H307.587L301.11 42.3608L307.664 52H303.249L298.468 44.8239L296.653 47.0398V52H292.962ZM310.106 52V34.5455H320.64V36.4205H312.219V42.3182H320.094V44.1932H312.219V50.125H320.776V52H310.106ZM338.29 34.5455V52H336.245L326.734 38.2955H326.563V52H324.45V34.5455H326.495L336.04 48.2841H336.211V34.5455H338.29ZM347.906 52H342.52V34.5455H348.145C349.838 34.5455 351.287 34.8949 352.491 35.5938C353.696 36.2869 354.619 37.2841 355.261 38.5852C355.903 39.8807 356.224 41.4318 356.224 43.2386C356.224 45.0568 355.901 46.6222 355.253 47.9347C354.605 49.2415 353.662 50.2472 352.423 50.9517C351.185 51.6506 349.679 52 347.906 52ZM344.634 50.125H347.77C349.213 50.125 350.409 49.8466 351.358 49.2898C352.307 48.733 353.014 47.9403 353.48 46.9119C353.946 45.8835 354.179 44.6591 354.179 43.2386C354.179 41.8295 353.949 40.6165 353.489 39.5994C353.028 38.5767 352.341 37.7926 351.426 37.2472C350.511 36.696 349.372 36.4205 348.009 36.4205H344.634V50.125Z" fill="#505050" fill-opacity="0.5"/>
<path d="M1.51705 63.5455H6.06818L10.875 75.2727H11.0795L15.8864 63.5455H20.4375V81H16.858V69.6392H16.7131L12.196 80.9148H9.75852L5.24148 69.5966H5.09659V81H1.51705V63.5455ZM26.4865 81H22.532L28.5575 63.5455H33.3132L39.3303 81H35.3757L31.0036 67.5341H30.8672L26.4865 81ZM26.2393 74.1392H35.5803V77.0199H26.2393V74.1392ZM41.2436 81V78.8097L49.9538 66.5881H41.2266V63.5455H54.5902V65.7358L45.8714 77.9574H54.6072V81H41.2436ZM58.0355 81V63.5455H60.1491V71.3182H69.456V63.5455H71.5696V81H69.456V73.1932H60.1491V81H58.0355ZM76.517 81H74.3011L80.7102 63.5455H82.892L89.3011 81H87.0852L81.8693 66.3068H81.733L76.517 81ZM77.3352 74.1818H86.267V76.0568H77.3352V74.1818ZM92.0199 81V63.5455H97.9176C99.2813 63.5455 100.401 63.7784 101.276 64.2443C102.151 64.7045 102.798 65.3381 103.219 66.1449C103.639 66.9517 103.849 67.8693 103.849 68.8977C103.849 69.9261 103.639 70.8381 103.219 71.6335C102.798 72.429 102.153 73.054 101.284 73.5085C100.415 73.9574 99.304 74.1818 97.9517 74.1818H93.179V72.2727H97.8835C98.8153 72.2727 99.5653 72.1364 100.134 71.8636C100.707 71.5909 101.122 71.2045 101.378 70.7045C101.639 70.1989 101.77 69.5966 101.77 68.8977C101.77 68.1989 101.639 67.5881 101.378 67.0653C101.116 66.5426 100.699 66.1392 100.125 65.8551C99.5511 65.5653 98.7926 65.4205 97.8494 65.4205H94.1335V81H92.0199ZM100.236 73.1591L104.531 81H102.077L97.8494 73.1591H100.236ZM112.86 66.5881V63.5455H127.195V66.5881H121.852V81H118.204V66.5881H112.86ZM133.246 63.5455V81H129.556V63.5455H133.246ZM146.425 67.9091C146.322 67.0455 145.908 66.375 145.18 65.8977C144.453 65.4205 143.561 65.1818 142.504 65.1818C141.732 65.1818 141.055 65.3068 140.476 65.5568C139.902 65.8068 139.453 66.1506 139.129 66.5881C138.811 67.0256 138.652 67.5227 138.652 68.0795C138.652 68.5455 138.763 68.946 138.984 69.2812C139.212 69.6108 139.501 69.8864 139.854 70.108C140.206 70.3239 140.575 70.5028 140.962 70.6449C141.348 70.7812 141.703 70.892 142.027 70.9773L143.8 71.4545C144.254 71.5739 144.76 71.7386 145.317 71.9489C145.879 72.1591 146.416 72.446 146.928 72.8097C147.445 73.1676 147.871 73.6278 148.206 74.1903C148.541 74.7528 148.709 75.4432 148.709 76.2614C148.709 77.2045 148.462 78.0568 147.967 78.8182C147.479 79.5795 146.763 80.1847 145.82 80.6335C144.882 81.0824 143.743 81.3068 142.402 81.3068C141.152 81.3068 140.07 81.1051 139.155 80.7017C138.246 80.2983 137.53 79.7358 137.007 79.0142C136.49 78.2926 136.197 77.4545 136.129 76.5H138.311C138.368 77.1591 138.589 77.7045 138.976 78.1364C139.368 78.5625 139.862 78.8807 140.459 79.0909C141.061 79.2955 141.709 79.3977 142.402 79.3977C143.209 79.3977 143.933 79.267 144.575 79.0057C145.217 78.7386 145.726 78.3693 146.101 77.8977C146.476 77.4205 146.663 76.8636 146.663 76.2273C146.663 75.6477 146.501 75.1761 146.178 74.8125C145.854 74.4489 145.428 74.1534 144.899 73.9261C144.371 73.6989 143.8 73.5 143.186 73.3295L141.038 72.7159C139.675 72.3239 138.595 71.7642 137.8 71.0369C137.004 70.3097 136.607 69.358 136.607 68.1818C136.607 67.2045 136.871 66.3523 137.399 65.625C137.933 64.892 138.649 64.3239 139.547 63.9205C140.45 63.5114 141.459 63.3068 142.572 63.3068C143.697 63.3068 144.697 63.5085 145.572 63.9119C146.447 64.3097 147.141 64.8551 147.652 65.5483C148.169 66.2415 148.442 67.0284 148.47 67.9091H146.425ZM152.184 81V63.5455H154.298V71.3182H163.604V63.5455H165.718V81H163.604V73.1932H154.298V81H152.184ZM170.665 81H168.45L174.859 63.5455H177.04L183.45 81H181.234L176.018 66.3068H175.881L170.665 81ZM171.484 74.1818H180.415V76.0568H171.484V74.1818ZM195.33 81H191.376L197.401 63.5455H202.157L208.174 81H204.219L199.847 67.5341H199.711L195.33 81ZM195.083 74.1392H204.424V77.0199H195.083V74.1392ZM210.275 81V63.5455H221.832V66.5881H213.965V70.7472H221.065V73.7898H213.965V81H210.275ZM224.911 81V63.5455H230.808C232.172 63.5455 233.291 63.7784 234.166 64.2443C235.041 64.7045 235.689 65.3381 236.109 66.1449C236.53 66.9517 236.74 67.8693 236.74 68.8977C236.74 69.9261 236.53 70.8381 236.109 71.6335C235.689 72.429 235.044 73.054 234.175 73.5085C233.305 73.9574 232.195 74.1818 230.842 74.1818H226.07V72.2727H230.774C231.706 72.2727 232.456 72.1364 233.024 71.8636C233.598 71.5909 234.013 71.2045 234.268 70.7045C234.53 70.1989 234.661 69.5966 234.661 68.8977C234.661 68.1989 234.53 67.5881 234.268 67.0653C234.007 66.5426 233.589 66.1392 233.016 65.8551C232.442 65.5653 231.683 65.4205 230.74 65.4205H227.024V81H224.911ZM233.126 73.1591L237.422 81H234.967L230.74 73.1591H233.126ZM242.376 63.5455V81H240.262V63.5455H242.376ZM252.767 81V63.5455H264.324V66.5881H256.457V70.7472H263.557V73.7898H256.457V81H252.767ZM267.635 81H263.68L269.706 63.5455H274.462L280.479 81H276.524L272.152 67.5341H272.016L267.635 81ZM267.388 74.1392H276.729V77.0199H267.388V74.1392ZM286.27 63.5455V81H282.58V63.5455H286.27ZM299.448 67.9091C299.346 67.0455 298.931 66.375 298.204 65.8977C297.477 65.4205 296.585 65.1818 295.528 65.1818C294.755 65.1818 294.079 65.3068 293.499 65.5568C292.925 65.8068 292.477 66.1506 292.153 66.5881C291.835 67.0256 291.675 67.5227 291.675 68.0795C291.675 68.5455 291.786 68.946 292.008 69.2812C292.235 69.6108 292.525 69.8864 292.877 70.108C293.229 70.3239 293.599 70.5028 293.985 70.6449C294.371 70.7812 294.727 70.892 295.05 70.9773L296.823 71.4545C297.278 71.5739 297.783 71.7386 298.34 71.9489C298.903 72.1591 299.44 72.446 299.951 72.8097C300.468 73.1676 300.894 73.6278 301.229 74.1903C301.565 74.7528 301.732 75.4432 301.732 76.2614C301.732 77.2045 301.485 78.0568 300.991 78.8182C300.502 79.5795 299.786 80.1847 298.843 80.6335C297.906 81.0824 296.766 81.3068 295.425 81.3068C294.175 81.3068 293.093 81.1051 292.178 80.7017C291.269 80.2983 290.553 79.7358 290.031 79.0142C289.513 78.2926 289.221 77.4545 289.153 76.5H291.335C291.391 77.1591 291.613 77.7045 291.999 78.1364C292.391 78.5625 292.886 78.8807 293.482 79.0909C294.085 79.2955 294.732 79.3977 295.425 79.3977C296.232 79.3977 296.957 79.267 297.599 79.0057C298.241 78.7386 298.749 78.3693 299.124 77.8977C299.499 77.4205 299.687 76.8636 299.687 76.2273C299.687 75.6477 299.525 75.1761 299.201 74.8125C298.877 74.4489 298.451 74.1534 297.923 73.9261C297.394 73.6989 296.823 73.5 296.21 73.3295L294.062 72.7159C292.698 72.3239 291.619 71.7642 290.823 71.0369C290.028 70.3097 289.63 69.358 289.63 68.1818C289.63 67.2045 289.894 66.3523 290.423 65.625C290.957 64.892 291.673 64.3239 292.57 63.9205C293.474 63.5114 294.482 63.3068 295.596 63.3068C296.721 63.3068 297.721 63.5085 298.596 63.9119C299.471 64.3097 300.164 64.8551 300.675 65.5483C301.192 66.2415 301.465 67.0284 301.494 67.9091H299.448ZM305.923 81H303.707L310.116 63.5455H312.298L318.707 81H316.491L311.276 66.3068H311.139L305.923 81ZM306.741 74.1818H315.673V76.0568H306.741V74.1818ZM321.426 81V63.5455H323.54V79.125H331.653V81H321.426ZM341.676 63.5455H344.199L350.131 78.0341H350.335L356.267 63.5455H358.79V81H356.812V67.7386H356.642L351.188 81H349.278L343.824 67.7386H343.653V81H341.676V63.5455Z" fill="#505050" fill-opacity="0.5"/>
<path d="M5.20739 92.5455V110H1.51705V92.5455H5.20739ZM22.843 92.5455V110H19.6555L12.0618 99.0142H11.9339V110H8.24361V92.5455H11.4822L19.0163 103.523H19.1697V92.5455H22.843ZM35.6506 110H31.696L37.7216 92.5455H42.4773L48.4943 110H44.5398L40.1676 96.5341H40.0312L35.6506 110ZM35.4034 103.139H44.7443V106.02H35.4034V103.139ZM72.7457 98.6562H69.0128C68.9446 98.1733 68.8054 97.7443 68.5952 97.3693C68.3849 96.9886 68.1151 96.6648 67.7855 96.3977C67.456 96.1307 67.0753 95.9261 66.6435 95.7841C66.2173 95.642 65.7543 95.571 65.2543 95.571C64.3509 95.571 63.5639 95.7955 62.8935 96.2443C62.223 96.6875 61.7031 97.3352 61.3338 98.1875C60.9645 99.0341 60.7798 100.062 60.7798 101.273C60.7798 102.517 60.9645 103.562 61.3338 104.409C61.7088 105.256 62.2315 105.895 62.902 106.327C63.5724 106.759 64.348 106.974 65.2287 106.974C65.723 106.974 66.1804 106.909 66.6009 106.778C67.027 106.648 67.4048 106.457 67.7344 106.207C68.0639 105.952 68.3366 105.642 68.5526 105.278C68.7741 104.915 68.9276 104.5 69.0128 104.034L72.7457 104.051C72.6491 104.852 72.4077 105.625 72.0213 106.369C71.6406 107.108 71.1264 107.77 70.4787 108.355C69.8366 108.935 69.0696 109.395 68.1776 109.736C67.2912 110.071 66.2884 110.239 65.169 110.239C63.6122 110.239 62.2202 109.886 60.9929 109.182C59.7713 108.477 58.8054 107.457 58.0952 106.122C57.3906 104.787 57.0384 103.17 57.0384 101.273C57.0384 99.3693 57.3963 97.75 58.1122 96.4148C58.8281 95.0795 59.7997 94.0625 61.027 93.3636C62.2543 92.6591 63.6349 92.3068 65.169 92.3068C66.1804 92.3068 67.1179 92.4489 67.9815 92.733C68.8509 93.017 69.6207 93.4318 70.2912 93.9773C70.9616 94.517 71.5071 95.179 71.9276 95.9631C72.3537 96.7472 72.6264 97.6449 72.7457 98.6562ZM75.392 110V92.5455H79.0824V99.7472H86.5739V92.5455H90.2557V110H86.5739V102.79H79.0824V110H75.392ZM109.338 101.273C109.338 103.176 108.977 104.795 108.256 106.131C107.54 107.466 106.563 108.486 105.324 109.19C104.091 109.889 102.705 110.239 101.165 110.239C99.6136 110.239 98.2216 109.886 96.9886 109.182C95.7557 108.477 94.7813 107.457 94.0653 106.122C93.3494 104.787 92.9915 103.17 92.9915 101.273C92.9915 99.3693 93.3494 97.75 94.0653 96.4148C94.7813 95.0795 95.7557 94.0625 96.9886 93.3636C98.2216 92.6591 99.6136 92.3068 101.165 92.3068C102.705 92.3068 104.091 92.6591 105.324 93.3636C106.563 94.0625 107.54 95.0795 108.256 96.4148C108.977 97.75 109.338 99.3693 109.338 101.273ZM105.597 101.273C105.597 100.04 105.412 99 105.043 98.1534C104.679 97.3068 104.165 96.6648 103.5 96.2273C102.835 95.7898 102.057 95.571 101.165 95.571C100.273 95.571 99.4943 95.7898 98.8295 96.2273C98.1648 96.6648 97.6477 97.3068 97.2784 98.1534C96.9148 99 96.733 100.04 96.733 101.273C96.733 102.506 96.9148 103.545 97.2784 104.392C97.6477 105.239 98.1648 105.881 98.8295 106.318C99.4943 106.756 100.273 106.974 101.165 106.974C102.057 106.974 102.835 106.756 103.5 106.318C104.165 105.881 104.679 105.239 105.043 104.392C105.412 103.545 105.597 102.506 105.597 101.273ZM112.072 110V92.5455H118.958C120.276 92.5455 121.401 92.7812 122.333 93.2528C123.271 93.7187 123.984 94.3807 124.472 95.2386C124.967 96.0909 125.214 97.0937 125.214 98.2472C125.214 99.4062 124.964 100.403 124.464 101.239C123.964 102.068 123.239 102.705 122.29 103.148C121.347 103.591 120.205 103.812 118.864 103.812H114.254V100.847H118.268C118.972 100.847 119.558 100.75 120.023 100.557C120.489 100.364 120.836 100.074 121.063 99.6875C121.296 99.3011 121.413 98.821 121.413 98.2472C121.413 97.6676 121.296 97.179 121.063 96.7812C120.836 96.3835 120.487 96.0824 120.015 95.8778C119.549 95.6676 118.961 95.5625 118.251 95.5625H115.762V110H112.072ZM121.498 102.057L125.836 110H121.762L117.518 102.057H121.498ZM134.009 110H127.822V92.5455H134.06C135.816 92.5455 137.327 92.8949 138.594 93.5938C139.862 94.2869 140.836 95.2841 141.518 96.5852C142.205 97.8864 142.549 99.4432 142.549 101.256C142.549 103.074 142.205 104.636 141.518 105.943C140.836 107.25 139.856 108.253 138.577 108.952C137.305 109.651 135.782 110 134.009 110ZM131.512 106.838H133.856C134.947 106.838 135.864 106.645 136.609 106.259C137.359 105.866 137.921 105.261 138.296 104.443C138.677 103.619 138.867 102.557 138.867 101.256C138.867 99.9659 138.677 98.9119 138.296 98.0938C137.921 97.2756 137.362 96.6733 136.617 96.2869C135.873 95.9006 134.955 95.7074 133.864 95.7074H131.512V106.838ZM154.528 92.5455V110H150.837V92.5455H154.528ZM172.163 92.5455V110H168.976L161.382 99.0142H161.254V110H157.564V92.5455H160.803L168.337 103.523H168.49V92.5455H172.163ZM183.776 110H179.821L185.847 92.5455H190.602L196.619 110H192.665L188.293 96.5341H188.156L183.776 110ZM183.528 103.139H192.869V106.02H183.528V103.139ZM213.3 98.6562H209.567C209.499 98.1733 209.36 97.7443 209.15 97.3693C208.94 96.9886 208.67 96.6648 208.34 96.3977C208.011 96.1307 207.63 95.9261 207.198 95.7841C206.772 95.642 206.309 95.571 205.809 95.571C204.906 95.571 204.119 95.7955 203.448 96.2443C202.778 96.6875 202.258 97.3352 201.888 98.1875C201.519 99.0341 201.335 100.062 201.335 101.273C201.335 102.517 201.519 103.562 201.888 104.409C202.263 105.256 202.786 105.895 203.457 106.327C204.127 106.759 204.903 106.974 205.783 106.974C206.278 106.974 206.735 106.909 207.156 106.778C207.582 106.648 207.96 106.457 208.289 106.207C208.619 105.952 208.891 105.642 209.107 105.278C209.329 104.915 209.482 104.5 209.567 104.034L213.3 104.051C213.204 104.852 212.962 105.625 212.576 106.369C212.195 107.108 211.681 107.77 211.033 108.355C210.391 108.935 209.624 109.395 208.732 109.736C207.846 110.071 206.843 110.239 205.724 110.239C204.167 110.239 202.775 109.886 201.548 109.182C200.326 108.477 199.36 107.457 198.65 106.122C197.945 104.787 197.593 103.17 197.593 101.273C197.593 99.3693 197.951 97.75 198.667 96.4148C199.383 95.0795 200.354 94.0625 201.582 93.3636C202.809 92.6591 204.19 92.3068 205.724 92.3068C206.735 92.3068 207.673 92.4489 208.536 92.733C209.406 93.017 210.175 93.4318 210.846 93.9773C211.516 94.517 212.062 95.179 212.482 95.9631C212.908 96.7472 213.181 97.6449 213.3 98.6562ZM231.347 98.6562H227.614C227.546 98.1733 227.407 97.7443 227.197 97.3693C226.987 96.9886 226.717 96.6648 226.387 96.3977C226.058 96.1307 225.677 95.9261 225.245 95.7841C224.819 95.642 224.356 95.571 223.856 95.571C222.952 95.571 222.165 95.7955 221.495 96.2443C220.825 96.6875 220.305 97.3352 219.935 98.1875C219.566 99.0341 219.381 100.062 219.381 101.273C219.381 102.517 219.566 103.562 219.935 104.409C220.31 105.256 220.833 105.895 221.504 106.327C222.174 106.759 222.95 106.974 223.83 106.974C224.325 106.974 224.782 106.909 225.202 106.778C225.629 106.648 226.006 106.457 226.336 106.207C226.665 105.952 226.938 105.642 227.154 105.278C227.376 104.915 227.529 104.5 227.614 104.034L231.347 104.051C231.251 104.852 231.009 105.625 230.623 106.369C230.242 107.108 229.728 107.77 229.08 108.355C228.438 108.935 227.671 109.395 226.779 109.736C225.893 110.071 224.89 110.239 223.771 110.239C222.214 110.239 220.822 109.886 219.594 109.182C218.373 108.477 217.407 107.457 216.697 106.122C215.992 104.787 215.64 103.17 215.64 101.273C215.64 99.3693 215.998 97.75 216.714 96.4148C217.43 95.0795 218.401 94.0625 219.629 93.3636C220.856 92.6591 222.237 92.3068 223.771 92.3068C224.782 92.3068 225.719 92.4489 226.583 92.733C227.452 93.017 228.222 93.4318 228.893 93.9773C229.563 94.517 230.109 95.179 230.529 95.9631C230.955 96.7472 231.228 97.6449 231.347 98.6562ZM250.033 101.273C250.033 103.176 249.673 104.795 248.951 106.131C248.235 107.466 247.258 108.486 246.019 109.19C244.786 109.889 243.4 110.239 241.86 110.239C240.309 110.239 238.917 109.886 237.684 109.182C236.451 108.477 235.477 107.457 234.761 106.122C234.045 104.787 233.687 103.17 233.687 101.273C233.687 99.3693 234.045 97.75 234.761 96.4148C235.477 95.0795 236.451 94.0625 237.684 93.3636C238.917 92.6591 240.309 92.3068 241.86 92.3068C243.4 92.3068 244.786 92.6591 246.019 93.3636C247.258 94.0625 248.235 95.0795 248.951 96.4148C249.673 97.75 250.033 99.3693 250.033 101.273ZM246.292 101.273C246.292 100.04 246.107 99 245.738 98.1534C245.374 97.3068 244.86 96.6648 244.195 96.2273C243.531 95.7898 242.752 95.571 241.86 95.571C240.968 95.571 240.19 95.7898 239.525 96.2273C238.86 96.6648 238.343 97.3068 237.974 98.1534C237.61 99 237.428 100.04 237.428 101.273C237.428 102.506 237.61 103.545 237.974 104.392C238.343 105.239 238.86 105.881 239.525 106.318C240.19 106.756 240.968 106.974 241.86 106.974C242.752 106.974 243.531 106.756 244.195 106.318C244.86 105.881 245.374 105.239 245.738 104.392C246.107 103.545 246.292 102.506 246.292 101.273ZM252.767 110V92.5455H259.653C260.972 92.5455 262.097 92.7812 263.028 93.2528C263.966 93.7187 264.679 94.3807 265.168 95.2386C265.662 96.0909 265.909 97.0937 265.909 98.2472C265.909 99.4062 265.659 100.403 265.159 101.239C264.659 102.068 263.935 102.705 262.986 103.148C262.043 103.591 260.901 103.812 259.56 103.812H254.949V100.847H258.963C259.668 100.847 260.253 100.75 260.719 100.557C261.185 100.364 261.531 100.074 261.759 99.6875C261.991 99.3011 262.108 98.821 262.108 98.2472C262.108 97.6676 261.991 97.179 261.759 96.7812C261.531 96.3835 261.182 96.0824 260.71 95.8778C260.244 95.6676 259.656 95.5625 258.946 95.5625H256.457V110H252.767ZM262.193 102.057L266.531 110H262.457L258.213 102.057H262.193ZM274.705 110H268.517V92.5455H274.756C276.511 92.5455 278.023 92.8949 279.29 93.5938C280.557 94.2869 281.531 95.2841 282.213 96.5852C282.901 97.8864 283.244 99.4432 283.244 101.256C283.244 103.074 282.901 104.636 282.213 105.943C281.531 107.25 280.551 108.253 279.273 108.952C278 109.651 276.477 110 274.705 110ZM272.207 106.838H274.551C275.642 106.838 276.56 106.645 277.304 106.259C278.054 105.866 278.616 105.261 278.991 104.443C279.372 103.619 279.562 102.557 279.562 101.256C279.562 99.9659 279.372 98.9119 278.991 98.0938C278.616 97.2756 278.057 96.6733 277.312 96.2869C276.568 95.9006 275.651 95.7074 274.56 95.7074H272.207V106.838ZM295.223 92.5455V110H291.533V92.5455H295.223ZM312.859 92.5455V110H309.671L302.077 99.0142H301.95V110H298.259V92.5455H301.498L309.032 103.523H309.185V92.5455H312.859ZM324.471 110H320.516L326.542 92.5455H331.298L337.315 110H333.36L328.988 96.5341H328.852L324.471 110ZM324.224 103.139H333.565V106.02H324.224V103.139ZM360.371 98.6562H356.638C356.57 98.1733 356.43 97.7443 356.22 97.3693C356.01 96.9886 355.74 96.6648 355.411 96.3977C355.081 96.1307 354.7 95.9261 354.268 95.7841C353.842 95.642 353.379 95.571 352.879 95.571C351.976 95.571 351.189 95.7955 350.518 96.2443C349.848 96.6875 349.328 97.3352 348.959 98.1875C348.589 99.0341 348.405 100.062 348.405 101.273C348.405 102.517 348.589 103.562 348.959 104.409C349.334 105.256 349.857 105.895 350.527 106.327C351.197 106.759 351.973 106.974 352.854 106.974C353.348 106.974 353.805 106.909 354.226 106.778C354.652 106.648 355.03 106.457 355.359 106.207C355.689 105.952 355.962 105.642 356.178 105.278C356.399 104.915 356.553 104.5 356.638 104.034L360.371 104.051C360.274 104.852 360.033 105.625 359.646 106.369C359.266 107.108 358.751 107.77 358.104 108.355C357.462 108.935 356.695 109.395 355.803 109.736C354.916 110.071 353.913 110.239 352.794 110.239C351.237 110.239 349.845 109.886 348.618 109.182C347.396 108.477 346.43 107.457 345.72 106.122C345.016 104.787 344.663 103.17 344.663 101.273C344.663 99.3693 345.021 97.75 345.737 96.4148C346.453 95.0795 347.425 94.0625 348.652 93.3636C349.879 92.6591 351.26 92.3068 352.794 92.3068C353.805 92.3068 354.743 92.4489 355.607 92.733C356.476 93.017 357.246 93.4318 357.916 93.9773C358.587 94.517 359.132 95.179 359.553 95.9631C359.979 96.7472 360.251 97.6449 360.371 98.6562Z" fill="#505050" fill-opacity="0.5"/>
<path d="M10.7727 131H9.36364C9.2803 130.595 9.13447 130.239 8.92614 129.932C8.72159 129.625 8.47159 129.367 8.17614 129.159C7.88447 128.947 7.56061 128.788 7.20455 128.682C6.84849 128.576 6.47727 128.523 6.09091 128.523C5.38636 128.523 4.74811 128.701 4.17614 129.057C3.60795 129.413 3.1553 129.938 2.81818 130.631C2.48485 131.324 2.31818 132.174 2.31818 133.182C2.31818 134.189 2.48485 135.04 2.81818 135.733C3.1553 136.426 3.60795 136.951 4.17614 137.307C4.74811 137.663 5.38636 137.841 6.09091 137.841C6.47727 137.841 6.84849 137.788 7.20455 137.682C7.56061 137.576 7.88447 137.419 8.17614 137.21C8.47159 136.998 8.72159 136.739 8.92614 136.432C9.13447 136.121 9.2803 135.765 9.36364 135.364H10.7727C10.6667 135.958 10.4735 136.491 10.1932 136.96C9.91288 137.43 9.56439 137.83 9.14773 138.159C8.73106 138.485 8.26326 138.733 7.74432 138.903C7.22917 139.074 6.67803 139.159 6.09091 139.159C5.09849 139.159 4.21591 138.917 3.44318 138.432C2.67045 137.947 2.0625 137.258 1.61932 136.364C1.17614 135.47 0.954545 134.409 0.954545 133.182C0.954545 131.955 1.17614 130.894 1.61932 130C2.0625 129.106 2.67045 128.417 3.44318 127.932C4.21591 127.447 5.09849 127.205 6.09091 127.205C6.67803 127.205 7.22917 127.29 7.74432 127.46C8.26326 127.631 8.73106 127.881 9.14773 128.21C9.56439 128.536 9.91288 128.934 10.1932 129.403C10.4735 129.869 10.6667 130.402 10.7727 131ZM22.8679 133.182C22.8679 134.409 22.6463 135.47 22.2031 136.364C21.7599 137.258 21.152 137.947 20.3793 138.432C19.6065 138.917 18.724 139.159 17.7315 139.159C16.7391 139.159 15.8565 138.917 15.0838 138.432C14.3111 137.947 13.7031 137.258 13.2599 136.364C12.8168 135.47 12.5952 134.409 12.5952 133.182C12.5952 131.955 12.8168 130.894 13.2599 130C13.7031 129.106 14.3111 128.417 15.0838 127.932C15.8565 127.447 16.7391 127.205 17.7315 127.205C18.724 127.205 19.6065 127.447 20.3793 127.932C21.152 128.417 21.7599 129.106 22.2031 130C22.6463 130.894 22.8679 131.955 22.8679 133.182ZM21.5043 133.182C21.5043 132.174 21.3357 131.324 20.9986 130.631C20.6652 129.938 20.2126 129.413 19.6406 129.057C19.0724 128.701 18.4361 128.523 17.7315 128.523C17.027 128.523 16.3887 128.701 15.8168 129.057C15.2486 129.413 14.7959 129.938 14.4588 130.631C14.1255 131.324 13.9588 132.174 13.9588 133.182C13.9588 134.189 14.1255 135.04 14.4588 135.733C14.7959 136.426 15.2486 136.951 15.8168 137.307C16.3887 137.663 17.027 137.841 17.7315 137.841C18.4361 137.841 19.0724 137.663 19.6406 137.307C20.2126 136.951 20.6652 136.426 20.9986 135.733C21.3357 135.04 21.5043 134.189 21.5043 133.182ZM25.2372 139V127.364H26.6463V137.75H32.0554V139H25.2372ZM37.8281 139H34.2372V127.364H37.9872C39.116 127.364 40.0819 127.597 40.8849 128.062C41.688 128.525 42.3035 129.189 42.7315 130.057C43.1596 130.92 43.3736 131.955 43.3736 133.159C43.3736 134.371 43.1577 135.415 42.7259 136.29C42.294 137.161 41.6652 137.831 40.8395 138.301C40.0137 138.767 39.0099 139 37.8281 139ZM35.6463 137.75H37.7372C38.6993 137.75 39.4967 137.564 40.1293 137.193C40.7618 136.822 41.2334 136.294 41.544 135.608C41.8546 134.922 42.0099 134.106 42.0099 133.159C42.0099 132.22 41.8565 131.411 41.5497 130.733C41.2429 130.051 40.7846 129.528 40.1747 129.165C39.5649 128.797 38.8054 128.614 37.8963 128.614H35.6463V137.75ZM50.2372 127.364H51.919L55.8736 137.023H56.0099L59.9645 127.364H61.6463V139H60.3281V130.159H60.2145L56.5781 139H55.3054L51.669 130.159H51.5554V139H50.2372V127.364ZM72.108 127.364H73.517V135.068C73.517 135.864 73.3295 136.574 72.9545 137.199C72.5833 137.82 72.0587 138.311 71.3807 138.67C70.7027 139.027 69.9072 139.205 68.9943 139.205C68.0814 139.205 67.286 139.027 66.608 138.67C65.9299 138.311 65.4034 137.82 65.0284 137.199C64.6572 136.574 64.4716 135.864 64.4716 135.068V127.364H65.8807V134.955C65.8807 135.523 66.0057 136.028 66.2557 136.472C66.5057 136.911 66.8617 137.258 67.3239 137.511C67.7898 137.761 68.3466 137.886 68.9943 137.886C69.642 137.886 70.1989 137.761 70.6648 137.511C71.1307 137.258 71.4867 136.911 71.733 136.472C71.983 136.028 72.108 135.523 72.108 134.955V127.364ZM82.6946 130.273C82.6264 129.697 82.3499 129.25 81.8651 128.932C81.3802 128.614 80.7855 128.455 80.081 128.455C79.5658 128.455 79.1151 128.538 78.7287 128.705C78.3461 128.871 78.0469 129.1 77.831 129.392C77.6188 129.684 77.5128 130.015 77.5128 130.386C77.5128 130.697 77.5866 130.964 77.7344 131.188C77.8859 131.407 78.0791 131.591 78.3139 131.739C78.5488 131.883 78.795 132.002 79.0526 132.097C79.3101 132.187 79.5469 132.261 79.7628 132.318L80.9446 132.636C81.2476 132.716 81.5848 132.826 81.956 132.966C82.331 133.106 82.6889 133.297 83.0298 133.54C83.3745 133.778 83.6586 134.085 83.8821 134.46C84.1056 134.835 84.2173 135.295 84.2173 135.841C84.2173 136.47 84.0526 137.038 83.723 137.545C83.3973 138.053 82.92 138.456 82.2912 138.756C81.6662 139.055 80.9067 139.205 80.0128 139.205C79.1795 139.205 78.4579 139.07 77.848 138.801C77.242 138.532 76.7647 138.157 76.4162 137.676C76.0715 137.195 75.8764 136.636 75.831 136H77.2855C77.3234 136.439 77.4711 136.803 77.7287 137.091C77.9901 137.375 78.3196 137.587 78.7173 137.727C79.1188 137.864 79.5507 137.932 80.0128 137.932C80.5507 137.932 81.0336 137.845 81.4616 137.67C81.8897 137.492 82.2287 137.246 82.4787 136.932C82.7287 136.614 82.8537 136.242 82.8537 135.818C82.8537 135.432 82.7457 135.117 82.5298 134.875C82.3139 134.633 82.0298 134.436 81.6776 134.284C81.3253 134.133 80.9446 134 80.5355 133.886L79.1037 133.477C78.1946 133.216 77.4749 132.843 76.9446 132.358C76.4143 131.873 76.1491 131.239 76.1491 130.455C76.1491 129.803 76.3253 129.235 76.6776 128.75C77.0336 128.261 77.5109 127.883 78.1094 127.614C78.7116 127.341 79.384 127.205 80.1264 127.205C80.8764 127.205 81.5431 127.339 82.1264 127.608C82.7098 127.873 83.1719 128.237 83.5128 128.699C83.8575 129.161 84.0393 129.686 84.0582 130.273H82.6946ZM87.9432 127.364V139H86.5341V127.364H87.9432ZM100.132 131H98.723C98.6397 130.595 98.4938 130.239 98.2855 129.932C98.081 129.625 97.831 129.367 97.5355 129.159C97.2438 128.947 96.92 128.788 96.5639 128.682C96.2079 128.576 95.8366 128.523 95.4503 128.523C94.7457 128.523 94.1075 128.701 93.5355 129.057C92.9673 129.413 92.5147 129.938 92.1776 130.631C91.8442 131.324 91.6776 132.174 91.6776 133.182C91.6776 134.189 91.8442 135.04 92.1776 135.733C92.5147 136.426 92.9673 136.951 93.5355 137.307C94.1075 137.663 94.7457 137.841 95.4503 137.841C95.8366 137.841 96.2079 137.788 96.5639 137.682C96.92 137.576 97.2438 137.419 97.5355 137.21C97.831 136.998 98.081 136.739 98.2855 136.432C98.4938 136.121 98.6397 135.765 98.723 135.364H100.132C100.026 135.958 99.8329 136.491 99.5526 136.96C99.2723 137.43 98.9238 137.83 98.5071 138.159C98.0904 138.485 97.6226 138.733 97.1037 138.903C96.5885 139.074 96.0374 139.159 95.4503 139.159C94.4579 139.159 93.5753 138.917 92.8026 138.432C92.0298 137.947 91.4219 137.258 90.9787 136.364C90.5355 135.47 90.3139 134.409 90.3139 133.182C90.3139 131.955 90.5355 130.894 90.9787 130C91.4219 129.106 92.0298 128.417 92.8026 127.932C93.5753 127.447 94.4579 127.205 95.4503 127.205C96.0374 127.205 96.5885 127.29 97.1037 127.46C97.6226 127.631 98.0904 127.881 98.5071 128.21C98.9238 128.536 99.2723 128.934 99.5526 129.403C99.8329 129.869 100.026 130.402 100.132 131ZM106.909 139V127.364H110.841C111.75 127.364 112.496 127.519 113.08 127.83C113.663 128.136 114.095 128.559 114.375 129.097C114.655 129.634 114.795 130.246 114.795 130.932C114.795 131.617 114.655 132.225 114.375 132.756C114.095 133.286 113.665 133.703 113.085 134.006C112.506 134.305 111.765 134.455 110.864 134.455H107.682V133.182H110.818C111.439 133.182 111.939 133.091 112.318 132.909C112.701 132.727 112.977 132.47 113.148 132.136C113.322 131.799 113.409 131.398 113.409 130.932C113.409 130.466 113.322 130.059 113.148 129.71C112.973 129.362 112.695 129.093 112.312 128.903C111.93 128.71 111.424 128.614 110.795 128.614H108.318V139H106.909ZM112.386 133.773L115.25 139H113.614L110.795 133.773H112.386ZM117.143 139V127.364H118.553V132.545H124.757V127.364H126.166V139H124.757V133.795H118.553V139H117.143ZM127.987 127.364H129.601L132.828 132.795H132.964L136.192 127.364H137.805L133.601 134.205V139H132.192V134.205L127.987 127.364ZM139.726 128.614V127.364H148.453V128.614H144.794V139H143.385V128.614H139.726ZM150.628 139V127.364H152.037V132.545H158.241V127.364H159.651V139H158.241V133.795H152.037V139H150.628ZM162.472 127.364H164.153L168.108 137.023H168.244L172.199 127.364H173.881V139H172.562V130.159H172.449L168.812 139H167.54L163.903 130.159H163.79V139H162.472V127.364ZM181.683 139H180.206L184.479 127.364H185.933L190.206 139H188.729L185.251 129.205H185.161L181.683 139ZM182.229 134.455H188.183V135.705H182.229V134.455ZM201.246 127.364V139H199.882L193.541 129.864H193.428V139H192.018V127.364H193.382L199.746 136.523H199.859V127.364H201.246ZM204.543 139H203.065L207.338 127.364H208.793L213.065 139H211.588L208.111 129.205H208.02L204.543 139ZM205.088 134.455H211.043V135.705H205.088V134.455ZM214.878 139V127.364H218.81C219.719 127.364 220.465 127.519 221.048 127.83C221.632 128.136 222.063 128.559 222.344 129.097C222.624 129.634 222.764 130.246 222.764 130.932C222.764 131.617 222.624 132.225 222.344 132.756C222.063 133.286 221.634 133.703 221.054 134.006C220.474 134.305 219.734 134.455 218.832 134.455H215.651V133.182H218.787C219.408 133.182 219.908 133.091 220.287 132.909C220.67 132.727 220.946 132.47 221.116 132.136C221.291 131.799 221.378 131.398 221.378 130.932C221.378 130.466 221.291 130.059 221.116 129.71C220.942 129.362 220.664 129.093 220.281 128.903C219.899 128.71 219.393 128.614 218.764 128.614H216.287V139H214.878ZM220.355 133.773L223.219 139H221.582L218.764 133.773H220.355ZM234.476 131H233.067C232.983 130.595 232.838 130.239 232.629 129.932C232.425 129.625 232.175 129.367 231.879 129.159C231.588 128.947 231.264 128.788 230.908 128.682C230.552 128.576 230.18 128.523 229.794 128.523C229.089 128.523 228.451 128.701 227.879 129.057C227.311 129.413 226.858 129.938 226.521 130.631C226.188 131.324 226.021 132.174 226.021 133.182C226.021 134.189 226.188 135.04 226.521 135.733C226.858 136.426 227.311 136.951 227.879 137.307C228.451 137.663 229.089 137.841 229.794 137.841C230.18 137.841 230.552 137.788 230.908 137.682C231.264 137.576 231.588 137.419 231.879 137.21C232.175 136.998 232.425 136.739 232.629 136.432C232.838 136.121 232.983 135.765 233.067 135.364H234.476C234.37 135.958 234.177 136.491 233.896 136.96C233.616 137.43 233.268 137.83 232.851 138.159C232.434 138.485 231.966 138.733 231.447 138.903C230.932 139.074 230.381 139.159 229.794 139.159C228.802 139.159 227.919 138.917 227.146 138.432C226.374 137.947 225.766 137.258 225.322 136.364C224.879 135.47 224.658 134.409 224.658 133.182C224.658 131.955 224.879 130.894 225.322 130C225.766 129.106 226.374 128.417 227.146 127.932C227.919 127.447 228.802 127.205 229.794 127.205C230.381 127.205 230.932 127.29 231.447 127.46C231.966 127.631 232.434 127.881 232.851 128.21C233.268 128.536 233.616 128.934 233.896 129.403C234.177 129.869 234.37 130.402 234.476 131ZM236.753 139V127.364H238.162V132.545H244.366V127.364H245.776V139H244.366V133.795H238.162V139H236.753ZM250.006 127.364V139H248.597V127.364H250.006ZM262.195 131H260.786C260.702 130.595 260.556 130.239 260.348 129.932C260.143 129.625 259.893 129.367 259.598 129.159C259.306 128.947 258.982 128.788 258.626 128.682C258.27 128.576 257.899 128.523 257.513 128.523C256.808 128.523 256.17 128.701 255.598 129.057C255.03 129.413 254.577 129.938 254.24 130.631C253.907 131.324 253.74 132.174 253.74 133.182C253.74 134.189 253.907 135.04 254.24 135.733C254.577 136.426 255.03 136.951 255.598 137.307C256.17 137.663 256.808 137.841 257.513 137.841C257.899 137.841 258.27 137.788 258.626 137.682C258.982 137.576 259.306 137.419 259.598 137.21C259.893 136.998 260.143 136.739 260.348 136.432C260.556 136.121 260.702 135.765 260.786 135.364H262.195C262.089 135.958 261.895 136.491 261.615 136.96C261.335 137.43 260.986 137.83 260.57 138.159C260.153 138.485 259.685 138.733 259.166 138.903C258.651 139.074 258.1 139.159 257.513 139.159C256.52 139.159 255.638 138.917 254.865 138.432C254.092 137.947 253.484 137.258 253.041 136.364C252.598 135.47 252.376 134.409 252.376 133.182C252.376 131.955 252.598 130.894 253.041 130C253.484 129.106 254.092 128.417 254.865 127.932C255.638 127.447 256.52 127.205 257.513 127.205C258.1 127.205 258.651 127.29 259.166 127.46C259.685 127.631 260.153 127.881 260.57 128.21C260.986 128.536 261.335 128.934 261.615 129.403C261.895 129.869 262.089 130.402 262.195 131ZM278.335 131H276.926C276.843 130.595 276.697 130.239 276.489 129.932C276.284 129.625 276.034 129.367 275.739 129.159C275.447 128.947 275.123 128.788 274.767 128.682C274.411 128.576 274.04 128.523 273.653 128.523C272.949 128.523 272.311 128.701 271.739 129.057C271.17 129.413 270.718 129.938 270.381 130.631C270.047 131.324 269.881 132.174 269.881 133.182C269.881 134.189 270.047 135.04 270.381 135.733C270.718 136.426 271.17 136.951 271.739 137.307C272.311 137.663 272.949 137.841 273.653 137.841C274.04 137.841 274.411 137.788 274.767 137.682C275.123 137.576 275.447 137.419 275.739 137.21C276.034 136.998 276.284 136.739 276.489 136.432C276.697 136.121 276.843 135.765 276.926 135.364H278.335C278.229 135.958 278.036 136.491 277.756 136.96C277.475 137.43 277.127 137.83 276.71 138.159C276.294 138.485 275.826 138.733 275.307 138.903C274.792 139.074 274.241 139.159 273.653 139.159C272.661 139.159 271.778 138.917 271.006 138.432C270.233 137.947 269.625 137.258 269.182 136.364C268.739 135.47 268.517 134.409 268.517 133.182C268.517 131.955 268.739 130.894 269.182 130C269.625 129.106 270.233 128.417 271.006 127.932C271.778 127.447 272.661 127.205 273.653 127.205C274.241 127.205 274.792 127.29 275.307 127.46C275.826 127.631 276.294 127.881 276.71 128.21C277.127 128.536 277.475 128.934 277.756 129.403C278.036 129.869 278.229 130.402 278.335 131ZM290.43 133.182C290.43 134.409 290.209 135.47 289.766 136.364C289.322 137.258 288.714 137.947 287.942 138.432C287.169 138.917 286.286 139.159 285.294 139.159C284.302 139.159 283.419 138.917 282.646 138.432C281.874 137.947 281.266 137.258 280.822 136.364C280.379 135.47 280.158 134.409 280.158 133.182C280.158 131.955 280.379 130.894 280.822 130C281.266 129.106 281.874 128.417 282.646 127.932C283.419 127.447 284.302 127.205 285.294 127.205C286.286 127.205 287.169 127.447 287.942 127.932C288.714 128.417 289.322 129.106 289.766 130C290.209 130.894 290.43 131.955 290.43 133.182ZM289.067 133.182C289.067 132.174 288.898 131.324 288.561 130.631C288.228 129.938 287.775 129.413 287.203 129.057C286.635 128.701 285.999 128.523 285.294 128.523C284.589 128.523 283.951 128.701 283.379 129.057C282.811 129.413 282.358 129.938 282.021 130.631C281.688 131.324 281.521 132.174 281.521 133.182C281.521 134.189 281.688 135.04 282.021 135.733C282.358 136.426 282.811 136.951 283.379 137.307C283.951 137.663 284.589 137.841 285.294 137.841C285.999 137.841 286.635 137.663 287.203 137.307C287.775 136.951 288.228 136.426 288.561 135.733C288.898 135.04 289.067 134.189 289.067 133.182ZM292.8 139V127.364H294.209V137.75H299.618V139H292.8ZM305.391 139H301.8V127.364H305.55C306.679 127.364 307.644 127.597 308.447 128.062C309.25 128.525 309.866 129.189 310.294 130.057C310.722 130.92 310.936 131.955 310.936 133.159C310.936 134.371 310.72 135.415 310.288 136.29C309.857 137.161 309.228 137.831 308.402 138.301C307.576 138.767 306.572 139 305.391 139ZM303.209 137.75H305.3C306.262 137.75 307.059 137.564 307.692 137.193C308.324 136.822 308.796 136.294 309.107 135.608C309.417 134.922 309.572 134.106 309.572 133.159C309.572 132.22 309.419 131.411 309.112 130.733C308.805 130.051 308.347 129.528 307.737 129.165C307.127 128.797 306.368 128.614 305.459 128.614H303.209V137.75ZM317.8 127.364H319.482L323.436 137.023H323.572L327.527 127.364H329.209V139H327.891V130.159H327.777L324.141 139H322.868L319.232 130.159H319.118V139H317.8V127.364ZM339.67 127.364H341.08V135.068C341.08 135.864 340.892 136.574 340.517 137.199C340.146 137.82 339.621 138.311 338.943 138.67C338.265 139.027 337.47 139.205 336.557 139.205C335.644 139.205 334.848 139.027 334.17 138.67C333.492 138.311 332.966 137.82 332.591 137.199C332.22 136.574 332.034 135.864 332.034 135.068V127.364H333.443V134.955C333.443 135.523 333.568 136.028 333.818 136.472C334.068 136.911 334.424 137.258 334.886 137.511C335.352 137.761 335.909 137.886 336.557 137.886C337.205 137.886 337.761 137.761 338.227 137.511C338.693 137.258 339.049 136.911 339.295 136.472C339.545 136.028 339.67 135.523 339.67 134.955V127.364ZM350.257 130.273C350.189 129.697 349.912 129.25 349.428 128.932C348.943 128.614 348.348 128.455 347.643 128.455C347.128 128.455 346.678 128.538 346.291 128.705C345.909 128.871 345.609 129.1 345.393 129.392C345.181 129.684 345.075 130.015 345.075 130.386C345.075 130.697 345.149 130.964 345.297 131.188C345.448 131.407 345.642 131.591 345.876 131.739C346.111 131.883 346.357 132.002 346.615 132.097C346.873 132.187 347.109 132.261 347.325 132.318L348.507 132.636C348.81 132.716 349.147 132.826 349.518 132.966C349.893 133.106 350.251 133.297 350.592 133.54C350.937 133.778 351.221 134.085 351.445 134.46C351.668 134.835 351.78 135.295 351.78 135.841C351.78 136.47 351.615 137.038 351.286 137.545C350.96 138.053 350.482 138.456 349.854 138.756C349.229 139.055 348.469 139.205 347.575 139.205C346.742 139.205 346.02 139.07 345.411 138.801C344.804 138.532 344.327 138.157 343.979 137.676C343.634 137.195 343.439 136.636 343.393 136H344.848C344.886 136.439 345.034 136.803 345.291 137.091C345.553 137.375 345.882 137.587 346.28 137.727C346.681 137.864 347.113 137.932 347.575 137.932C348.113 137.932 348.596 137.845 349.024 137.67C349.452 137.492 349.791 137.246 350.041 136.932C350.291 136.614 350.416 136.242 350.416 135.818C350.416 135.432 350.308 135.117 350.092 134.875C349.876 134.633 349.592 134.436 349.24 134.284C348.888 134.133 348.507 134 348.098 133.886L346.666 133.477C345.757 133.216 345.037 132.843 344.507 132.358C343.977 131.873 343.712 131.239 343.712 130.455C343.712 129.803 343.888 129.235 344.24 128.75C344.596 128.261 345.073 127.883 345.672 127.614C346.274 127.341 346.946 127.205 347.689 127.205C348.439 127.205 349.106 127.339 349.689 127.608C350.272 127.873 350.734 128.237 351.075 128.699C351.42 129.161 351.602 129.686 351.621 130.273H350.257Z" fill="#505050" fill-opacity="0.5"/>
<path d="M1.40909 158V146.364H5.47727C6.28788 146.364 6.95644 146.504 7.48295 146.784C8.00947 147.061 8.40152 147.434 8.65909 147.903C8.91667 148.369 9.04545 148.886 9.04545 149.455C9.04545 149.955 8.95644 150.367 8.77841 150.693C8.60417 151.019 8.37311 151.277 8.08523 151.466C7.80114 151.655 7.49242 151.795 7.15909 151.886V152C7.51515 152.023 7.87311 152.148 8.23295 152.375C8.5928 152.602 8.89394 152.928 9.13636 153.352C9.37879 153.777 9.5 154.295 9.5 154.909C9.5 155.492 9.36742 156.017 9.10227 156.483C8.83712 156.949 8.41856 157.318 7.84659 157.591C7.27462 157.864 6.5303 158 5.61364 158H1.40909ZM2.81818 156.75H5.61364C6.53409 156.75 7.1875 156.572 7.57386 156.216C7.96402 155.856 8.15909 155.42 8.15909 154.909C8.15909 154.515 8.05871 154.152 7.85795 153.818C7.6572 153.481 7.37121 153.212 7 153.011C6.62879 152.807 6.18939 152.705 5.68182 152.705H2.81818V156.75ZM2.81818 151.477H5.43182C5.85606 151.477 6.23864 151.394 6.57955 151.227C6.92424 151.061 7.19697 150.826 7.39773 150.523C7.60227 150.22 7.70455 149.864 7.70455 149.455C7.70455 148.943 7.52652 148.509 7.17045 148.153C6.81439 147.794 6.25 147.614 5.47727 147.614H2.81818V151.477ZM19.4517 146.364H20.8608V154.068C20.8608 154.864 20.6733 155.574 20.2983 156.199C19.9271 156.82 19.4025 157.311 18.7244 157.67C18.0464 158.027 17.2509 158.205 16.3381 158.205C15.4252 158.205 14.6297 158.027 13.9517 157.67C13.2737 157.311 12.7472 156.82 12.3722 156.199C12.0009 155.574 11.8153 154.864 11.8153 154.068V146.364H13.2244V153.955C13.2244 154.523 13.3494 155.028 13.5994 155.472C13.8494 155.911 14.2055 156.258 14.6676 156.511C15.1335 156.761 15.6903 156.886 16.3381 156.886C16.9858 156.886 17.5426 156.761 18.0085 156.511C18.4744 156.258 18.8305 155.911 19.0767 155.472C19.3267 155.028 19.4517 154.523 19.4517 153.955V146.364ZM23.0384 147.614V146.364H31.7656V147.614H28.1065V158H26.6974V147.614H23.0384ZM33.304 147.614V146.364H42.0312V147.614H38.3722V158H36.9631V147.614H33.304ZM44.206 158V146.364H51.2287V147.614H45.6151V151.545H50.8651V152.795H45.6151V156.75H51.3196V158H44.206ZM53.7685 158V146.364H57.7003C58.6094 146.364 59.3556 146.519 59.9389 146.83C60.5223 147.136 60.9541 147.559 61.2344 148.097C61.5147 148.634 61.6548 149.246 61.6548 149.932C61.6548 150.617 61.5147 151.225 61.2344 151.756C60.9541 152.286 60.5241 152.703 59.9446 153.006C59.3651 153.305 58.6245 153.455 57.723 153.455H54.5412V152.182H57.6776C58.2988 152.182 58.7988 152.091 59.1776 151.909C59.5601 151.727 59.8366 151.47 60.0071 151.136C60.1813 150.799 60.2685 150.398 60.2685 149.932C60.2685 149.466 60.1813 149.059 60.0071 148.71C59.8329 148.362 59.5545 148.093 59.1719 147.903C58.7893 147.71 58.2836 147.614 57.6548 147.614H55.1776V158H53.7685ZM59.2457 152.773L62.1094 158H60.473L57.6548 152.773H59.2457ZM64.0028 158V146.364H70.9801V147.614H65.4119V151.545H70.4574V152.795H65.4119V158H64.0028ZM73.3935 158V146.364H74.8026V156.75H80.2116V158H73.3935ZM80.8466 146.364H82.4602L85.6875 151.795H85.8239L89.0511 146.364H90.6648L86.4602 153.205V158H85.0511V153.205L80.8466 146.364ZM106.351 150H104.942C104.858 149.595 104.713 149.239 104.504 148.932C104.3 148.625 104.05 148.367 103.754 148.159C103.463 147.947 103.139 147.788 102.783 147.682C102.427 147.576 102.055 147.523 101.669 147.523C100.964 147.523 100.326 147.701 99.7543 148.057C99.1861 148.413 98.7334 148.938 98.3963 149.631C98.063 150.324 97.8963 151.174 97.8963 152.182C97.8963 153.189 98.063 154.04 98.3963 154.733C98.7334 155.426 99.1861 155.951 99.7543 156.307C100.326 156.663 100.964 156.841 101.669 156.841C102.055 156.841 102.427 156.788 102.783 156.682C103.139 156.576 103.463 156.419 103.754 156.21C104.05 155.998 104.3 155.739 104.504 155.432C104.713 155.121 104.858 154.765 104.942 154.364H106.351C106.245 154.958 106.052 155.491 105.771 155.96C105.491 156.43 105.143 156.83 104.726 157.159C104.309 157.485 103.841 157.733 103.322 157.903C102.807 158.074 102.256 158.159 101.669 158.159C100.677 158.159 99.794 157.917 99.0213 157.432C98.2486 156.947 97.6406 156.258 97.1974 155.364C96.7543 154.47 96.5327 153.409 96.5327 152.182C96.5327 150.955 96.7543 149.894 97.1974 149C97.6406 148.106 98.2486 147.417 99.0213 146.932C99.794 146.447 100.677 146.205 101.669 146.205C102.256 146.205 102.807 146.29 103.322 146.46C103.841 146.631 104.309 146.881 104.726 147.21C105.143 147.536 105.491 147.934 105.771 148.403C106.052 148.869 106.245 149.402 106.351 150ZM110.037 146.364V158H108.628V146.364H110.037ZM112.862 158V146.364H116.794C117.703 146.364 118.449 146.519 119.033 146.83C119.616 147.136 120.048 147.559 120.328 148.097C120.608 148.634 120.749 149.246 120.749 149.932C120.749 150.617 120.608 151.225 120.328 151.756C120.048 152.286 119.618 152.703 119.038 153.006C118.459 153.305 117.718 153.455 116.817 153.455H113.635V152.182H116.771C117.393 152.182 117.893 152.091 118.271 151.909C118.654 151.727 118.93 151.47 119.101 151.136C119.275 150.799 119.362 150.398 119.362 149.932C119.362 149.466 119.275 149.059 119.101 148.71C118.927 148.362 118.648 148.093 118.266 147.903C117.883 147.71 117.377 147.614 116.749 147.614H114.271V158H112.862ZM118.339 152.773L121.203 158H119.567L116.749 152.773H118.339ZM132.46 150H131.051C130.968 149.595 130.822 149.239 130.614 148.932C130.409 148.625 130.159 148.367 129.864 148.159C129.572 147.947 129.248 147.788 128.892 147.682C128.536 147.576 128.165 147.523 127.778 147.523C127.074 147.523 126.436 147.701 125.864 148.057C125.295 148.413 124.843 148.938 124.506 149.631C124.172 150.324 124.006 151.174 124.006 152.182C124.006 153.189 124.172 154.04 124.506 154.733C124.843 155.426 125.295 155.951 125.864 156.307C126.436 156.663 127.074 156.841 127.778 156.841C128.165 156.841 128.536 156.788 128.892 156.682C129.248 156.576 129.572 156.419 129.864 156.21C130.159 155.998 130.409 155.739 130.614 155.432C130.822 155.121 130.968 154.765 131.051 154.364H132.46C132.354 154.958 132.161 155.491 131.881 155.96C131.6 156.43 131.252 156.83 130.835 157.159C130.419 157.485 129.951 157.733 129.432 157.903C128.917 158.074 128.366 158.159 127.778 158.159C126.786 158.159 125.903 157.917 125.131 157.432C124.358 156.947 123.75 156.258 123.307 155.364C122.864 154.47 122.642 153.409 122.642 152.182C122.642 150.955 122.864 149.894 123.307 149C123.75 148.106 124.358 147.417 125.131 146.932C125.903 146.447 126.786 146.205 127.778 146.205C128.366 146.205 128.917 146.29 129.432 146.46C129.951 146.631 130.419 146.881 130.835 147.21C131.252 147.536 131.6 147.934 131.881 148.403C132.161 148.869 132.354 149.402 132.46 150ZM134.737 158V146.364H136.146V156.75H141.555V158H134.737ZM143.737 158V146.364H150.76V147.614H145.146V151.545H150.396V152.795H145.146V156.75H150.851V158H143.737ZM159.913 158L156.732 146.364H158.163L160.595 155.841H160.709L163.186 146.364H164.777L167.254 155.841H167.368L169.8 146.364H171.232L168.05 158H166.595L164.027 148.727H163.936L161.368 158H159.913ZM172.987 158V146.364H180.01V147.614H174.396V151.545H179.646V152.795H174.396V156.75H180.101V158H172.987ZM182.55 158V146.364H189.572V147.614H183.959V151.545H189.209V152.795H183.959V156.75H189.663V158H182.55ZM192.112 158V146.364H193.521V152.136H193.658L198.885 146.364H200.726L195.839 151.614L200.726 158H199.021L194.976 152.591L193.521 154.227V158H192.112ZM202.55 158V146.364H209.572V147.614H203.959V151.545H209.209V152.795H203.959V156.75H209.663V158H202.55ZM221.339 146.364V158H219.976L213.635 148.864H213.521V158H212.112V146.364H213.476L219.839 155.523H219.953V146.364H221.339ZM227.75 158H224.159V146.364H227.909C229.038 146.364 230.004 146.597 230.807 147.062C231.61 147.525 232.225 148.189 232.653 149.057C233.081 149.92 233.295 150.955 233.295 152.159C233.295 153.371 233.08 154.415 232.648 155.29C232.216 156.161 231.587 156.831 230.761 157.301C229.936 157.767 228.932 158 227.75 158ZM225.568 156.75H227.659C228.621 156.75 229.419 156.564 230.051 156.193C230.684 155.822 231.155 155.294 231.466 154.608C231.777 153.922 231.932 153.106 231.932 152.159C231.932 151.22 231.778 150.411 231.472 149.733C231.165 149.051 230.706 148.528 230.097 148.165C229.487 147.797 228.727 147.614 227.818 147.614H225.568V156.75ZM240.159 158V146.364H244.227C245.038 146.364 245.706 146.504 246.233 146.784C246.759 147.061 247.152 147.434 247.409 147.903C247.667 148.369 247.795 148.886 247.795 149.455C247.795 149.955 247.706 150.367 247.528 150.693C247.354 151.019 247.123 151.277 246.835 151.466C246.551 151.655 246.242 151.795 245.909 151.886V152C246.265 152.023 246.623 152.148 246.983 152.375C247.343 152.602 247.644 152.928 247.886 153.352C248.129 153.777 248.25 154.295 248.25 154.909C248.25 155.492 248.117 156.017 247.852 156.483C247.587 156.949 247.169 157.318 246.597 157.591C246.025 157.864 245.28 158 244.364 158H240.159ZM241.568 156.75H244.364C245.284 156.75 245.938 156.572 246.324 156.216C246.714 155.856 246.909 155.42 246.909 154.909C246.909 154.515 246.809 154.152 246.608 153.818C246.407 153.481 246.121 153.212 245.75 153.011C245.379 152.807 244.939 152.705 244.432 152.705H241.568V156.75ZM241.568 151.477H244.182C244.606 151.477 244.989 151.394 245.33 151.227C245.674 151.061 245.947 150.826 246.148 150.523C246.352 150.22 246.455 149.864 246.455 149.455C246.455 148.943 246.277 148.509 245.92 148.153C245.564 147.794 245 147.614 244.227 147.614H241.568V151.477ZM258.202 146.364H259.611V154.068C259.611 154.864 259.423 155.574 259.048 156.199C258.677 156.82 258.152 157.311 257.474 157.67C256.796 158.027 256.001 158.205 255.088 158.205C254.175 158.205 253.38 158.027 252.702 157.67C252.024 157.311 251.497 156.82 251.122 156.199C250.751 155.574 250.565 154.864 250.565 154.068V146.364H251.974V153.955C251.974 154.523 252.099 155.028 252.349 155.472C252.599 155.911 252.955 156.258 253.418 156.511C253.884 156.761 254.44 156.886 255.088 156.886C255.736 156.886 256.293 156.761 256.759 156.511C257.224 156.258 257.58 155.911 257.827 155.472C258.077 155.028 258.202 154.523 258.202 153.955V146.364ZM261.788 147.614V146.364H270.516V147.614H266.857V158H265.447V147.614H261.788ZM272.054 147.614V146.364H280.781V147.614H277.122V158H275.713V147.614H272.054ZM282.956 158V146.364H289.979V147.614H284.365V151.545H289.615V152.795H284.365V156.75H290.07V158H282.956ZM292.518 158V146.364H296.45C297.359 146.364 298.106 146.519 298.689 146.83C299.272 147.136 299.704 147.559 299.984 148.097C300.265 148.634 300.405 149.246 300.405 149.932C300.405 150.617 300.265 151.225 299.984 151.756C299.704 152.286 299.274 152.703 298.695 153.006C298.115 153.305 297.375 153.455 296.473 153.455H293.291V152.182H296.428C297.049 152.182 297.549 152.091 297.928 151.909C298.31 151.727 298.587 151.47 298.757 151.136C298.931 150.799 299.018 150.398 299.018 149.932C299.018 149.466 298.931 149.059 298.757 148.71C298.583 148.362 298.304 148.093 297.922 147.903C297.539 147.71 297.034 147.614 296.405 147.614H293.928V158H292.518ZM297.996 152.773L300.859 158H299.223L296.405 152.773H297.996ZM302.753 158V146.364H309.73V147.614H304.162V151.545H309.207V152.795H304.162V158H302.753ZM312.143 158V146.364H313.553V156.75H318.962V158H312.143ZM319.597 146.364H321.21L324.438 151.795H324.574L327.801 146.364H329.415L325.21 153.205V158H323.801V153.205L319.597 146.364ZM345.101 150H343.692C343.608 149.595 343.463 149.239 343.254 148.932C343.05 148.625 342.8 148.367 342.504 148.159C342.213 147.947 341.889 147.788 341.533 147.682C341.177 147.576 340.805 147.523 340.419 147.523C339.714 147.523 339.076 147.701 338.504 148.057C337.936 148.413 337.483 148.938 337.146 149.631C336.813 150.324 336.646 151.174 336.646 152.182C336.646 153.189 336.813 154.04 337.146 154.733C337.483 155.426 337.936 155.951 338.504 156.307C339.076 156.663 339.714 156.841 340.419 156.841C340.805 156.841 341.177 156.788 341.533 156.682C341.889 156.576 342.213 156.419 342.504 156.21C342.8 155.998 343.05 155.739 343.254 155.432C343.463 155.121 343.608 154.765 343.692 154.364H345.101C344.995 154.958 344.802 155.491 344.521 155.96C344.241 156.43 343.893 156.83 343.476 157.159C343.059 157.485 342.591 157.733 342.072 157.903C341.557 158.074 341.006 158.159 340.419 158.159C339.427 158.159 338.544 157.917 337.771 157.432C336.999 156.947 336.391 156.258 335.947 155.364C335.504 154.47 335.283 153.409 335.283 152.182C335.283 150.955 335.504 149.894 335.947 149C336.391 148.106 336.999 147.417 337.771 146.932C338.544 146.447 339.427 146.205 340.419 146.205C341.006 146.205 341.557 146.29 342.072 146.46C342.591 146.631 343.059 146.881 343.476 147.21C343.893 147.536 344.241 147.934 344.521 148.403C344.802 148.869 344.995 149.402 345.101 150ZM348.787 146.364V158H347.378V146.364H348.787Z" fill="#505050" fill-opacity="0.5"/>
<path d="M1.40909 165.364H3.09091L7.04545 175.023H7.18182L11.1364 165.364H12.8182V177H11.5V168.159H11.3864L7.75 177H6.47727L2.84091 168.159H2.72727V177H1.40909V165.364ZM16.1207 177H14.6435L18.9162 165.364H20.3707L24.6435 177H23.1662L19.6889 167.205H19.598L16.1207 177ZM16.6662 172.455H22.6207V173.705H16.6662V172.455ZM26.0696 177V175.977L32.3423 166.614H26.0014V165.364H34.0241V166.386L27.7514 175.75H34.0923V177H26.0696ZM36.456 177V165.364H37.8651V170.545H44.0696V165.364H45.4787V177H44.0696V171.795H37.8651V177H36.456ZM48.777 177H47.2997L51.5724 165.364H53.027L57.2997 177H55.8224L52.3452 167.205H52.2543L48.777 177ZM49.3224 172.455H55.277V173.705H49.3224V172.455ZM59.1122 177V165.364H63.044C63.9531 165.364 64.6993 165.519 65.2827 165.83C65.866 166.136 66.2978 166.559 66.5781 167.097C66.8584 167.634 66.9986 168.246 66.9986 168.932C66.9986 169.617 66.8584 170.225 66.5781 170.756C66.2978 171.286 65.8679 171.703 65.2884 172.006C64.7088 172.305 63.9683 172.455 63.0668 172.455H59.8849V171.182H63.0213C63.6425 171.182 64.1425 171.091 64.5213 170.909C64.9039 170.727 65.1804 170.47 65.3509 170.136C65.5251 169.799 65.6122 169.398 65.6122 168.932C65.6122 168.466 65.5251 168.059 65.3509 167.71C65.1766 167.362 64.8982 167.093 64.5156 166.903C64.133 166.71 63.6274 166.614 62.9986 166.614H60.5213V177H59.1122ZM64.5895 171.773L67.4531 177H65.8168L62.9986 171.773H64.5895ZM73.2102 166.614V165.364H81.9375V166.614H78.2784V177H76.8693V166.614H73.2102ZM85.5213 165.364V177H84.1122V165.364H85.5213ZM94.7102 168.273C94.642 167.697 94.3655 167.25 93.8807 166.932C93.3958 166.614 92.8011 166.455 92.0966 166.455C91.5814 166.455 91.1307 166.538 90.7443 166.705C90.3617 166.871 90.0625 167.1 89.8466 167.392C89.6345 167.684 89.5284 168.015 89.5284 168.386C89.5284 168.697 89.6023 168.964 89.75 169.188C89.9015 169.407 90.0947 169.591 90.3295 169.739C90.5644 169.883 90.8106 170.002 91.0682 170.097C91.3258 170.187 91.5625 170.261 91.7784 170.318L92.9602 170.636C93.2633 170.716 93.6004 170.826 93.9716 170.966C94.3466 171.106 94.7045 171.297 95.0455 171.54C95.3902 171.778 95.6742 172.085 95.8977 172.46C96.1212 172.835 96.233 173.295 96.233 173.841C96.233 174.47 96.0682 175.038 95.7386 175.545C95.4129 176.053 94.9356 176.456 94.3068 176.756C93.6818 177.055 92.9223 177.205 92.0284 177.205C91.1951 177.205 90.4735 177.07 89.8636 176.801C89.2576 176.532 88.7803 176.157 88.4318 175.676C88.0871 175.195 87.892 174.636 87.8466 174H89.3011C89.339 174.439 89.4867 174.803 89.7443 175.091C90.0057 175.375 90.3352 175.587 90.733 175.727C91.1345 175.864 91.5663 175.932 92.0284 175.932C92.5663 175.932 93.0492 175.845 93.4773 175.67C93.9053 175.492 94.2443 175.246 94.4943 174.932C94.7443 174.614 94.8693 174.242 94.8693 173.818C94.8693 173.432 94.7614 173.117 94.5455 172.875C94.3295 172.633 94.0455 172.436 93.6932 172.284C93.3409 172.133 92.9602 172 92.5511 171.886L91.1193 171.477C90.2102 171.216 89.4905 170.843 88.9602 170.358C88.4299 169.873 88.1648 169.239 88.1648 168.455C88.1648 167.803 88.3409 167.235 88.6932 166.75C89.0492 166.261 89.5265 165.883 90.125 165.614C90.7273 165.341 91.3996 165.205 92.142 165.205C92.892 165.205 93.5587 165.339 94.142 165.608C94.7254 165.873 95.1875 166.237 95.5284 166.699C95.8731 167.161 96.0549 167.686 96.0739 168.273H94.7102ZM98.5497 177V165.364H99.9588V170.545H106.163V165.364H107.572V177H106.163V171.795H99.9588V177H98.5497ZM110.871 177H109.393L113.666 165.364H115.121L119.393 177H117.916L114.439 167.205H114.348L110.871 177ZM111.416 172.455H117.371V173.705H111.416V172.455ZM126.183 177H124.706L128.979 165.364H130.433L134.706 177H133.229L129.751 167.205H129.661L126.183 177ZM126.729 172.455H132.683V173.705H126.729V172.455ZM136.518 177V165.364H143.496V166.614H137.928V170.545H142.973V171.795H137.928V177H136.518ZM145.909 177V165.364H149.841C150.75 165.364 151.496 165.519 152.08 165.83C152.663 166.136 153.095 166.559 153.375 167.097C153.655 167.634 153.795 168.246 153.795 168.932C153.795 169.617 153.655 170.225 153.375 170.756C153.095 171.286 152.665 171.703 152.085 172.006C151.506 172.305 150.765 172.455 149.864 172.455H146.682V171.182H149.818C150.439 171.182 150.939 171.091 151.318 170.909C151.701 170.727 151.977 170.47 152.148 170.136C152.322 169.799 152.409 169.398 152.409 168.932C152.409 168.466 152.322 168.059 152.148 167.71C151.973 167.362 151.695 167.093 151.312 166.903C150.93 166.71 150.424 166.614 149.795 166.614H147.318V177H145.909ZM151.386 171.773L154.25 177H152.614L149.795 171.773H151.386ZM157.553 165.364V177H156.143V165.364H157.553ZM164.878 177V165.364H171.855V166.614H166.287V170.545H171.332V171.795H166.287V177H164.878ZM173.293 177H171.815L176.088 165.364H177.543L181.815 177H180.338L176.861 167.205H176.77L173.293 177ZM173.838 172.455H179.793V173.705H173.838V172.455ZM185.037 165.364V177H183.628V165.364H185.037ZM194.226 168.273C194.158 167.697 193.881 167.25 193.396 166.932C192.911 166.614 192.317 166.455 191.612 166.455C191.097 166.455 190.646 166.538 190.26 166.705C189.877 166.871 189.578 167.1 189.362 167.392C189.15 167.684 189.044 168.015 189.044 168.386C189.044 168.697 189.118 168.964 189.266 169.188C189.417 169.407 189.61 169.591 189.845 169.739C190.08 169.883 190.326 170.002 190.584 170.097C190.841 170.187 191.078 170.261 191.294 170.318L192.476 170.636C192.779 170.716 193.116 170.826 193.487 170.966C193.862 171.106 194.22 171.297 194.561 171.54C194.906 171.778 195.19 172.085 195.413 172.46C195.637 172.835 195.749 173.295 195.749 173.841C195.749 174.47 195.584 175.038 195.254 175.545C194.929 176.053 194.451 176.456 193.822 176.756C193.197 177.055 192.438 177.205 191.544 177.205C190.711 177.205 189.989 177.07 189.379 176.801C188.773 176.532 188.296 176.157 187.947 175.676C187.603 175.195 187.408 174.636 187.362 174H188.817C188.855 174.439 189.002 174.803 189.26 175.091C189.521 175.375 189.851 175.587 190.249 175.727C190.65 175.864 191.082 175.932 191.544 175.932C192.082 175.932 192.565 175.845 192.993 175.67C193.421 175.492 193.76 175.246 194.01 174.932C194.26 174.614 194.385 174.242 194.385 173.818C194.385 173.432 194.277 173.117 194.061 172.875C193.845 172.633 193.561 172.436 193.209 172.284C192.857 172.133 192.476 172 192.067 171.886L190.635 171.477C189.726 171.216 189.006 170.843 188.476 170.358C187.946 169.873 187.68 169.239 187.68 168.455C187.68 167.803 187.857 167.235 188.209 166.75C188.565 166.261 189.042 165.883 189.641 165.614C190.243 165.341 190.915 165.205 191.658 165.205C192.408 165.205 193.074 165.339 193.658 165.608C194.241 165.873 194.703 166.237 195.044 166.699C195.389 167.161 195.571 167.686 195.589 168.273H194.226ZM198.543 177H197.065L201.338 165.364H202.793L207.065 177H205.588L202.111 167.205H202.02L198.543 177ZM199.088 172.455H205.043V173.705H199.088V172.455ZM208.878 177V165.364H210.287V175.75H215.696V177H208.878ZM222.378 165.364H224.06L228.014 175.023H228.151L232.105 165.364H233.787V177H232.469V168.159H232.355L228.719 177H227.446L223.81 168.159H223.696V177H222.378V165.364ZM237.089 177H235.612L239.885 165.364H241.339L245.612 177H244.135L240.658 167.205H240.567L237.089 177ZM237.635 172.455H243.589V173.705H237.635V172.455ZM247.038 177V175.977L253.311 166.614H246.97V165.364H254.993V166.386L248.72 175.75H255.061V177H247.038ZM257.425 177V165.364H258.834V170.545H265.038V165.364H266.447V177H265.038V171.795H258.834V177H257.425ZM269.746 177H268.268L272.541 165.364H273.996L278.268 177H276.791L273.314 167.205H273.223L269.746 177ZM270.291 172.455H276.246V173.705H270.291V172.455ZM280.081 177V165.364H284.013C284.922 165.364 285.668 165.519 286.251 165.83C286.835 166.136 287.267 166.559 287.547 167.097C287.827 167.634 287.967 168.246 287.967 168.932C287.967 169.617 287.827 170.225 287.547 170.756C287.267 171.286 286.837 171.703 286.257 172.006C285.678 172.305 284.937 172.455 284.036 172.455H280.854V171.182H283.99C284.611 171.182 285.111 171.091 285.49 170.909C285.873 170.727 286.149 170.47 286.32 170.136C286.494 169.799 286.581 169.398 286.581 168.932C286.581 168.466 286.494 168.059 286.32 167.71C286.145 167.362 285.867 167.093 285.484 166.903C285.102 166.71 284.596 166.614 283.967 166.614H281.49V177H280.081ZM285.558 171.773L288.422 177H286.786L283.967 171.773H285.558ZM294.179 166.614V165.364H302.906V166.614H299.247V177H297.838V166.614H294.179ZM306.49 165.364V177H305.081V165.364H306.49ZM315.679 168.273C315.611 167.697 315.334 167.25 314.849 166.932C314.365 166.614 313.77 166.455 313.065 166.455C312.55 166.455 312.099 166.538 311.713 166.705C311.33 166.871 311.031 167.1 310.815 167.392C310.603 167.684 310.497 168.015 310.497 168.386C310.497 168.697 310.571 168.964 310.719 169.188C310.87 169.407 311.063 169.591 311.298 169.739C311.533 169.883 311.779 170.002 312.037 170.097C312.295 170.187 312.531 170.261 312.747 170.318L313.929 170.636C314.232 170.716 314.569 170.826 314.94 170.966C315.315 171.106 315.673 171.297 316.014 171.54C316.359 171.778 316.643 172.085 316.866 172.46C317.09 172.835 317.202 173.295 317.202 173.841C317.202 174.47 317.037 175.038 316.707 175.545C316.382 176.053 315.904 176.456 315.276 176.756C314.651 177.055 313.891 177.205 312.997 177.205C312.164 177.205 311.442 177.07 310.832 176.801C310.226 176.532 309.749 176.157 309.401 175.676C309.056 175.195 308.861 174.636 308.815 174H310.27C310.308 174.439 310.455 174.803 310.713 175.091C310.974 175.375 311.304 175.587 311.702 175.727C312.103 175.864 312.535 175.932 312.997 175.932C313.535 175.932 314.018 175.845 314.446 175.67C314.874 175.492 315.213 175.246 315.463 174.932C315.713 174.614 315.838 174.242 315.838 173.818C315.838 173.432 315.73 173.117 315.514 172.875C315.298 172.633 315.014 172.436 314.662 172.284C314.31 172.133 313.929 172 313.52 171.886L312.088 171.477C311.179 171.216 310.459 170.843 309.929 170.358C309.399 169.873 309.134 169.239 309.134 168.455C309.134 167.803 309.31 167.235 309.662 166.75C310.018 166.261 310.495 165.883 311.094 165.614C311.696 165.341 312.368 165.205 313.111 165.205C313.861 165.205 314.527 165.339 315.111 165.608C315.694 165.873 316.156 166.237 316.497 166.699C316.842 167.161 317.024 167.686 317.043 168.273H315.679ZM319.518 177V165.364H320.928V170.545H327.132V165.364H328.541V177H327.132V171.795H320.928V177H319.518ZM331.839 177H330.362L334.635 165.364H336.089L340.362 177H338.885L335.408 167.205H335.317L331.839 177ZM332.385 172.455H338.339V173.705H332.385V172.455ZM347.152 177H345.675L349.947 165.364H351.402L355.675 177H354.197L350.72 167.205H350.629L347.152 177ZM347.697 172.455H353.652V173.705H347.697V172.455Z" fill="#505050" fill-opacity="0.5"/>
<path d="M2.81818 184.364V196H1.40909V184.364H2.81818ZM14.8707 184.364V196H13.5071L7.16619 186.864H7.05256V196H5.64347V184.364H7.0071L13.3707 193.523H13.4844V184.364H14.8707ZM22.6676 196H21.1903L25.4631 184.364H26.9176L31.1903 196H29.7131L26.2358 186.205H26.1449L22.6676 196ZM23.2131 191.455H29.1676V192.705H23.2131V191.455ZM46.8665 188H45.4574C45.3741 187.595 45.2282 187.239 45.0199 186.932C44.8153 186.625 44.5653 186.367 44.2699 186.159C43.9782 185.947 43.6544 185.788 43.2983 185.682C42.9422 185.576 42.571 185.523 42.1847 185.523C41.4801 185.523 40.8419 185.701 40.2699 186.057C39.7017 186.413 39.2491 186.938 38.9119 187.631C38.5786 188.324 38.4119 189.174 38.4119 190.182C38.4119 191.189 38.5786 192.04 38.9119 192.733C39.2491 193.426 39.7017 193.951 40.2699 194.307C40.8419 194.663 41.4801 194.841 42.1847 194.841C42.571 194.841 42.9422 194.788 43.2983 194.682C43.6544 194.576 43.9782 194.419 44.2699 194.21C44.5653 193.998 44.8153 193.739 45.0199 193.432C45.2282 193.121 45.3741 192.765 45.4574 192.364H46.8665C46.7604 192.958 46.5672 193.491 46.2869 193.96C46.0066 194.43 45.6581 194.83 45.2415 195.159C44.8248 195.485 44.357 195.733 43.8381 195.903C43.3229 196.074 42.7718 196.159 42.1847 196.159C41.1922 196.159 40.3097 195.917 39.5369 195.432C38.7642 194.947 38.1563 194.258 37.7131 193.364C37.2699 192.47 37.0483 191.409 37.0483 190.182C37.0483 188.955 37.2699 187.894 37.7131 187C38.1563 186.106 38.7642 185.417 39.5369 184.932C40.3097 184.447 41.1922 184.205 42.1847 184.205C42.7718 184.205 43.3229 184.29 43.8381 184.46C44.357 184.631 44.8248 184.881 45.2415 185.21C45.6581 185.536 46.0066 185.934 46.2869 186.403C46.5672 186.869 46.7604 187.402 46.8665 188ZM49.1435 196V184.364H50.5526V189.545H56.7571V184.364H58.1662V196H56.7571V190.795H50.5526V196H49.1435ZM70.8054 190.182C70.8054 191.409 70.5838 192.47 70.1406 193.364C69.6974 194.258 69.0895 194.947 68.3168 195.432C67.544 195.917 66.6615 196.159 65.669 196.159C64.6766 196.159 63.794 195.917 63.0213 195.432C62.2486 194.947 61.6406 194.258 61.1974 193.364C60.7543 192.47 60.5327 191.409 60.5327 190.182C60.5327 188.955 60.7543 187.894 61.1974 187C61.6406 186.106 62.2486 185.417 63.0213 184.932C63.794 184.447 64.6766 184.205 65.669 184.205C66.6615 184.205 67.544 184.447 68.3168 184.932C69.0895 185.417 69.6974 186.106 70.1406 187C70.5838 187.894 70.8054 188.955 70.8054 190.182ZM69.4418 190.182C69.4418 189.174 69.2732 188.324 68.9361 187.631C68.6027 186.938 68.1501 186.413 67.5781 186.057C67.0099 185.701 66.3736 185.523 65.669 185.523C64.9645 185.523 64.3262 185.701 63.7543 186.057C63.1861 186.413 62.7334 186.938 62.3963 187.631C62.063 188.324 61.8963 189.174 61.8963 190.182C61.8963 191.189 62.063 192.04 62.3963 192.733C62.7334 193.426 63.1861 193.951 63.7543 194.307C64.3262 194.663 64.9645 194.841 65.669 194.841C66.3736 194.841 67.0099 194.663 67.5781 194.307C68.1501 193.951 68.6027 193.426 68.9361 192.733C69.2732 192.04 69.4418 191.189 69.4418 190.182ZM73.1747 196V184.364H77.1065C78.0156 184.364 78.7618 184.519 79.3452 184.83C79.9285 185.136 80.3603 185.559 80.6406 186.097C80.9209 186.634 81.0611 187.246 81.0611 187.932C81.0611 188.617 80.9209 189.225 80.6406 189.756C80.3603 190.286 79.9304 190.703 79.3509 191.006C78.7713 191.305 78.0308 191.455 77.1293 191.455H73.9474V190.182H77.0838C77.705 190.182 78.205 190.091 78.5838 189.909C78.9664 189.727 79.2429 189.47 79.4134 189.136C79.5876 188.799 79.6747 188.398 79.6747 187.932C79.6747 187.466 79.5876 187.059 79.4134 186.71C79.2391 186.362 78.9607 186.093 78.5781 185.903C78.1955 185.71 77.6899 185.614 77.0611 185.614H74.5838V196H73.1747ZM78.652 190.773L81.5156 196H79.8793L77.0611 190.773H78.652ZM87 196H83.4091V184.364H87.1591C88.2879 184.364 89.2538 184.597 90.0568 185.062C90.8598 185.525 91.4754 186.189 91.9034 187.057C92.3314 187.92 92.5455 188.955 92.5455 190.159C92.5455 191.371 92.3295 192.415 91.8977 193.29C91.4659 194.161 90.8371 194.831 90.0114 195.301C89.1856 195.767 88.1818 196 87 196ZM84.8182 194.75H86.9091C87.8712 194.75 88.6686 194.564 89.3011 194.193C89.9337 193.822 90.4053 193.294 90.7159 192.608C91.0265 191.922 91.1818 191.106 91.1818 190.159C91.1818 189.22 91.0284 188.411 90.7216 187.733C90.4148 187.051 89.9564 186.528 89.3466 186.165C88.7367 185.797 87.9773 185.614 87.0682 185.614H84.8182V194.75ZM100.818 184.364V196H99.4091V184.364H100.818ZM112.871 184.364V196H111.507L105.166 186.864H105.053V196H103.643V184.364H105.007L111.371 193.523H111.484V184.364H112.871ZM120.668 196H119.19L123.463 184.364H124.918L129.19 196H127.713L124.236 186.205H124.145L120.668 196ZM121.213 191.455H127.168V192.705H121.213V191.455ZM139.82 188H138.411C138.327 187.595 138.181 187.239 137.973 186.932C137.768 186.625 137.518 186.367 137.223 186.159C136.931 185.947 136.607 185.788 136.251 185.682C135.895 185.576 135.524 185.523 135.138 185.523C134.433 185.523 133.795 185.701 133.223 186.057C132.655 186.413 132.202 186.938 131.865 187.631C131.532 188.324 131.365 189.174 131.365 190.182C131.365 191.189 131.532 192.04 131.865 192.733C132.202 193.426 132.655 193.951 133.223 194.307C133.795 194.663 134.433 194.841 135.138 194.841C135.524 194.841 135.895 194.788 136.251 194.682C136.607 194.576 136.931 194.419 137.223 194.21C137.518 193.998 137.768 193.739 137.973 193.432C138.181 193.121 138.327 192.765 138.411 192.364H139.82C139.714 192.958 139.52 193.491 139.24 193.96C138.96 194.43 138.611 194.83 138.195 195.159C137.778 195.485 137.31 195.733 136.791 195.903C136.276 196.074 135.725 196.159 135.138 196.159C134.145 196.159 133.263 195.917 132.49 195.432C131.717 194.947 131.109 194.258 130.666 193.364C130.223 192.47 130.001 191.409 130.001 190.182C130.001 188.955 130.223 187.894 130.666 187C131.109 186.106 131.717 185.417 132.49 184.932C133.263 184.447 134.145 184.205 135.138 184.205C135.725 184.205 136.276 184.29 136.791 184.46C137.31 184.631 137.778 184.881 138.195 185.21C138.611 185.536 138.96 185.934 139.24 186.403C139.52 186.869 139.714 187.402 139.82 188ZM151.46 188H150.051C149.968 187.595 149.822 187.239 149.614 186.932C149.409 186.625 149.159 186.367 148.864 186.159C148.572 185.947 148.248 185.788 147.892 185.682C147.536 185.576 147.165 185.523 146.778 185.523C146.074 185.523 145.436 185.701 144.864 186.057C144.295 186.413 143.843 186.938 143.506 187.631C143.172 188.324 143.006 189.174 143.006 190.182C143.006 191.189 143.172 192.04 143.506 192.733C143.843 193.426 144.295 193.951 144.864 194.307C145.436 194.663 146.074 194.841 146.778 194.841C147.165 194.841 147.536 194.788 147.892 194.682C148.248 194.576 148.572 194.419 148.864 194.21C149.159 193.998 149.409 193.739 149.614 193.432C149.822 193.121 149.968 192.765 150.051 192.364H151.46C151.354 192.958 151.161 193.491 150.881 193.96C150.6 194.43 150.252 194.83 149.835 195.159C149.419 195.485 148.951 195.733 148.432 195.903C147.917 196.074 147.366 196.159 146.778 196.159C145.786 196.159 144.903 195.917 144.131 195.432C143.358 194.947 142.75 194.258 142.307 193.364C141.864 192.47 141.642 191.409 141.642 190.182C141.642 188.955 141.864 187.894 142.307 187C142.75 186.106 143.358 185.417 144.131 184.932C144.903 184.447 145.786 184.205 146.778 184.205C147.366 184.205 147.917 184.29 148.432 184.46C148.951 184.631 149.419 184.881 149.835 185.21C150.252 185.536 150.6 185.934 150.881 186.403C151.161 186.869 151.354 187.402 151.46 188ZM163.555 190.182C163.555 191.409 163.334 192.47 162.891 193.364C162.447 194.258 161.839 194.947 161.067 195.432C160.294 195.917 159.411 196.159 158.419 196.159C157.427 196.159 156.544 195.917 155.771 195.432C154.999 194.947 154.391 194.258 153.947 193.364C153.504 192.47 153.283 191.409 153.283 190.182C153.283 188.955 153.504 187.894 153.947 187C154.391 186.106 154.999 185.417 155.771 184.932C156.544 184.447 157.427 184.205 158.419 184.205C159.411 184.205 160.294 184.447 161.067 184.932C161.839 185.417 162.447 186.106 162.891 187C163.334 187.894 163.555 188.955 163.555 190.182ZM162.192 190.182C162.192 189.174 162.023 188.324 161.686 187.631C161.353 186.938 160.9 186.413 160.328 186.057C159.76 185.701 159.124 185.523 158.419 185.523C157.714 185.523 157.076 185.701 156.504 186.057C155.936 186.413 155.483 186.938 155.146 187.631C154.813 188.324 154.646 189.174 154.646 190.182C154.646 191.189 154.813 192.04 155.146 192.733C155.483 193.426 155.936 193.951 156.504 194.307C157.076 194.663 157.714 194.841 158.419 194.841C159.124 194.841 159.76 194.663 160.328 194.307C160.9 193.951 161.353 193.426 161.686 192.733C162.023 192.04 162.192 191.189 162.192 190.182ZM165.925 196V184.364H169.857C170.766 184.364 171.512 184.519 172.095 184.83C172.679 185.136 173.11 185.559 173.391 186.097C173.671 186.634 173.811 187.246 173.811 187.932C173.811 188.617 173.671 189.225 173.391 189.756C173.11 190.286 172.68 190.703 172.101 191.006C171.521 191.305 170.781 191.455 169.879 191.455H166.697V190.182H169.834C170.455 190.182 170.955 190.091 171.334 189.909C171.716 189.727 171.993 189.47 172.163 189.136C172.338 188.799 172.425 188.398 172.425 187.932C172.425 187.466 172.338 187.059 172.163 186.71C171.989 186.362 171.711 186.093 171.328 185.903C170.946 185.71 170.44 185.614 169.811 185.614H167.334V196H165.925ZM171.402 190.773L174.266 196H172.629L169.811 190.773H171.402ZM179.75 196H176.159V184.364H179.909C181.038 184.364 182.004 184.597 182.807 185.062C183.61 185.525 184.225 186.189 184.653 187.057C185.081 187.92 185.295 188.955 185.295 190.159C185.295 191.371 185.08 192.415 184.648 193.29C184.216 194.161 183.587 194.831 182.761 195.301C181.936 195.767 180.932 196 179.75 196ZM177.568 194.75H179.659C180.621 194.75 181.419 194.564 182.051 194.193C182.684 193.822 183.155 193.294 183.466 192.608C183.777 191.922 183.932 191.106 183.932 190.159C183.932 189.22 183.778 188.411 183.472 187.733C183.165 187.051 182.706 186.528 182.097 186.165C181.487 185.797 180.727 185.614 179.818 185.614H177.568V194.75ZM193.568 184.364V196H192.159V184.364H193.568ZM205.621 184.364V196H204.257L197.916 186.864H197.803V196H196.393V184.364H197.757L204.121 193.523H204.234V184.364H205.621ZM213.418 196H211.94L216.213 184.364H217.668L221.94 196H220.463L216.986 186.205H216.895L213.418 196ZM213.963 191.455H219.918V192.705H213.963V191.455ZM237.616 188H236.207C236.124 187.595 235.978 187.239 235.77 186.932C235.565 186.625 235.315 186.367 235.02 186.159C234.728 185.947 234.404 185.788 234.048 185.682C233.692 185.576 233.321 185.523 232.935 185.523C232.23 185.523 231.592 185.701 231.02 186.057C230.452 186.413 229.999 186.938 229.662 187.631C229.329 188.324 229.162 189.174 229.162 190.182C229.162 191.189 229.329 192.04 229.662 192.733C229.999 193.426 230.452 193.951 231.02 194.307C231.592 194.663 232.23 194.841 232.935 194.841C233.321 194.841 233.692 194.788 234.048 194.682C234.404 194.576 234.728 194.419 235.02 194.21C235.315 193.998 235.565 193.739 235.77 193.432C235.978 193.121 236.124 192.765 236.207 192.364H237.616C237.51 192.958 237.317 193.491 237.037 193.96C236.757 194.43 236.408 194.83 235.991 195.159C235.575 195.485 235.107 195.733 234.588 195.903C234.073 196.074 233.522 196.159 232.935 196.159C231.942 196.159 231.06 195.917 230.287 195.432C229.514 194.947 228.906 194.258 228.463 193.364C228.02 192.47 227.798 191.409 227.798 190.182C227.798 188.955 228.02 187.894 228.463 187C228.906 186.106 229.514 185.417 230.287 184.932C231.06 184.447 231.942 184.205 232.935 184.205C233.522 184.205 234.073 184.29 234.588 184.46C235.107 184.631 235.575 184.881 235.991 185.21C236.408 185.536 236.757 185.934 237.037 186.403C237.317 186.869 237.51 187.402 237.616 188ZM239.893 196V184.364H241.303V189.545H247.507V184.364H248.916V196H247.507V190.795H241.303V196H239.893ZM261.555 190.182C261.555 191.409 261.334 192.47 260.891 193.364C260.447 194.258 259.839 194.947 259.067 195.432C258.294 195.917 257.411 196.159 256.419 196.159C255.427 196.159 254.544 195.917 253.771 195.432C252.999 194.947 252.391 194.258 251.947 193.364C251.504 192.47 251.283 191.409 251.283 190.182C251.283 188.955 251.504 187.894 251.947 187C252.391 186.106 252.999 185.417 253.771 184.932C254.544 184.447 255.427 184.205 256.419 184.205C257.411 184.205 258.294 184.447 259.067 184.932C259.839 185.417 260.447 186.106 260.891 187C261.334 187.894 261.555 188.955 261.555 190.182ZM260.192 190.182C260.192 189.174 260.023 188.324 259.686 187.631C259.353 186.938 258.9 186.413 258.328 186.057C257.76 185.701 257.124 185.523 256.419 185.523C255.714 185.523 255.076 185.701 254.504 186.057C253.936 186.413 253.483 186.938 253.146 187.631C252.813 188.324 252.646 189.174 252.646 190.182C252.646 191.189 252.813 192.04 253.146 192.733C253.483 193.426 253.936 193.951 254.504 194.307C255.076 194.663 255.714 194.841 256.419 194.841C257.124 194.841 257.76 194.663 258.328 194.307C258.9 193.951 259.353 193.426 259.686 192.733C260.023 192.04 260.192 191.189 260.192 190.182ZM263.925 196V184.364H267.857C268.766 184.364 269.512 184.519 270.095 184.83C270.679 185.136 271.11 185.559 271.391 186.097C271.671 186.634 271.811 187.246 271.811 187.932C271.811 188.617 271.671 189.225 271.391 189.756C271.11 190.286 270.68 190.703 270.101 191.006C269.521 191.305 268.781 191.455 267.879 191.455H264.697V190.182H267.834C268.455 190.182 268.955 190.091 269.334 189.909C269.716 189.727 269.993 189.47 270.163 189.136C270.338 188.799 270.425 188.398 270.425 187.932C270.425 187.466 270.338 187.059 270.163 186.71C269.989 186.362 269.711 186.093 269.328 185.903C268.946 185.71 268.44 185.614 267.811 185.614H265.334V196H263.925ZM269.402 190.773L272.266 196H270.629L267.811 190.773H269.402ZM277.75 196H274.159V184.364H277.909C279.038 184.364 280.004 184.597 280.807 185.062C281.61 185.525 282.225 186.189 282.653 187.057C283.081 187.92 283.295 188.955 283.295 190.159C283.295 191.371 283.08 192.415 282.648 193.29C282.216 194.161 281.587 194.831 280.761 195.301C279.936 195.767 278.932 196 277.75 196ZM275.568 194.75H277.659C278.621 194.75 279.419 194.564 280.051 194.193C280.684 193.822 281.155 193.294 281.466 192.608C281.777 191.922 281.932 191.106 281.932 190.159C281.932 189.22 281.778 188.411 281.472 187.733C281.165 187.051 280.706 186.528 280.097 186.165C279.487 185.797 278.727 185.614 277.818 185.614H275.568V194.75ZM291.568 184.364V196H290.159V184.364H291.568ZM303.621 184.364V196H302.257L295.916 186.864H295.803V196H294.393V184.364H295.757L302.121 193.523H302.234V184.364H303.621ZM311.418 196H309.94L314.213 184.364H315.668L319.94 196H318.463L314.986 186.205H314.895L311.418 196ZM311.963 191.455H317.918V192.705H311.963V191.455ZM330.57 188H329.161C329.077 187.595 328.931 187.239 328.723 186.932C328.518 186.625 328.268 186.367 327.973 186.159C327.681 185.947 327.357 185.788 327.001 185.682C326.645 185.576 326.274 185.523 325.888 185.523C325.183 185.523 324.545 185.701 323.973 186.057C323.405 186.413 322.952 186.938 322.615 187.631C322.282 188.324 322.115 189.174 322.115 190.182C322.115 191.189 322.282 192.04 322.615 192.733C322.952 193.426 323.405 193.951 323.973 194.307C324.545 194.663 325.183 194.841 325.888 194.841C326.274 194.841 326.645 194.788 327.001 194.682C327.357 194.576 327.681 194.419 327.973 194.21C328.268 193.998 328.518 193.739 328.723 193.432C328.931 193.121 329.077 192.765 329.161 192.364H330.57C330.464 192.958 330.27 193.491 329.99 193.96C329.71 194.43 329.361 194.83 328.945 195.159C328.528 195.485 328.06 195.733 327.541 195.903C327.026 196.074 326.475 196.159 325.888 196.159C324.895 196.159 324.013 195.917 323.24 195.432C322.467 194.947 321.859 194.258 321.416 193.364C320.973 192.47 320.751 191.409 320.751 190.182C320.751 188.955 320.973 187.894 321.416 187C321.859 186.106 322.467 185.417 323.24 184.932C324.013 184.447 324.895 184.205 325.888 184.205C326.475 184.205 327.026 184.29 327.541 184.46C328.06 184.631 328.528 184.881 328.945 185.21C329.361 185.536 329.71 185.934 329.99 186.403C330.27 186.869 330.464 187.402 330.57 188ZM342.21 188H340.801C340.718 187.595 340.572 187.239 340.364 186.932C340.159 186.625 339.909 186.367 339.614 186.159C339.322 185.947 338.998 185.788 338.642 185.682C338.286 185.576 337.915 185.523 337.528 185.523C336.824 185.523 336.186 185.701 335.614 186.057C335.045 186.413 334.593 186.938 334.256 187.631C333.922 188.324 333.756 189.174 333.756 190.182C333.756 191.189 333.922 192.04 334.256 192.733C334.593 193.426 335.045 193.951 335.614 194.307C336.186 194.663 336.824 194.841 337.528 194.841C337.915 194.841 338.286 194.788 338.642 194.682C338.998 194.576 339.322 194.419 339.614 194.21C339.909 193.998 340.159 193.739 340.364 193.432C340.572 193.121 340.718 192.765 340.801 192.364H342.21C342.104 192.958 341.911 193.491 341.631 193.96C341.35 194.43 341.002 194.83 340.585 195.159C340.169 195.485 339.701 195.733 339.182 195.903C338.667 196.074 338.116 196.159 337.528 196.159C336.536 196.159 335.653 195.917 334.881 195.432C334.108 194.947 333.5 194.258 333.057 193.364C332.614 192.47 332.392 191.409 332.392 190.182C332.392 188.955 332.614 187.894 333.057 187C333.5 186.106 334.108 185.417 334.881 184.932C335.653 184.447 336.536 184.205 337.528 184.205C338.116 184.205 338.667 184.29 339.182 184.46C339.701 184.631 340.169 184.881 340.585 185.21C341.002 185.536 341.35 185.934 341.631 186.403C341.911 186.869 342.104 187.402 342.21 188ZM354.305 190.182C354.305 191.409 354.084 192.47 353.641 193.364C353.197 194.258 352.589 194.947 351.817 195.432C351.044 195.917 350.161 196.159 349.169 196.159C348.177 196.159 347.294 195.917 346.521 195.432C345.749 194.947 345.141 194.258 344.697 193.364C344.254 192.47 344.033 191.409 344.033 190.182C344.033 188.955 344.254 187.894 344.697 187C345.141 186.106 345.749 185.417 346.521 184.932C347.294 184.447 348.177 184.205 349.169 184.205C350.161 184.205 351.044 184.447 351.817 184.932C352.589 185.417 353.197 186.106 353.641 187C354.084 187.894 354.305 188.955 354.305 190.182ZM352.942 190.182C352.942 189.174 352.773 188.324 352.436 187.631C352.103 186.938 351.65 186.413 351.078 186.057C350.51 185.701 349.874 185.523 349.169 185.523C348.464 185.523 347.826 185.701 347.254 186.057C346.686 186.413 346.233 186.938 345.896 187.631C345.563 188.324 345.396 189.174 345.396 190.182C345.396 191.189 345.563 192.04 345.896 192.733C346.233 193.426 346.686 193.951 347.254 194.307C347.826 194.663 348.464 194.841 349.169 194.841C349.874 194.841 350.51 194.663 351.078 194.307C351.65 193.951 352.103 193.426 352.436 192.733C352.773 192.04 352.942 191.189 352.942 190.182Z" fill="#505050" fill-opacity="0.5"/>
</g>
<defs>
<clipPath id="clip0_81_354">
<rect width="350" height="200" fill="white"/>
</clipPath>
</defs>
</svg>
