<svg width="350" height="200" viewBox="0 0 350 200" fill="none" xmlns="http://www.w3.org/2000/svg">
<g clip-path="url(#clip0_93_388)">
<path d="M10.9858 10.5653C10.9176 9.87784 10.625 9.34375 10.108 8.96307C9.59091 8.58239 8.8892 8.39204 8.00284 8.39204C7.40057 8.39204 6.89205 8.47727 6.47727 8.64773C6.0625 8.8125 5.74432 9.04261 5.52273 9.33807C5.30682 9.63352 5.19886 9.96875 5.19886 10.3438C5.1875 10.6562 5.25284 10.929 5.39489 11.1619C5.54261 11.3949 5.74432 11.5966 6 11.767C6.25568 11.9318 6.55114 12.0767 6.88636 12.2017C7.22159 12.321 7.57955 12.4233 7.96023 12.5085L9.52841 12.8835C10.2898 13.054 10.9886 13.2812 11.625 13.5653C12.2614 13.8494 12.8125 14.1989 13.2784 14.6136C13.7443 15.0284 14.1051 15.517 14.3608 16.0795C14.6222 16.642 14.7557 17.2869 14.7614 18.0142C14.7557 19.0824 14.483 20.0085 13.9432 20.7926C13.4091 21.571 12.6364 22.1761 11.625 22.608C10.6193 23.0341 9.40625 23.2472 7.9858 23.2472C6.5767 23.2472 5.34943 23.0312 4.30398 22.5994C3.2642 22.1676 2.4517 21.5284 1.86648 20.6818C1.28693 19.8295 0.982955 18.7756 0.954545 17.5199H4.52557C4.56534 18.1051 4.73295 18.5937 5.02841 18.9858C5.32955 19.3722 5.73011 19.6648 6.23011 19.8636C6.7358 20.0568 7.30682 20.1534 7.94318 20.1534C8.56818 20.1534 9.1108 20.0625 9.57102 19.8807C10.0369 19.6989 10.3977 19.446 10.6534 19.1222C10.9091 18.7983 11.0369 18.4261 11.0369 18.0057C11.0369 17.6136 10.9205 17.2841 10.6875 17.017C10.4602 16.75 10.125 16.5227 9.68182 16.3352C9.24432 16.1477 8.70739 15.9773 8.07102 15.8239L6.17045 15.3466C4.69886 14.9886 3.53693 14.429 2.68466 13.6676C1.83239 12.9062 1.40909 11.8807 1.41477 10.5909C1.40909 9.53409 1.69034 8.6108 2.25852 7.82102C2.83239 7.03125 3.61932 6.41477 4.61932 5.97159C5.61932 5.52841 6.75568 5.30682 8.02841 5.30682C9.32386 5.30682 10.4545 5.52841 11.4205 5.97159C12.392 6.41477 13.1477 7.03125 13.6875 7.82102C14.2273 8.6108 14.5057 9.52557 14.5227 10.5653H10.9858ZM19.8537 23H15.8991L21.9247 5.54545H26.6804L32.6974 23H28.7429L24.3707 9.53409H24.2344L19.8537 23ZM19.6065 16.1392H28.9474V19.0199H19.6065V16.1392ZM45.5518 11.1875C45.4325 10.7727 45.2649 10.4062 45.049 10.0881C44.8331 9.7642 44.5689 9.49148 44.2564 9.26989C43.9496 9.04261 43.5973 8.86932 43.1996 8.75C42.8075 8.63068 42.3729 8.57102 41.8956 8.57102C41.0036 8.57102 40.2195 8.79261 39.5433 9.23579C38.8729 9.67898 38.3501 10.3239 37.9751 11.1705C37.6001 12.0114 37.4126 13.0398 37.4126 14.2557C37.4126 15.4716 37.5973 16.5057 37.9666 17.358C38.3359 18.2102 38.8587 18.8608 39.5348 19.3097C40.2109 19.7528 41.0092 19.9744 41.9297 19.9744C42.7649 19.9744 43.478 19.8267 44.0689 19.5312C44.6655 19.2301 45.12 18.8068 45.4325 18.2614C45.7507 17.7159 45.9098 17.071 45.9098 16.3267L46.6598 16.4375H42.1598V13.6591H49.4638V15.858C49.4638 17.392 49.1399 18.7102 48.4922 19.8125C47.8445 20.9091 46.9524 21.7557 45.8161 22.3523C44.6797 22.9432 43.3786 23.2386 41.9126 23.2386C40.2763 23.2386 38.8388 22.8778 37.6001 22.1562C36.3615 21.429 35.3956 20.3977 34.7024 19.0625C34.0149 17.7216 33.6712 16.1307 33.6712 14.2898C33.6712 12.875 33.8757 11.6136 34.2848 10.5057C34.6996 9.39205 35.2791 8.44886 36.0234 7.67614C36.7678 6.90341 37.6342 6.31534 38.6229 5.91193C39.6115 5.50852 40.6825 5.30682 41.8359 5.30682C42.8246 5.30682 43.745 5.4517 44.5973 5.74148C45.4496 6.02557 46.2053 6.42898 46.8643 6.9517C47.5291 7.47443 48.0717 8.09659 48.4922 8.81818C48.9126 9.53409 49.1825 10.3239 49.3018 11.1875H45.5518ZM52.2358 23V5.54545H63.9972V8.58807H55.9261V12.7472H63.392V15.7898H55.9261V19.9574H64.0312V23H52.2358ZM76.4148 23L71.4205 5.54545H75.4517L78.3409 17.6733H78.4858L81.6733 5.54545H85.125L88.304 17.6989H88.4574L91.3466 5.54545H95.3778L90.3835 23H86.7869L83.4631 11.5881H83.3267L80.0114 23H76.4148ZM98.6037 23H94.6491L100.675 5.54545H105.43L111.447 23H107.493L103.121 9.53409H102.984L98.6037 23ZM98.3565 16.1392H107.697V19.0199H98.3565V16.1392ZM124.302 11.1875C124.183 10.7727 124.015 10.4062 123.799 10.0881C123.583 9.7642 123.319 9.49148 123.006 9.26989C122.7 9.04261 122.347 8.86932 121.95 8.75C121.558 8.63068 121.123 8.57102 120.646 8.57102C119.754 8.57102 118.969 8.79261 118.293 9.23579C117.623 9.67898 117.1 10.3239 116.725 11.1705C116.35 12.0114 116.163 13.0398 116.163 14.2557C116.163 15.4716 116.347 16.5057 116.717 17.358C117.086 18.2102 117.609 18.8608 118.285 19.3097C118.961 19.7528 119.759 19.9744 120.68 19.9744C121.515 19.9744 122.228 19.8267 122.819 19.5312C123.415 19.2301 123.87 18.8068 124.183 18.2614C124.501 17.7159 124.66 17.071 124.66 16.3267L125.41 16.4375H120.91V13.6591H128.214V15.858C128.214 17.392 127.89 18.7102 127.242 19.8125C126.594 20.9091 125.702 21.7557 124.566 22.3523C123.43 22.9432 122.129 23.2386 120.663 23.2386C119.026 23.2386 117.589 22.8778 116.35 22.1562C115.112 21.429 114.146 20.3977 113.452 19.0625C112.765 17.7216 112.421 16.1307 112.421 14.2898C112.421 12.875 112.626 11.6136 113.035 10.5057C113.45 9.39205 114.029 8.44886 114.773 7.67614C115.518 6.90341 116.384 6.31534 117.373 5.91193C118.362 5.50852 119.433 5.30682 120.586 5.30682C121.575 5.30682 122.495 5.4517 123.347 5.74148C124.2 6.02557 124.955 6.42898 125.614 6.9517C126.279 7.47443 126.822 8.09659 127.242 8.81818C127.663 9.53409 127.933 10.3239 128.052 11.1875H124.302ZM130.986 23V5.54545H142.747V8.58807H134.676V12.7472H142.142V15.7898H134.676V19.9574H142.781V23H130.986ZM151.236 23V5.54545H154.926V19.9574H162.409V23H151.236ZM180.213 14.2727C180.213 16.1761 179.852 17.7955 179.131 19.1307C178.415 20.4659 177.438 21.4858 176.199 22.1903C174.966 22.8892 173.58 23.2386 172.04 23.2386C170.489 23.2386 169.097 22.8864 167.864 22.1818C166.631 21.4773 165.656 20.4574 164.94 19.1222C164.224 17.7869 163.866 16.1705 163.866 14.2727C163.866 12.3693 164.224 10.75 164.94 9.41477C165.656 8.07955 166.631 7.0625 167.864 6.36364C169.097 5.65909 170.489 5.30682 172.04 5.30682C173.58 5.30682 174.966 5.65909 176.199 6.36364C177.438 7.0625 178.415 8.07955 179.131 9.41477C179.852 10.75 180.213 12.3693 180.213 14.2727ZM176.472 14.2727C176.472 13.0398 176.287 12 175.918 11.1534C175.554 10.3068 175.04 9.66477 174.375 9.22727C173.71 8.78977 172.932 8.57102 172.04 8.57102C171.148 8.57102 170.369 8.78977 169.705 9.22727C169.04 9.66477 168.523 10.3068 168.153 11.1534C167.79 12 167.608 13.0398 167.608 14.2727C167.608 15.5057 167.79 16.5455 168.153 17.392C168.523 18.2386 169.04 18.8807 169.705 19.3182C170.369 19.7557 171.148 19.9744 172.04 19.9744C172.932 19.9744 173.71 19.7557 174.375 19.3182C175.04 18.8807 175.554 18.2386 175.918 17.392C176.287 16.5455 176.472 15.5057 176.472 14.2727ZM182.947 23V5.54545H194.504V8.58807H186.637V12.7472H193.737V15.7898H186.637V23H182.947ZM196.321 8.58807V5.54545H210.656V8.58807H205.312V23H201.665V8.58807H196.321ZM212.114 5.54545H214.534L219.375 13.6932H219.58L224.42 5.54545H226.841L220.534 15.8068V23H218.42V15.8068L212.114 5.54545ZM237.243 5.54545V23H235.129V5.54545H237.243ZM255.322 5.54545V23H253.276L243.765 9.29545H243.594V23H241.481V5.54545H243.526L253.072 19.2841H253.242V5.54545H255.322ZM265.543 16.9318H268.679L270.256 18.9602L271.807 20.767L274.73 24.4318H271.287L269.276 21.9602L268.244 20.4943L265.543 16.9318ZM274.994 14.2727C274.994 16.1761 274.634 17.7955 273.912 19.1307C273.196 20.4659 272.219 21.4858 270.98 22.1903C269.747 22.8892 268.361 23.2386 266.821 23.2386C265.27 23.2386 263.878 22.8864 262.645 22.1818C261.412 21.4773 260.438 20.4574 259.722 19.1222C259.006 17.7869 258.648 16.1705 258.648 14.2727C258.648 12.3693 259.006 10.75 259.722 9.41477C260.438 8.07955 261.412 7.0625 262.645 6.36364C263.878 5.65909 265.27 5.30682 266.821 5.30682C268.361 5.30682 269.747 5.65909 270.98 6.36364C272.219 7.0625 273.196 8.07955 273.912 9.41477C274.634 10.75 274.994 12.3693 274.994 14.2727ZM271.253 14.2727C271.253 13.0398 271.068 12 270.699 11.1534C270.335 10.3068 269.821 9.66477 269.156 9.22727C268.491 8.78977 267.713 8.57102 266.821 8.57102C265.929 8.57102 265.151 8.78977 264.486 9.22727C263.821 9.66477 263.304 10.3068 262.935 11.1534C262.571 12 262.389 13.0398 262.389 14.2727C262.389 15.5057 262.571 16.5455 262.935 17.392C263.304 18.2386 263.821 18.8807 264.486 19.3182C265.151 19.7557 265.929 19.9744 266.821 19.9744C267.713 19.9744 268.491 19.7557 269.156 19.3182C269.821 18.8807 270.335 18.2386 270.699 17.392C271.068 16.5455 271.253 15.5057 271.253 14.2727ZM288.509 5.54545H292.2V16.8807C292.2 18.1534 291.896 19.267 291.288 20.2216C290.685 21.1761 289.842 21.9205 288.756 22.4545C287.671 22.983 286.407 23.2472 284.964 23.2472C283.515 23.2472 282.248 22.983 281.163 22.4545C280.077 21.9205 279.234 21.1761 278.631 20.2216C278.029 19.267 277.728 18.1534 277.728 16.8807V5.54545H281.418V16.5653C281.418 17.2301 281.563 17.821 281.853 18.3381C282.148 18.8551 282.563 19.2614 283.097 19.5568C283.631 19.8523 284.254 20 284.964 20C285.68 20 286.302 19.8523 286.83 19.5568C287.364 19.2614 287.776 18.8551 288.066 18.3381C288.362 17.821 288.509 17.2301 288.509 16.5653V5.54545ZM298.926 5.54545V23H295.236V5.54545H298.926ZM301.962 23V5.54545H308.849C310.167 5.54545 311.292 5.78125 312.224 6.25284C313.161 6.71875 313.874 7.38068 314.363 8.23864C314.857 9.09091 315.104 10.0937 315.104 11.2472C315.104 12.4062 314.854 13.4034 314.354 14.2386C313.854 15.0682 313.13 15.7045 312.181 16.1477C311.238 16.5909 310.096 16.8125 308.755 16.8125H304.144V13.8466H308.158C308.863 13.8466 309.448 13.75 309.914 13.5568C310.38 13.3636 310.727 13.0739 310.954 12.6875C311.187 12.3011 311.303 11.821 311.303 11.2472C311.303 10.6676 311.187 10.179 310.954 9.78125C310.727 9.38352 310.377 9.08239 309.906 8.87784C309.44 8.66761 308.852 8.5625 308.141 8.5625H305.653V23H301.962ZM311.388 15.0568L315.727 23H311.653L307.408 15.0568H311.388ZM320.423 5.54545V23H318.309V5.54545H320.423ZM338.501 5.54545V23H336.456L326.945 9.29545H326.774V23H324.661V5.54545H326.706L336.251 19.2841H336.422V5.54545H338.501ZM354.663 11C354.475 10.4261 354.228 9.91193 353.921 9.45739C353.62 8.99716 353.259 8.60511 352.839 8.28125C352.424 7.95739 351.952 7.71023 351.424 7.53977C350.896 7.36932 350.316 7.28409 349.685 7.28409C348.651 7.28409 347.711 7.55114 346.864 8.08523C346.018 8.61932 345.344 9.40625 344.844 10.446C344.344 11.4858 344.094 12.7614 344.094 14.2727C344.094 15.7841 344.347 17.0597 344.853 18.0994C345.359 19.1392 346.043 19.9261 346.907 20.4602C347.771 20.9943 348.742 21.2614 349.822 21.2614C350.822 21.2614 351.702 21.0483 352.464 20.6222C353.231 20.1903 353.827 19.5824 354.254 18.7983C354.685 18.0085 354.901 17.0795 354.901 16.0114L355.549 16.1477H350.299V14.2727H356.947V16.1477C356.947 17.5852 356.64 18.8352 356.026 19.8977C355.418 20.9602 354.577 21.7841 353.504 22.3693C352.435 22.9489 351.208 23.2386 349.822 23.2386C348.276 23.2386 346.918 22.875 345.748 22.1477C344.583 21.4205 343.674 20.3864 343.021 19.0455C342.373 17.7045 342.049 16.1136 342.049 14.2727C342.049 12.892 342.234 11.6506 342.603 10.5483C342.978 9.44034 343.506 8.49716 344.188 7.71875C344.87 6.94034 345.677 6.34375 346.609 5.92898C347.54 5.5142 348.566 5.30682 349.685 5.30682C350.606 5.30682 351.464 5.44602 352.259 5.72443C353.06 5.99716 353.773 6.38636 354.398 6.89204C355.029 7.39204 355.555 7.99148 355.975 8.69034C356.396 9.38352 356.685 10.1534 356.844 11H354.663Z" fill="#505050" fill-opacity="0.5"/>
<path d="M2.82955 34.5455L8.01136 49.2386H8.21591L13.3977 34.5455H15.6136L9.20455 52H7.02273L0.613636 34.5455H2.82955ZM20.446 34.5455V52H18.3324V34.5455H20.446ZM24.6839 52V34.5455H26.7976V50.125H34.9112V52H24.6839ZM37.5874 52V34.5455H41.2777V48.9574H48.7607V52H37.5874ZM54.6584 52H50.7038L56.7294 34.5455H61.4851L67.5021 52H63.5476L59.1754 38.5341H59.0391L54.6584 52ZM54.4112 45.1392H63.7521V48.0199H54.4112V45.1392ZM80.3565 40.1875C80.2372 39.7727 80.0696 39.4062 79.8537 39.0881C79.6378 38.7642 79.3736 38.4915 79.0611 38.2699C78.7543 38.0426 78.402 37.8693 78.0043 37.75C77.6122 37.6307 77.1776 37.571 76.7003 37.571C75.8082 37.571 75.0241 37.7926 74.348 38.2358C73.6776 38.679 73.1548 39.3239 72.7798 40.1705C72.4048 41.0114 72.2173 42.0398 72.2173 43.2557C72.2173 44.4716 72.402 45.5057 72.7713 46.358C73.1406 47.2102 73.6634 47.8608 74.3395 48.3097C75.0156 48.7528 75.8139 48.9744 76.7344 48.9744C77.5696 48.9744 78.2827 48.8267 78.8736 48.5312C79.4702 48.2301 79.9247 47.8068 80.2372 47.2614C80.5554 46.7159 80.7145 46.071 80.7145 45.3267L81.4645 45.4375H76.9645V42.6591H84.2685V44.858C84.2685 46.392 83.9446 47.7102 83.2969 48.8125C82.6491 49.9091 81.7571 50.7557 80.6207 51.3523C79.4844 51.9432 78.1832 52.2386 76.7173 52.2386C75.081 52.2386 73.6435 51.8778 72.4048 51.1562C71.1662 50.429 70.2003 49.3977 69.5071 48.0625C68.8196 46.7216 68.4759 45.1307 68.4759 43.2898C68.4759 41.875 68.6804 40.6136 69.0895 39.5057C69.5043 38.392 70.0838 37.4489 70.8281 36.6761C71.5724 35.9034 72.4389 35.3153 73.4276 34.9119C74.4162 34.5085 75.4872 34.3068 76.6406 34.3068C77.6293 34.3068 78.5497 34.4517 79.402 34.7415C80.2543 35.0256 81.0099 35.429 81.669 35.9517C82.3338 36.4744 82.8764 37.0966 83.2969 37.8182C83.7173 38.5341 83.9872 39.3239 84.1065 40.1875H80.3565ZM87.0405 52V34.5455H98.8018V37.5881H90.7308V41.7472H98.1967V44.7898H90.7308V48.9574H98.8359V52H87.0405ZM108.486 52V34.5455H112.176V41.7472H119.668V34.5455H123.349V52H119.668V44.7898H112.176V52H108.486ZM142.432 43.2727C142.432 45.1761 142.071 46.7955 141.349 48.1307C140.634 49.4659 139.656 50.4858 138.418 51.1903C137.185 51.8892 135.798 52.2386 134.259 52.2386C132.707 52.2386 131.315 51.8864 130.082 51.1818C128.849 50.4773 127.875 49.4574 127.159 48.1222C126.443 46.7869 126.085 45.1705 126.085 43.2727C126.085 41.3693 126.443 39.75 127.159 38.4148C127.875 37.0795 128.849 36.0625 130.082 35.3636C131.315 34.6591 132.707 34.3068 134.259 34.3068C135.798 34.3068 137.185 34.6591 138.418 35.3636C139.656 36.0625 140.634 37.0795 141.349 38.4148C142.071 39.75 142.432 41.3693 142.432 43.2727ZM138.69 43.2727C138.69 42.0398 138.506 41 138.136 40.1534C137.773 39.3068 137.259 38.6648 136.594 38.2273C135.929 37.7898 135.151 37.571 134.259 37.571C133.366 37.571 132.588 37.7898 131.923 38.2273C131.259 38.6648 130.741 39.3068 130.372 40.1534C130.009 41 129.827 42.0398 129.827 43.2727C129.827 44.5057 130.009 45.5455 130.372 46.392C130.741 47.2386 131.259 47.8807 131.923 48.3182C132.588 48.7557 133.366 48.9744 134.259 48.9744C135.151 48.9744 135.929 48.7557 136.594 48.3182C137.259 47.8807 137.773 47.2386 138.136 46.392C138.506 45.5455 138.69 44.5057 138.69 43.2727ZM145.165 52V34.5455H152.052C153.37 34.5455 154.495 34.7812 155.427 35.2528C156.364 35.7187 157.077 36.3807 157.566 37.2386C158.06 38.0909 158.308 39.0937 158.308 40.2472C158.308 41.4062 158.058 42.4034 157.558 43.2386C157.058 44.0682 156.333 44.7045 155.384 45.1477C154.441 45.5909 153.299 45.8125 151.958 45.8125H147.347V42.8466H151.362C152.066 42.8466 152.651 42.75 153.117 42.5568C153.583 42.3636 153.93 42.0739 154.157 41.6875C154.39 41.3011 154.506 40.821 154.506 40.2472C154.506 39.6676 154.39 39.179 154.157 38.7812C153.93 38.3835 153.58 38.0824 153.109 37.8778C152.643 37.6676 152.055 37.5625 151.344 37.5625H148.856V52H145.165ZM154.592 44.0568L158.93 52H154.856L150.612 44.0568H154.592ZM170.384 39.5653C170.316 38.8778 170.023 38.3437 169.506 37.9631C168.989 37.5824 168.288 37.392 167.401 37.392C166.799 37.392 166.29 37.4773 165.876 37.6477C165.461 37.8125 165.143 38.0426 164.921 38.3381C164.705 38.6335 164.597 38.9688 164.597 39.3438C164.586 39.6562 164.651 39.929 164.793 40.1619C164.941 40.3949 165.143 40.5966 165.398 40.767C165.654 40.9318 165.95 41.0767 166.285 41.2017C166.62 41.321 166.978 41.4233 167.359 41.5085L168.927 41.8835C169.688 42.054 170.387 42.2812 171.023 42.5653C171.66 42.8494 172.211 43.1989 172.677 43.6136C173.143 44.0284 173.504 44.517 173.759 45.0795C174.021 45.642 174.154 46.2869 174.16 47.0142C174.154 48.0824 173.881 49.0085 173.342 49.7926C172.808 50.571 172.035 51.1761 171.023 51.608C170.018 52.0341 168.805 52.2472 167.384 52.2472C165.975 52.2472 164.748 52.0312 163.702 51.5994C162.663 51.1676 161.85 50.5284 161.265 49.6818C160.685 48.8295 160.381 47.7756 160.353 46.5199H163.924C163.964 47.1051 164.131 47.5937 164.427 47.9858C164.728 48.3722 165.129 48.6648 165.629 48.8636C166.134 49.0568 166.705 49.1534 167.342 49.1534C167.967 49.1534 168.509 49.0625 168.969 48.8807C169.435 48.6989 169.796 48.446 170.052 48.1222C170.308 47.7983 170.435 47.4261 170.435 47.0057C170.435 46.6136 170.319 46.2841 170.086 46.017C169.859 45.75 169.523 45.5227 169.08 45.3352C168.643 45.1477 168.106 44.9773 167.469 44.8239L165.569 44.3466C164.097 43.9886 162.935 43.429 162.083 42.6676C161.231 41.9062 160.808 40.8807 160.813 39.5909C160.808 38.5341 161.089 37.6108 161.657 36.821C162.231 36.0312 163.018 35.4148 164.018 34.9716C165.018 34.5284 166.154 34.3068 167.427 34.3068C168.722 34.3068 169.853 34.5284 170.819 34.9716C171.79 35.4148 172.546 36.0312 173.086 36.821C173.626 37.6108 173.904 38.5256 173.921 39.5653H170.384ZM176.642 52V34.5455H188.403V37.5881H180.332V41.7472H187.798V44.7898H180.332V48.9574H188.438V52H176.642ZM197.9 52V49.8097L206.61 37.5881H197.883V34.5455H211.246V36.7358L202.528 48.9574H211.263V52H197.9ZM214.095 52V34.5455H225.857V37.5881H217.786V41.7472H225.251V44.7898H217.786V48.9574H225.891V52H214.095ZM229.387 52V34.5455H235.489C236.705 34.5455 237.708 34.7557 238.498 35.1761C239.288 35.5909 239.876 36.1506 240.262 36.8551C240.648 37.554 240.842 38.3295 240.842 39.1818C240.842 39.9318 240.708 40.5511 240.441 41.0398C240.18 41.5284 239.833 41.9148 239.401 42.1989C238.975 42.483 238.512 42.6932 238.012 42.8295V43C238.546 43.0341 239.083 43.2216 239.623 43.5625C240.163 43.9034 240.614 44.392 240.978 45.0284C241.342 45.6648 241.523 46.4432 241.523 47.3636C241.523 48.2386 241.325 49.0256 240.927 49.7244C240.529 50.4233 239.901 50.9773 239.043 51.3864C238.185 51.7955 237.069 52 235.694 52H229.387ZM231.501 50.125H235.694C237.075 50.125 238.055 49.858 238.634 49.3239C239.219 48.7841 239.512 48.1307 239.512 47.3636C239.512 46.7727 239.362 46.2273 239.06 45.7273C238.759 45.2216 238.33 44.8182 237.773 44.517C237.217 44.2102 236.558 44.0568 235.796 44.0568H231.501V50.125ZM231.501 42.2159H235.421C236.058 42.2159 236.631 42.0909 237.143 41.8409C237.66 41.5909 238.069 41.2386 238.37 40.7841C238.677 40.3295 238.83 39.7955 238.83 39.1818C238.83 38.4148 238.563 37.7642 238.029 37.2301C237.495 36.6903 236.648 36.4205 235.489 36.4205H231.501V42.2159ZM244.996 52V34.5455H250.894C252.258 34.5455 253.377 34.7784 254.252 35.2443C255.127 35.7045 255.775 36.3381 256.195 37.1449C256.616 37.9517 256.826 38.8693 256.826 39.8977C256.826 40.9261 256.616 41.8381 256.195 42.6335C255.775 43.429 255.13 44.054 254.261 44.5085C253.391 44.9574 252.281 45.1818 250.928 45.1818H246.156V43.2727H250.86C251.792 43.2727 252.542 43.1364 253.11 42.8636C253.684 42.5909 254.099 42.2045 254.354 41.7045C254.616 41.1989 254.746 40.5966 254.746 39.8977C254.746 39.1989 254.616 38.5881 254.354 38.0653C254.093 37.5426 253.675 37.1392 253.102 36.8551C252.528 36.5653 251.769 36.4205 250.826 36.4205H247.11V52H244.996ZM253.212 44.1591L257.508 52H255.053L250.826 44.1591H253.212ZM261.064 52H258.848L265.257 34.5455H267.439L273.848 52H271.632L266.416 37.3068H266.28L261.064 52ZM261.882 45.1818H270.814V47.0568H261.882V45.1818ZM297.32 34.5455V52H294.132L286.538 41.0142H286.411V52H282.72V34.5455H285.959L293.493 45.5227H293.646V34.5455H297.32ZM300.369 52V34.5455H312.13V37.5881H304.059V41.7472H311.525V44.7898H304.059V48.9574H312.164V52H300.369ZM318.993 52L313.999 34.5455H318.03L320.919 46.6733H321.064L324.251 34.5455H327.703L330.882 46.6989H331.036L333.925 34.5455H337.956L332.962 52H329.365L326.041 40.5881H325.905L322.589 52H318.993Z" fill="#505050" fill-opacity="0.5"/>
<path d="M0.852273 66.5881V63.5455H15.1875V66.5881H9.84375V81H6.19602V66.5881H0.852273ZM17.5483 81V63.5455H24.4347C25.7528 63.5455 26.8778 63.7812 27.8097 64.2528C28.7472 64.7187 29.4602 65.3807 29.9489 66.2386C30.4432 67.0909 30.6903 68.0937 30.6903 69.2472C30.6903 70.4062 30.4403 71.4034 29.9403 72.2386C29.4403 73.0682 28.7159 73.7045 27.767 74.1477C26.8239 74.5909 25.6818 74.8125 24.3409 74.8125H19.7301V71.8466H23.7443C24.4489 71.8466 25.0341 71.75 25.5 71.5568C25.9659 71.3636 26.3125 71.0739 26.5398 70.6875C26.7727 70.3011 26.8892 69.821 26.8892 69.2472C26.8892 68.6676 26.7727 68.179 26.5398 67.7812C26.3125 67.3835 25.9631 67.0824 25.4915 66.8778C25.0256 66.6676 24.4375 66.5625 23.7273 66.5625H21.2386V81H17.5483ZM26.9744 73.0568L31.3125 81H27.2386L22.9943 73.0568H26.9744ZM36.3068 81H32.3523L38.3778 63.5455H43.1335L49.1506 81H45.196L40.8239 67.5341H40.6875L36.3068 81ZM36.0597 74.1392H45.4006V77.0199H36.0597V74.1392ZM51.2514 81V63.5455H62.8082V66.5881H54.9418V70.7472H62.0412V73.7898H54.9418V81H51.2514ZM65.8871 81V63.5455H76.353V65.4205H68.0007V71.3182H75.5689V73.1932H68.0007V81H65.8871ZM82.0866 63.5455V81H79.973V63.5455H82.0866ZM100.37 69H98.2564C98.1314 68.392 97.9126 67.858 97.6001 67.3977C97.2933 66.9375 96.9183 66.5511 96.4751 66.2386C96.0376 65.9205 95.5518 65.6818 95.0178 65.5227C94.4837 65.3636 93.9268 65.2841 93.3473 65.2841C92.2905 65.2841 91.3331 65.5511 90.4751 66.0852C89.6229 66.6193 88.9439 67.4062 88.4382 68.446C87.9382 69.4858 87.6882 70.7614 87.6882 72.2727C87.6882 73.7841 87.9382 75.0597 88.4382 76.0994C88.9439 77.1392 89.6229 77.9261 90.4751 78.4602C91.3331 78.9943 92.2905 79.2614 93.3473 79.2614C93.9268 79.2614 94.4837 79.1818 95.0178 79.0227C95.5518 78.8636 96.0376 78.6278 96.4751 78.3153C96.9183 77.9972 97.2933 77.608 97.6001 77.1477C97.9126 76.6818 98.1314 76.1477 98.2564 75.5455H100.37C100.211 76.4375 99.9212 77.2358 99.5007 77.9403C99.0803 78.6449 98.5575 79.2443 97.9325 79.7386C97.3075 80.2273 96.6058 80.5994 95.8274 80.8551C95.0547 81.1108 94.228 81.2386 93.3473 81.2386C91.8587 81.2386 90.5348 80.875 89.3757 80.1477C88.2166 79.4205 87.3047 78.3864 86.6399 77.0455C85.9751 75.7045 85.6428 74.1136 85.6428 72.2727C85.6428 70.4318 85.9751 68.8409 86.6399 67.5C87.3047 66.1591 88.2166 65.125 89.3757 64.3977C90.5348 63.6705 91.8587 63.3068 93.3473 63.3068C94.228 63.3068 95.0547 63.4347 95.8274 63.6903C96.6058 63.946 97.3075 64.321 97.9325 64.8153C98.5575 65.304 99.0803 65.9006 99.5007 66.6051C99.9212 67.304 100.211 68.1023 100.37 69ZM109.939 81V63.5455H113.629V77.9574H121.112V81H109.939ZM127.246 63.5455V81H123.556V63.5455H127.246ZM141.857 69.1875C141.737 68.7727 141.57 68.4062 141.354 68.0881C141.138 67.7642 140.874 67.4915 140.561 67.2699C140.254 67.0426 139.902 66.8693 139.504 66.75C139.112 66.6307 138.678 66.571 138.2 66.571C137.308 66.571 136.524 66.7926 135.848 67.2358C135.178 67.679 134.655 68.3239 134.28 69.1705C133.905 70.0114 133.717 71.0398 133.717 72.2557C133.717 73.4716 133.902 74.5057 134.271 75.358C134.641 76.2102 135.163 76.8608 135.839 77.3097C136.516 77.7528 137.314 77.9744 138.234 77.9744C139.07 77.9744 139.783 77.8267 140.374 77.5312C140.97 77.2301 141.425 76.8068 141.737 76.2614C142.055 75.7159 142.214 75.071 142.214 74.3267L142.964 74.4375H138.464V71.6591H145.768V73.858C145.768 75.392 145.445 76.7102 144.797 77.8125C144.149 78.9091 143.257 79.7557 142.121 80.3523C140.984 80.9432 139.683 81.2386 138.217 81.2386C136.581 81.2386 135.143 80.8778 133.905 80.1562C132.666 79.429 131.7 78.3977 131.007 77.0625C130.32 75.7216 129.976 74.1307 129.976 72.2898C129.976 70.875 130.18 69.6136 130.589 68.5057C131.004 67.392 131.584 66.4489 132.328 65.6761C133.072 64.9034 133.939 64.3153 134.928 63.9119C135.916 63.5085 136.987 63.3068 138.141 63.3068C139.129 63.3068 140.05 63.4517 140.902 63.7415C141.754 64.0256 142.51 64.429 143.169 64.9517C143.834 65.4744 144.376 66.0966 144.797 66.8182C145.217 67.5341 145.487 68.3239 145.607 69.1875H141.857ZM148.54 81V63.5455H152.231V70.7472H159.722V63.5455H163.404V81H159.722V73.7898H152.231V81H148.54ZM165.782 66.5881V63.5455H180.117V66.5881H174.773V81H171.126V66.5881H165.782ZM191.947 68.5653C191.879 67.8778 191.586 67.3437 191.069 66.9631C190.552 66.5824 189.85 66.392 188.964 66.392C188.362 66.392 187.853 66.4773 187.438 66.6477C187.023 66.8125 186.705 67.0426 186.484 67.3381C186.268 67.6335 186.16 67.9688 186.16 68.3438C186.148 68.6562 186.214 68.929 186.356 69.1619C186.504 69.3949 186.705 69.5966 186.961 69.767C187.217 69.9318 187.512 70.0767 187.847 70.2017C188.183 70.321 188.54 70.4233 188.921 70.5085L190.489 70.8835C191.251 71.054 191.95 71.2812 192.586 71.5653C193.222 71.8494 193.773 72.1989 194.239 72.6136C194.705 73.0284 195.066 73.517 195.322 74.0795C195.583 74.642 195.717 75.2869 195.722 76.0142C195.717 77.0824 195.444 78.0085 194.904 78.7926C194.37 79.571 193.597 80.1761 192.586 80.608C191.58 81.0341 190.367 81.2472 188.947 81.2472C187.538 81.2472 186.31 81.0312 185.265 80.5994C184.225 80.1676 183.413 79.5284 182.827 78.6818C182.248 77.8295 181.944 76.7756 181.915 75.5199H185.487C185.526 76.1051 185.694 76.5937 185.989 76.9858C186.29 77.3722 186.691 77.6648 187.191 77.8636C187.697 78.0568 188.268 78.1534 188.904 78.1534C189.529 78.1534 190.072 78.0625 190.532 77.8807C190.998 77.6989 191.359 77.446 191.614 77.1222C191.87 76.7983 191.998 76.4261 191.998 76.0057C191.998 75.6136 191.881 75.2841 191.648 75.017C191.421 74.75 191.086 74.5227 190.643 74.3352C190.205 74.1477 189.668 73.9773 189.032 73.8239L187.131 73.3466C185.66 72.9886 184.498 72.429 183.646 71.6676C182.793 70.9062 182.37 69.8807 182.376 68.5909C182.37 67.5341 182.651 66.6108 183.219 65.821C183.793 65.0312 184.58 64.4148 185.58 63.9716C186.58 63.5284 187.717 63.3068 188.989 63.3068C190.285 63.3068 191.415 63.5284 192.381 63.9716C193.353 64.4148 194.109 65.0312 194.648 65.821C195.188 66.6108 195.467 67.5256 195.484 68.5653H191.947ZM204.955 81V63.5455H208.645V77.9574H216.128V81H204.955ZM229.353 63.5455H233.043V74.8807C233.043 76.1534 232.739 77.267 232.131 78.2216C231.529 79.1761 230.685 79.9205 229.6 80.4545C228.515 80.983 227.251 81.2472 225.808 81.2472C224.359 81.2472 223.092 80.983 222.006 80.4545C220.921 79.9205 220.077 79.1761 219.475 78.2216C218.873 77.267 218.572 76.1534 218.572 74.8807V63.5455H222.262V74.5653C222.262 75.2301 222.407 75.821 222.697 76.3381C222.992 76.8551 223.407 77.2614 223.941 77.5568C224.475 77.8523 225.097 78 225.808 78C226.523 78 227.146 77.8523 227.674 77.5568C228.208 77.2614 228.62 76.8551 228.91 76.3381C229.205 75.821 229.353 75.2301 229.353 74.5653V63.5455ZM236.08 81V63.5455H239.77V70.7472H247.261V63.5455H250.943V81H247.261V73.7898H239.77V81H236.08ZM260.736 81V63.5455H264.426V77.9574H271.909V81H260.736ZM277.807 81H273.852L279.878 63.5455H284.634L290.651 81H286.696L282.324 67.5341H282.188L277.807 81ZM277.56 74.1392H286.901V77.0199H277.56V74.1392ZM292.751 81V63.5455H296.442V70.7472H303.933V63.5455H307.615V81H303.933V73.7898H296.442V81H292.751ZM315.548 66.5881V63.5455H329.883V66.5881H324.539V81H320.891V66.5881H315.548ZM332.244 81V63.5455H339.13C340.448 63.5455 341.573 63.7812 342.505 64.2528C343.442 64.7187 344.156 65.3807 344.644 66.2386C345.138 67.0909 345.386 68.0937 345.386 69.2472C345.386 70.4062 345.136 71.4034 344.636 72.2386C344.136 73.0682 343.411 73.7045 342.462 74.1477C341.519 74.5909 340.377 74.8125 339.036 74.8125H334.425V71.8466H338.44C339.144 71.8466 339.729 71.75 340.195 71.5568C340.661 71.3636 341.008 71.0739 341.235 70.6875C341.468 70.3011 341.585 69.821 341.585 69.2472C341.585 68.6676 341.468 68.179 341.235 67.7812C341.008 67.3835 340.658 67.0824 340.187 66.8778C339.721 66.6676 339.133 66.5625 338.423 66.5625H335.934V81H332.244ZM341.67 73.0568L346.008 81H341.934L337.69 73.0568H341.67ZM351.002 81H347.048L353.073 63.5455H357.829L363.846 81H359.891L355.519 67.5341H355.383L351.002 81ZM350.755 74.1392H360.096V77.0199H350.755V74.1392Z" fill="#505050" fill-opacity="0.5"/>
<path d="M5.44602 110L0.451705 92.5455H4.48295L7.37216 104.673H7.51705L10.7045 92.5455H14.1562L17.3352 104.699H17.4886L20.3778 92.5455H24.4091L19.4148 110H15.8182L12.4943 98.5881H12.358L9.04261 110H5.44602ZM27.6349 110H23.6804L29.706 92.5455H34.4616L40.4787 110H36.5241L32.152 96.5341H32.0156L27.6349 110ZM27.3878 103.139H36.7287V106.02H27.3878V103.139ZM51.6499 97.5653C51.5817 96.8778 51.2891 96.3437 50.772 95.9631C50.255 95.5824 49.5533 95.392 48.6669 95.392C48.0646 95.392 47.5561 95.4773 47.1413 95.6477C46.7266 95.8125 46.4084 96.0426 46.1868 96.3381C45.9709 96.6335 45.8629 96.9688 45.8629 97.3438C45.8516 97.6562 45.9169 97.929 46.0589 98.1619C46.2067 98.3949 46.4084 98.5966 46.6641 98.767C46.9197 98.9318 47.2152 99.0767 47.5504 99.2017C47.8857 99.321 48.2436 99.4233 48.6243 99.5085L50.1925 99.8835C50.9538 100.054 51.6527 100.281 52.2891 100.565C52.9254 100.849 53.4766 101.199 53.9425 101.614C54.4084 102.028 54.7692 102.517 55.0249 103.08C55.2862 103.642 55.4197 104.287 55.4254 105.014C55.4197 106.082 55.147 107.009 54.6072 107.793C54.0732 108.571 53.3004 109.176 52.2891 109.608C51.2834 110.034 50.0703 110.247 48.6499 110.247C47.2408 110.247 46.0135 110.031 44.968 109.599C43.9283 109.168 43.1158 108.528 42.5305 107.682C41.951 106.83 41.647 105.776 41.6186 104.52H45.1896C45.2294 105.105 45.397 105.594 45.6925 105.986C45.9936 106.372 46.3942 106.665 46.8942 106.864C47.3999 107.057 47.9709 107.153 48.6072 107.153C49.2322 107.153 49.7749 107.062 50.2351 106.881C50.701 106.699 51.0618 106.446 51.3175 106.122C51.5732 105.798 51.701 105.426 51.701 105.006C51.701 104.614 51.5845 104.284 51.3516 104.017C51.1243 103.75 50.7891 103.523 50.3459 103.335C49.9084 103.148 49.3714 102.977 48.7351 102.824L46.8345 102.347C45.3629 101.989 44.201 101.429 43.3487 100.668C42.4964 99.9062 42.0732 98.8807 42.0788 97.5909C42.0732 96.5341 42.3544 95.6108 42.9226 94.821C43.4964 94.0312 44.2834 93.4148 45.2834 92.9716C46.2834 92.5284 47.4197 92.3068 48.6925 92.3068C49.9879 92.3068 51.1186 92.5284 52.0845 92.9716C53.0561 93.4148 53.8118 94.0312 54.3516 94.821C54.8913 95.6108 55.1697 96.5256 55.1868 97.5653H51.6499ZM57.9077 110V92.5455H61.598V99.7472H69.0895V92.5455H72.7713V110H69.0895V102.79H61.598V110H57.9077ZM81.8991 95.5881V92.5455H96.2344V95.5881H90.8906V110H87.2429V95.5881H81.8991ZM98.5952 110V92.5455H105.482C106.8 92.5455 107.925 92.7812 108.857 93.2528C109.794 93.7187 110.507 94.3807 110.996 95.2386C111.49 96.0909 111.737 97.0937 111.737 98.2472C111.737 99.4062 111.487 100.403 110.987 101.239C110.487 102.068 109.763 102.705 108.814 103.148C107.871 103.591 106.729 103.812 105.388 103.812H100.777V100.847H104.791C105.496 100.847 106.081 100.75 106.547 100.557C107.013 100.364 107.359 100.074 107.587 99.6875C107.82 99.3011 107.936 98.821 107.936 98.2472C107.936 97.6676 107.82 97.179 107.587 96.7812C107.359 96.3835 107.01 96.0824 106.538 95.8778C106.072 95.6676 105.484 95.5625 104.774 95.5625H102.286V110H98.5952ZM108.021 102.057L112.359 110H108.286L104.041 102.057H108.021ZM130.385 101.273C130.385 103.176 130.024 104.795 129.303 106.131C128.587 107.466 127.609 108.486 126.371 109.19C125.138 109.889 123.751 110.239 122.212 110.239C120.661 110.239 119.268 109.886 118.036 109.182C116.803 108.477 115.828 107.457 115.112 106.122C114.396 104.787 114.038 103.17 114.038 101.273C114.038 99.3693 114.396 97.75 115.112 96.4148C115.828 95.0795 116.803 94.0625 118.036 93.3636C119.268 92.6591 120.661 92.3068 122.212 92.3068C123.751 92.3068 125.138 92.6591 126.371 93.3636C127.609 94.0625 128.587 95.0795 129.303 96.4148C130.024 97.75 130.385 99.3693 130.385 101.273ZM126.643 101.273C126.643 100.04 126.459 99 126.089 98.1534C125.726 97.3068 125.212 96.6648 124.547 96.2273C123.882 95.7898 123.104 95.571 122.212 95.571C121.32 95.571 120.541 95.7898 119.876 96.2273C119.212 96.6648 118.695 97.3068 118.325 98.1534C117.962 99 117.78 100.04 117.78 101.273C117.78 102.506 117.962 103.545 118.325 104.392C118.695 105.239 119.212 105.881 119.876 106.318C120.541 106.756 121.32 106.974 122.212 106.974C123.104 106.974 123.882 106.756 124.547 106.318C125.212 105.881 125.726 105.239 126.089 104.392C126.459 103.545 126.643 102.506 126.643 101.273ZM133.119 110V92.5455H136.809V106.957H144.292V110H133.119ZM147.332 110V92.5455H149.446V108.125H157.56V110H147.332ZM160.832 110V92.5455H171.366V94.4205H162.946V100.318H170.821V102.193H162.946V108.125H171.503V110H160.832ZM173.676 92.5455H176.097L180.938 100.693H181.142L185.983 92.5455H188.403L182.097 102.807V110H179.983V102.807L173.676 92.5455ZM200.683 96.9091C200.58 96.0455 200.165 95.375 199.438 94.8977C198.711 94.4205 197.819 94.1818 196.762 94.1818C195.989 94.1818 195.313 94.3068 194.734 94.5568C194.16 94.8068 193.711 95.1506 193.387 95.5881C193.069 96.0256 192.91 96.5227 192.91 97.0795C192.91 97.5455 193.021 97.946 193.242 98.2812C193.469 98.6108 193.759 98.8864 194.112 99.108C194.464 99.3239 194.833 99.5028 195.219 99.6449C195.606 99.7812 195.961 99.892 196.285 99.9773L198.058 100.455C198.512 100.574 199.018 100.739 199.575 100.949C200.137 101.159 200.674 101.446 201.185 101.81C201.702 102.168 202.129 102.628 202.464 103.19C202.799 103.753 202.967 104.443 202.967 105.261C202.967 106.205 202.719 107.057 202.225 107.818C201.737 108.58 201.021 109.185 200.077 109.634C199.14 110.082 198.001 110.307 196.66 110.307C195.41 110.307 194.327 110.105 193.413 109.702C192.504 109.298 191.788 108.736 191.265 108.014C190.748 107.293 190.455 106.455 190.387 105.5H192.569C192.626 106.159 192.847 106.705 193.234 107.136C193.626 107.562 194.12 107.881 194.717 108.091C195.319 108.295 195.967 108.398 196.66 108.398C197.467 108.398 198.191 108.267 198.833 108.006C199.475 107.739 199.984 107.369 200.359 106.898C200.734 106.42 200.921 105.864 200.921 105.227C200.921 104.648 200.759 104.176 200.435 103.812C200.112 103.449 199.685 103.153 199.157 102.926C198.629 102.699 198.058 102.5 197.444 102.33L195.296 101.716C193.933 101.324 192.853 100.764 192.058 100.037C191.262 99.3097 190.864 98.358 190.864 97.1818C190.864 96.2045 191.129 95.3523 191.657 94.625C192.191 93.892 192.907 93.3239 193.805 92.9205C194.708 92.5114 195.717 92.3068 196.83 92.3068C197.955 92.3068 198.955 92.5085 199.83 92.9119C200.705 93.3097 201.398 93.8551 201.91 94.5483C202.427 95.2415 202.7 96.0284 202.728 96.9091H200.683ZM212.595 110V92.5455H224.357V95.5881H216.286V99.7472H223.751V102.79H216.286V106.957H224.391V110H212.595ZM226.268 92.5455H230.401L234.381 100.062H234.552L238.532 92.5455H242.665L236.299 103.83V110H232.634V103.83L226.268 92.5455ZM244.681 110V92.5455H256.442V95.5881H248.371V99.7472H255.837V102.79H248.371V106.957H256.477V110H244.681ZM268.845 97.5653C268.777 96.8778 268.484 96.3437 267.967 95.9631C267.45 95.5824 266.749 95.392 265.862 95.392C265.26 95.392 264.751 95.4773 264.337 95.6477C263.922 95.8125 263.604 96.0426 263.382 96.3381C263.166 96.6335 263.058 96.9688 263.058 97.3438C263.047 97.6562 263.112 97.929 263.254 98.1619C263.402 98.3949 263.604 98.5966 263.859 98.767C264.115 98.9318 264.411 99.0767 264.746 99.2017C265.081 99.321 265.439 99.4233 265.82 99.5085L267.388 99.8835C268.149 100.054 268.848 100.281 269.484 100.565C270.121 100.849 270.672 101.199 271.138 101.614C271.604 102.028 271.964 102.517 272.22 103.08C272.482 103.642 272.615 104.287 272.621 105.014C272.615 106.082 272.342 107.009 271.803 107.793C271.268 108.571 270.496 109.176 269.484 109.608C268.479 110.034 267.266 110.247 265.845 110.247C264.436 110.247 263.209 110.031 262.163 109.599C261.124 109.168 260.311 108.528 259.726 107.682C259.146 106.83 258.842 105.776 258.814 104.52H262.385C262.425 105.105 262.592 105.594 262.888 105.986C263.189 106.372 263.589 106.665 264.089 106.864C264.595 107.057 265.166 107.153 265.803 107.153C266.428 107.153 266.97 107.062 267.43 106.881C267.896 106.699 268.257 106.446 268.513 106.122C268.768 105.798 268.896 105.426 268.896 105.006C268.896 104.614 268.78 104.284 268.547 104.017C268.32 103.75 267.984 103.523 267.541 103.335C267.104 103.148 266.567 102.977 265.93 102.824L264.03 102.347C262.558 101.989 261.396 101.429 260.544 100.668C259.692 99.9062 259.268 98.8807 259.274 97.5909C259.268 96.5341 259.55 95.6108 260.118 94.821C260.692 94.0312 261.479 93.4148 262.479 92.9716C263.479 92.5284 264.615 92.3068 265.888 92.3068C267.183 92.3068 268.314 92.5284 269.28 92.9716C270.251 93.4148 271.007 94.0312 271.547 94.821C272.087 95.6108 272.365 96.5256 272.382 97.5653H268.845ZM297.254 98.6562H293.521C293.452 98.1733 293.313 97.7443 293.103 97.3693C292.893 96.9886 292.623 96.6648 292.293 96.3977C291.964 96.1307 291.583 95.9261 291.151 95.7841C290.725 95.642 290.262 95.571 289.762 95.571C288.859 95.571 288.072 95.7955 287.401 96.2443C286.731 96.6875 286.211 97.3352 285.842 98.1875C285.472 99.0341 285.288 100.062 285.288 101.273C285.288 102.517 285.472 103.562 285.842 104.409C286.217 105.256 286.739 105.895 287.41 106.327C288.08 106.759 288.856 106.974 289.737 106.974C290.231 106.974 290.688 106.909 291.109 106.778C291.535 106.648 291.913 106.457 292.242 106.207C292.572 105.952 292.844 105.642 293.06 105.278C293.282 104.915 293.435 104.5 293.521 104.034L297.254 104.051C297.157 104.852 296.915 105.625 296.529 106.369C296.148 107.108 295.634 107.77 294.987 108.355C294.344 108.935 293.577 109.395 292.685 109.736C291.799 110.071 290.796 110.239 289.677 110.239C288.12 110.239 286.728 109.886 285.501 109.182C284.279 108.477 283.313 107.457 282.603 106.122C281.898 104.787 281.546 103.17 281.546 101.273C281.546 99.3693 281.904 97.75 282.62 96.4148C283.336 95.0795 284.308 94.0625 285.535 93.3636C286.762 92.6591 288.143 92.3068 289.677 92.3068C290.688 92.3068 291.626 92.4489 292.489 92.733C293.359 93.017 294.129 93.4318 294.799 93.9773C295.469 94.517 296.015 95.179 296.435 95.9631C296.862 96.7472 297.134 97.6449 297.254 98.6562ZM303.59 92.5455V110H299.9V92.5455H303.59ZM305.962 95.5881V92.5455H320.297V95.5881H314.953V110H311.305V95.5881H305.962ZM325.368 92.5455V110H323.254V92.5455H325.368ZM329.026 110V108.466L338.435 94.4205H328.924V92.5455H340.958V94.0795L331.549 108.125H341.06V110H329.026ZM344.606 110V92.5455H355.14V94.4205H346.719V100.318H354.594V102.193H346.719V108.125H355.276V110H344.606Z" fill="#505050" fill-opacity="0.5"/>
<path d="M7.77273 130.273C7.70455 129.697 7.42803 129.25 6.94318 128.932C6.45833 128.614 5.86364 128.455 5.15909 128.455C4.64394 128.455 4.19318 128.538 3.80682 128.705C3.42424 128.871 3.125 129.1 2.90909 129.392C2.69697 129.684 2.59091 130.015 2.59091 130.386C2.59091 130.697 2.66477 130.964 2.8125 131.188C2.96402 131.407 3.1572 131.591 3.39205 131.739C3.62689 131.883 3.87311 132.002 4.13068 132.097C4.38826 132.187 4.625 132.261 4.84091 132.318L6.02273 132.636C6.32576 132.716 6.66288 132.826 7.03409 132.966C7.40909 133.106 7.76705 133.297 8.10795 133.54C8.45265 133.778 8.73674 134.085 8.96023 134.46C9.18371 134.835 9.29545 135.295 9.29545 135.841C9.29545 136.47 9.13068 137.038 8.80114 137.545C8.47538 138.053 7.99811 138.456 7.36932 138.756C6.74432 139.055 5.98485 139.205 5.09091 139.205C4.25758 139.205 3.53598 139.07 2.92614 138.801C2.32008 138.532 1.8428 138.157 1.49432 137.676C1.14962 137.195 0.954545 136.636 0.909091 136H2.36364C2.40152 136.439 2.54924 136.803 2.80682 137.091C3.06818 137.375 3.39773 137.587 3.79545 137.727C4.19697 137.864 4.62879 137.932 5.09091 137.932C5.62879 137.932 6.11174 137.845 6.53977 137.67C6.9678 137.492 7.30682 137.246 7.55682 136.932C7.80682 136.614 7.93182 136.242 7.93182 135.818C7.93182 135.432 7.82386 135.117 7.60795 134.875C7.39205 134.633 7.10795 134.436 6.75568 134.284C6.40341 134.133 6.02273 134 5.61364 133.886L4.18182 133.477C3.27273 133.216 2.55303 132.843 2.02273 132.358C1.49242 131.873 1.22727 131.239 1.22727 130.455C1.22727 129.803 1.40341 129.235 1.75568 128.75C2.11174 128.261 2.58902 127.883 3.1875 127.614C3.78977 127.341 4.46212 127.205 5.20455 127.205C5.95455 127.205 6.62121 127.339 7.20455 127.608C7.78788 127.873 8.25 128.237 8.59091 128.699C8.93561 129.161 9.11742 129.686 9.13636 130.273H7.77273ZM12.0895 139H10.6122L14.8849 127.364H16.3395L20.6122 139H19.1349L15.6577 129.205H15.5668L12.0895 139ZM12.6349 134.455H18.5895V135.705H12.6349V134.455ZM29.8324 131C29.7074 130.617 29.5426 130.275 29.3381 129.972C29.1373 129.665 28.8968 129.403 28.6165 129.188C28.34 128.972 28.0256 128.807 27.6733 128.693C27.321 128.58 26.9347 128.523 26.5142 128.523C25.8248 128.523 25.1979 128.701 24.6335 129.057C24.0691 129.413 23.6203 129.938 23.2869 130.631C22.9536 131.324 22.7869 132.174 22.7869 133.182C22.7869 134.189 22.9555 135.04 23.2926 135.733C23.6297 136.426 24.0862 136.951 24.6619 137.307C25.2377 137.663 25.8854 137.841 26.6051 137.841C27.2718 137.841 27.8589 137.699 28.3665 137.415C28.8778 137.127 29.2756 136.722 29.5597 136.199C29.8475 135.672 29.9915 135.053 29.9915 134.341L30.4233 134.432H26.9233V133.182H31.3551V134.432C31.3551 135.39 31.1506 136.223 30.7415 136.932C30.3362 137.64 29.7756 138.189 29.0597 138.58C28.3475 138.966 27.5294 139.159 26.6051 139.159C25.5748 139.159 24.6695 138.917 23.8892 138.432C23.1127 137.947 22.5066 137.258 22.071 136.364C21.6392 135.47 21.4233 134.409 21.4233 133.182C21.4233 132.261 21.5464 131.434 21.7926 130.699C22.0426 129.96 22.3949 129.331 22.8494 128.812C23.304 128.294 23.8419 127.896 24.4631 127.619C25.0843 127.343 25.768 127.205 26.5142 127.205C27.1278 127.205 27.6998 127.297 28.2301 127.483C28.7642 127.665 29.2396 127.924 29.6562 128.261C30.0767 128.595 30.4271 128.994 30.7074 129.46C30.9877 129.922 31.1809 130.436 31.2869 131H29.8324ZM33.7685 139V127.364H40.7912V128.614H35.1776V132.545H40.4276V133.795H35.1776V137.75H40.8821V139H33.7685ZM49.9446 139L46.7628 127.364H48.1946L50.6264 136.841H50.7401L53.2173 127.364H54.8082L57.2855 136.841H57.3991L59.831 127.364H61.2628L58.081 139H56.6264L54.0582 129.727H53.9673L51.3991 139H49.9446ZM62.5895 139H61.1122L65.3849 127.364H66.8395L71.1122 139H69.6349L66.1577 129.205H66.0668L62.5895 139ZM63.1349 134.455H69.0895V135.705H63.1349V134.455ZM80.3324 131C80.2074 130.617 80.0426 130.275 79.8381 129.972C79.6373 129.665 79.3968 129.403 79.1165 129.188C78.84 128.972 78.5256 128.807 78.1733 128.693C77.821 128.58 77.4347 128.523 77.0142 128.523C76.3248 128.523 75.6979 128.701 75.1335 129.057C74.5691 129.413 74.1203 129.938 73.7869 130.631C73.4536 131.324 73.2869 132.174 73.2869 133.182C73.2869 134.189 73.4555 135.04 73.7926 135.733C74.1297 136.426 74.5862 136.951 75.1619 137.307C75.7377 137.663 76.3854 137.841 77.1051 137.841C77.7718 137.841 78.3589 137.699 78.8665 137.415C79.3778 137.127 79.7756 136.722 80.0597 136.199C80.3475 135.672 80.4915 135.053 80.4915 134.341L80.9233 134.432H77.4233V133.182H81.8551V134.432C81.8551 135.39 81.6506 136.223 81.2415 136.932C80.8362 137.64 80.2756 138.189 79.5597 138.58C78.8475 138.966 78.0294 139.159 77.1051 139.159C76.0748 139.159 75.1695 138.917 74.3892 138.432C73.6127 137.947 73.0066 137.258 72.571 136.364C72.1392 135.47 71.9233 134.409 71.9233 133.182C71.9233 132.261 72.0464 131.434 72.2926 130.699C72.5426 129.96 72.8949 129.331 73.3494 128.812C73.804 128.294 74.3419 127.896 74.9631 127.619C75.5843 127.343 76.268 127.205 77.0142 127.205C77.6278 127.205 78.1998 127.297 78.7301 127.483C79.2642 127.665 79.7396 127.924 80.1562 128.261C80.5767 128.595 80.9271 128.994 81.2074 129.46C81.4877 129.922 81.6809 130.436 81.7869 131H80.3324ZM84.2685 139V127.364H91.2912V128.614H85.6776V132.545H90.9276V133.795H85.6776V137.75H91.3821V139H84.2685ZM98.331 139V127.364H99.7401V137.75H105.149V139H98.331ZM116.696 133.182C116.696 134.409 116.474 135.47 116.031 136.364C115.588 137.258 114.98 137.947 114.207 138.432C113.435 138.917 112.552 139.159 111.56 139.159C110.567 139.159 109.685 138.917 108.912 138.432C108.139 137.947 107.531 137.258 107.088 136.364C106.645 135.47 106.423 134.409 106.423 133.182C106.423 131.955 106.645 130.894 107.088 130C107.531 129.106 108.139 128.417 108.912 127.932C109.685 127.447 110.567 127.205 111.56 127.205C112.552 127.205 113.435 127.447 114.207 127.932C114.98 128.417 115.588 129.106 116.031 130C116.474 130.894 116.696 131.955 116.696 133.182ZM115.332 133.182C115.332 132.174 115.164 131.324 114.827 130.631C114.493 129.938 114.041 129.413 113.469 129.057C112.901 128.701 112.264 128.523 111.56 128.523C110.855 128.523 110.217 128.701 109.645 129.057C109.077 129.413 108.624 129.938 108.287 130.631C107.954 131.324 107.787 132.174 107.787 133.182C107.787 134.189 107.954 135.04 108.287 135.733C108.624 136.426 109.077 136.951 109.645 137.307C110.217 137.663 110.855 137.841 111.56 137.841C112.264 137.841 112.901 137.663 113.469 137.307C114.041 136.951 114.493 136.426 114.827 135.733C115.164 135.04 115.332 134.189 115.332 133.182ZM119.065 139V127.364H126.043V128.614H120.474V132.545H125.52V133.795H120.474V139H119.065ZM127.82 128.614V127.364H136.547V128.614H132.888V139H131.479V128.614H127.82ZM137.722 127.364H139.335L142.562 132.795H142.699L145.926 127.364H147.54L143.335 134.205V139H141.926V134.205L137.722 127.364ZM155.271 127.364V139H153.862V127.364H155.271ZM167.324 127.364V139H165.96L159.619 129.864H159.506V139H158.097V127.364H159.46L165.824 136.523H165.938V127.364H167.324ZM174.371 135.364H175.916L177.212 137.068L177.553 137.523L179.484 140.091H177.939L176.666 138.386L176.348 137.955L174.371 135.364ZM179.962 133.182C179.962 134.409 179.74 135.47 179.297 136.364C178.854 137.258 178.246 137.947 177.473 138.432C176.7 138.917 175.818 139.159 174.825 139.159C173.833 139.159 172.95 138.917 172.178 138.432C171.405 137.947 170.797 137.258 170.354 136.364C169.911 135.47 169.689 134.409 169.689 133.182C169.689 131.955 169.911 130.894 170.354 130C170.797 129.106 171.405 128.417 172.178 127.932C172.95 127.447 173.833 127.205 174.825 127.205C175.818 127.205 176.7 127.447 177.473 127.932C178.246 128.417 178.854 129.106 179.297 130C179.74 130.894 179.962 131.955 179.962 133.182ZM178.598 133.182C178.598 132.174 178.429 131.324 178.092 130.631C177.759 129.938 177.306 129.413 176.734 129.057C176.166 128.701 175.53 128.523 174.825 128.523C174.121 128.523 173.482 128.701 172.911 129.057C172.342 129.413 171.89 129.938 171.553 130.631C171.219 131.324 171.053 132.174 171.053 133.182C171.053 134.189 171.219 135.04 171.553 135.733C171.89 136.426 172.342 136.951 172.911 137.307C173.482 137.663 174.121 137.841 174.825 137.841C175.53 137.841 176.166 137.663 176.734 137.307C177.306 136.951 177.759 136.426 178.092 135.733C178.429 135.04 178.598 134.189 178.598 133.182ZM189.967 127.364H191.376V135.068C191.376 135.864 191.189 136.574 190.814 137.199C190.443 137.82 189.918 138.311 189.24 138.67C188.562 139.027 187.767 139.205 186.854 139.205C185.941 139.205 185.145 139.027 184.467 138.67C183.789 138.311 183.263 137.82 182.888 137.199C182.517 136.574 182.331 135.864 182.331 135.068V127.364H183.74V134.955C183.74 135.523 183.865 136.028 184.115 136.472C184.365 136.911 184.721 137.258 185.183 137.511C185.649 137.761 186.206 137.886 186.854 137.886C187.501 137.886 188.058 137.761 188.524 137.511C188.99 137.258 189.346 136.911 189.592 136.472C189.842 136.028 189.967 135.523 189.967 134.955V127.364ZM195.599 127.364V139H194.19V127.364H195.599ZM198.425 139V127.364H202.357C203.266 127.364 204.012 127.519 204.595 127.83C205.179 128.136 205.61 128.559 205.891 129.097C206.171 129.634 206.311 130.246 206.311 130.932C206.311 131.617 206.171 132.225 205.891 132.756C205.61 133.286 205.18 133.703 204.601 134.006C204.021 134.305 203.281 134.455 202.379 134.455H199.197V133.182H202.334C202.955 133.182 203.455 133.091 203.834 132.909C204.216 132.727 204.493 132.47 204.663 132.136C204.838 131.799 204.925 131.398 204.925 130.932C204.925 130.466 204.838 130.059 204.663 129.71C204.489 129.362 204.211 129.093 203.828 128.903C203.446 128.71 202.94 128.614 202.311 128.614H199.834V139H198.425ZM203.902 133.773L206.766 139H205.129L202.311 133.773H203.902ZM210.068 127.364V139H208.659V127.364H210.068ZM222.121 127.364V139H220.757L214.416 129.864H214.303V139H212.893V127.364H214.257L220.621 136.523H220.734V127.364H222.121ZM232.895 131C232.77 130.617 232.605 130.275 232.401 129.972C232.2 129.665 231.959 129.403 231.679 129.188C231.402 128.972 231.088 128.807 230.736 128.693C230.384 128.58 229.997 128.523 229.577 128.523C228.887 128.523 228.26 128.701 227.696 129.057C227.132 129.413 226.683 129.938 226.349 130.631C226.016 131.324 225.849 132.174 225.849 133.182C225.849 134.189 226.018 135.04 226.355 135.733C226.692 136.426 227.149 136.951 227.724 137.307C228.3 137.663 228.948 137.841 229.668 137.841C230.334 137.841 230.921 137.699 231.429 137.415C231.94 137.127 232.338 136.722 232.622 136.199C232.91 135.672 233.054 135.053 233.054 134.341L233.486 134.432H229.986V133.182H234.418V134.432C234.418 135.39 234.213 136.223 233.804 136.932C233.399 137.64 232.838 138.189 232.122 138.58C231.41 138.966 230.592 139.159 229.668 139.159C228.637 139.159 227.732 138.917 226.952 138.432C226.175 137.947 225.569 137.258 225.134 136.364C224.702 135.47 224.486 134.409 224.486 133.182C224.486 132.261 224.609 131.434 224.855 130.699C225.105 129.96 225.457 129.331 225.912 128.812C226.366 128.294 226.904 127.896 227.526 127.619C228.147 127.343 228.83 127.205 229.577 127.205C230.19 127.205 230.762 127.297 231.293 127.483C231.827 127.665 232.302 127.924 232.719 128.261C233.139 128.595 233.49 128.994 233.77 129.46C234.05 129.922 234.243 130.436 234.349 131H232.895ZM247.695 130.273C247.626 129.697 247.35 129.25 246.865 128.932C246.38 128.614 245.786 128.455 245.081 128.455C244.566 128.455 244.115 128.538 243.729 128.705C243.346 128.871 243.047 129.1 242.831 129.392C242.619 129.684 242.513 130.015 242.513 130.386C242.513 130.697 242.587 130.964 242.734 131.188C242.886 131.407 243.079 131.591 243.314 131.739C243.549 131.883 243.795 132.002 244.053 132.097C244.31 132.187 244.547 132.261 244.763 132.318L245.945 132.636C246.248 132.716 246.585 132.826 246.956 132.966C247.331 133.106 247.689 133.297 248.03 133.54C248.375 133.778 248.659 134.085 248.882 134.46C249.106 134.835 249.217 135.295 249.217 135.841C249.217 136.47 249.053 137.038 248.723 137.545C248.397 138.053 247.92 138.456 247.291 138.756C246.666 139.055 245.907 139.205 245.013 139.205C244.179 139.205 243.458 139.07 242.848 138.801C242.242 138.532 241.765 138.157 241.416 137.676C241.071 137.195 240.876 136.636 240.831 136H242.286C242.323 136.439 242.471 136.803 242.729 137.091C242.99 137.375 243.32 137.587 243.717 137.727C244.119 137.864 244.551 137.932 245.013 137.932C245.551 137.932 246.034 137.845 246.462 137.67C246.89 137.492 247.229 137.246 247.479 136.932C247.729 136.614 247.854 136.242 247.854 135.818C247.854 135.432 247.746 135.117 247.53 134.875C247.314 134.633 247.03 134.436 246.678 134.284C246.325 134.133 245.945 134 245.536 133.886L244.104 133.477C243.195 133.216 242.475 132.843 241.945 132.358C241.414 131.873 241.149 131.239 241.149 130.455C241.149 129.803 241.325 129.235 241.678 128.75C242.034 128.261 242.511 127.883 243.109 127.614C243.712 127.341 244.384 127.205 245.126 127.205C245.876 127.205 246.543 127.339 247.126 127.608C247.71 127.873 248.172 128.237 248.513 128.699C248.857 129.161 249.039 129.686 249.058 130.273H247.695ZM252.011 139H250.534L254.807 127.364H256.261L260.534 139H259.057L255.58 129.205H255.489L252.011 139ZM252.557 134.455H258.511V135.705H252.557V134.455ZM269.754 131C269.629 130.617 269.464 130.275 269.26 129.972C269.059 129.665 268.819 129.403 268.538 129.188C268.262 128.972 267.947 128.807 267.595 128.693C267.243 128.58 266.857 128.523 266.436 128.523C265.747 128.523 265.12 128.701 264.555 129.057C263.991 129.413 263.542 129.938 263.209 130.631C262.875 131.324 262.709 132.174 262.709 133.182C262.709 134.189 262.877 135.04 263.214 135.733C263.552 136.426 264.008 136.951 264.584 137.307C265.16 137.663 265.807 137.841 266.527 137.841C267.194 137.841 267.781 137.699 268.288 137.415C268.8 137.127 269.197 136.722 269.482 136.199C269.769 135.672 269.913 135.053 269.913 134.341L270.345 134.432H266.845V133.182H271.277V134.432C271.277 135.39 271.072 136.223 270.663 136.932C270.258 137.64 269.697 138.189 268.982 138.58C268.269 138.966 267.451 139.159 266.527 139.159C265.497 139.159 264.591 138.917 263.811 138.432C263.035 137.947 262.429 137.258 261.993 136.364C261.561 135.47 261.345 134.409 261.345 133.182C261.345 132.261 261.468 131.434 261.714 130.699C261.964 129.96 262.317 129.331 262.771 128.812C263.226 128.294 263.764 127.896 264.385 127.619C265.006 127.343 265.69 127.205 266.436 127.205C267.05 127.205 267.622 127.297 268.152 127.483C268.686 127.665 269.161 127.924 269.578 128.261C269.999 128.595 270.349 128.994 270.629 129.46C270.91 129.922 271.103 130.436 271.209 131H269.754ZM273.69 139V127.364H280.713V128.614H275.099V132.545H280.349V133.795H275.099V137.75H280.804V139H273.69ZM289.866 139L286.685 127.364H288.116L290.548 136.841H290.662L293.139 127.364H294.73L297.207 136.841H297.321L299.753 127.364H301.185L298.003 139H296.548L293.98 129.727H293.889L291.321 139H289.866ZM302.511 139H301.034L305.307 127.364H306.761L311.034 139H309.557L306.08 129.205H305.989L302.511 139ZM303.057 134.455H309.011V135.705H303.057V134.455ZM320.254 131C320.129 130.617 319.964 130.275 319.76 129.972C319.559 129.665 319.319 129.403 319.038 129.188C318.762 128.972 318.447 128.807 318.095 128.693C317.743 128.58 317.357 128.523 316.936 128.523C316.247 128.523 315.62 128.701 315.055 129.057C314.491 129.413 314.042 129.938 313.709 130.631C313.375 131.324 313.209 132.174 313.209 133.182C313.209 134.189 313.377 135.04 313.714 135.733C314.052 136.426 314.508 136.951 315.084 137.307C315.66 137.663 316.307 137.841 317.027 137.841C317.694 137.841 318.281 137.699 318.788 137.415C319.3 137.127 319.697 136.722 319.982 136.199C320.269 135.672 320.413 135.053 320.413 134.341L320.845 134.432H317.345V133.182H321.777V134.432C321.777 135.39 321.572 136.223 321.163 136.932C320.758 137.64 320.197 138.189 319.482 138.58C318.769 138.966 317.951 139.159 317.027 139.159C315.997 139.159 315.091 138.917 314.311 138.432C313.535 137.947 312.929 137.258 312.493 136.364C312.061 135.47 311.845 134.409 311.845 133.182C311.845 132.261 311.968 131.434 312.214 130.699C312.464 129.96 312.817 129.331 313.271 128.812C313.726 128.294 314.264 127.896 314.885 127.619C315.506 127.343 316.19 127.205 316.936 127.205C317.55 127.205 318.122 127.297 318.652 127.483C319.186 127.665 319.661 127.924 320.078 128.261C320.499 128.595 320.849 128.994 321.129 129.46C321.41 129.922 321.603 130.436 321.709 131H320.254ZM324.19 139V127.364H331.213V128.614H325.599V132.545H330.849V133.795H325.599V137.75H331.304V139H324.19ZM338.253 139V127.364H339.662V137.75H345.071V139H338.253ZM356.618 133.182C356.618 134.409 356.396 135.47 355.953 136.364C355.51 137.258 354.902 137.947 354.129 138.432C353.357 138.917 352.474 139.159 351.482 139.159C350.489 139.159 349.607 138.917 348.834 138.432C348.061 137.947 347.453 137.258 347.01 136.364C346.567 135.47 346.345 134.409 346.345 133.182C346.345 131.955 346.567 130.894 347.01 130C347.453 129.106 348.061 128.417 348.834 127.932C349.607 127.447 350.489 127.205 351.482 127.205C352.474 127.205 353.357 127.447 354.129 127.932C354.902 128.417 355.51 129.106 355.953 130C356.396 130.894 356.618 131.955 356.618 133.182ZM355.254 133.182C355.254 132.174 355.086 131.324 354.749 130.631C354.415 129.938 353.963 129.413 353.391 129.057C352.822 128.701 352.186 128.523 351.482 128.523C350.777 128.523 350.139 128.701 349.567 129.057C348.999 129.413 348.546 129.938 348.209 130.631C347.875 131.324 347.709 132.174 347.709 133.182C347.709 134.189 347.875 135.04 348.209 135.733C348.546 136.426 348.999 136.951 349.567 137.307C350.139 137.663 350.777 137.841 351.482 137.841C352.186 137.841 352.822 137.663 353.391 137.307C353.963 136.951 354.415 136.426 354.749 135.733C355.086 135.04 355.254 134.189 355.254 133.182Z" fill="#505050" fill-opacity="0.5"/>
<path d="M1.88636 146.364L5.34091 156.159H5.47727L8.93182 146.364H10.4091L6.13636 158H4.68182L0.409091 146.364H1.88636ZM13.6307 146.364V158H12.2216V146.364H13.6307ZM16.456 158V146.364H17.8651V156.75H23.2741V158H16.456ZM25.456 158V146.364H26.8651V156.75H32.2741V158H25.456ZM35.6676 158H34.1903L38.4631 146.364H39.9176L44.1903 158H42.7131L39.2358 148.205H39.1449L35.6676 158ZM36.2131 153.455H42.1676V154.705H36.2131V153.455ZM53.4105 150C53.2855 149.617 53.1207 149.275 52.9162 148.972C52.7154 148.665 52.4749 148.403 52.1946 148.188C51.9181 147.972 51.6037 147.807 51.2514 147.693C50.8991 147.58 50.5128 147.523 50.0923 147.523C49.4029 147.523 48.776 147.701 48.2116 148.057C47.6473 148.413 47.1984 148.938 46.8651 149.631C46.5317 150.324 46.3651 151.174 46.3651 152.182C46.3651 153.189 46.5336 154.04 46.8707 154.733C47.2079 155.426 47.6643 155.951 48.2401 156.307C48.8158 156.663 49.4635 156.841 50.1832 156.841C50.8499 156.841 51.437 156.699 51.9446 156.415C52.456 156.127 52.8537 155.722 53.1378 155.199C53.4257 154.672 53.5696 154.053 53.5696 153.341L54.0014 153.432H50.5014V152.182H54.9332V153.432C54.9332 154.39 54.7287 155.223 54.3196 155.932C53.9143 156.64 53.3537 157.189 52.6378 157.58C51.9257 157.966 51.1075 158.159 50.1832 158.159C49.1529 158.159 48.2476 157.917 47.4673 157.432C46.6908 156.947 46.0848 156.258 45.6491 155.364C45.2173 154.47 45.0014 153.409 45.0014 152.182C45.0014 151.261 45.1245 150.434 45.3707 149.699C45.6207 148.96 45.973 148.331 46.4276 147.812C46.8821 147.294 47.42 146.896 48.0412 146.619C48.6624 146.343 49.3461 146.205 50.0923 146.205C50.706 146.205 51.2779 146.297 51.8082 146.483C52.3423 146.665 52.8177 146.924 53.2344 147.261C53.6548 147.595 54.0052 147.994 54.2855 148.46C54.5658 148.922 54.759 149.436 54.8651 150H53.4105ZM57.3466 158V146.364H64.3693V147.614H58.7557V151.545H64.0057V152.795H58.7557V156.75H64.4602V158H57.3466ZM71.4091 158V146.364H72.8182V151.545H79.0227V146.364H80.4318V158H79.0227V152.795H72.8182V158H71.4091ZM93.071 152.182C93.071 153.409 92.8494 154.47 92.4062 155.364C91.9631 156.258 91.3551 156.947 90.5824 157.432C89.8097 157.917 88.9271 158.159 87.9347 158.159C86.9422 158.159 86.0597 157.917 85.2869 157.432C84.5142 156.947 83.9063 156.258 83.4631 155.364C83.0199 154.47 82.7983 153.409 82.7983 152.182C82.7983 150.955 83.0199 149.894 83.4631 149C83.9063 148.106 84.5142 147.417 85.2869 146.932C86.0597 146.447 86.9422 146.205 87.9347 146.205C88.9271 146.205 89.8097 146.447 90.5824 146.932C91.3551 147.417 91.9631 148.106 92.4062 149C92.8494 149.894 93.071 150.955 93.071 152.182ZM91.7074 152.182C91.7074 151.174 91.5388 150.324 91.2017 149.631C90.8684 148.938 90.4157 148.413 89.8438 148.057C89.2756 147.701 88.6392 147.523 87.9347 147.523C87.2301 147.523 86.5919 147.701 86.0199 148.057C85.4517 148.413 84.9991 148.938 84.6619 149.631C84.3286 150.324 84.1619 151.174 84.1619 152.182C84.1619 153.189 84.3286 154.04 84.6619 154.733C84.9991 155.426 85.4517 155.951 86.0199 156.307C86.5919 156.663 87.2301 156.841 87.9347 156.841C88.6392 156.841 89.2756 156.663 89.8438 156.307C90.4157 155.951 90.8684 155.426 91.2017 154.733C91.5388 154.04 91.7074 153.189 91.7074 152.182ZM95.4403 158V146.364H99.3722C100.281 146.364 101.027 146.519 101.611 146.83C102.194 147.136 102.626 147.559 102.906 148.097C103.187 148.634 103.327 149.246 103.327 149.932C103.327 150.617 103.187 151.225 102.906 151.756C102.626 152.286 102.196 152.703 101.616 153.006C101.037 153.305 100.296 153.455 99.3949 153.455H96.2131V152.182H99.3494C99.9706 152.182 100.471 152.091 100.849 151.909C101.232 151.727 101.509 151.47 101.679 151.136C101.853 150.799 101.94 150.398 101.94 149.932C101.94 149.466 101.853 149.059 101.679 148.71C101.505 148.362 101.226 148.093 100.844 147.903C100.461 147.71 99.9555 147.614 99.3267 147.614H96.8494V158H95.4403ZM100.918 152.773L103.781 158H102.145L99.3267 152.773H100.918ZM112.038 149.273C111.97 148.697 111.694 148.25 111.209 147.932C110.724 147.614 110.129 147.455 109.425 147.455C108.91 147.455 108.459 147.538 108.072 147.705C107.69 147.871 107.391 148.1 107.175 148.392C106.963 148.684 106.857 149.015 106.857 149.386C106.857 149.697 106.93 149.964 107.078 150.188C107.23 150.407 107.423 150.591 107.658 150.739C107.893 150.883 108.139 151.002 108.396 151.097C108.654 151.187 108.891 151.261 109.107 151.318L110.288 151.636C110.591 151.716 110.929 151.826 111.3 151.966C111.675 152.106 112.033 152.297 112.374 152.54C112.718 152.778 113.002 153.085 113.226 153.46C113.449 153.835 113.561 154.295 113.561 154.841C113.561 155.47 113.396 156.038 113.067 156.545C112.741 157.053 112.264 157.456 111.635 157.756C111.01 158.055 110.25 158.205 109.357 158.205C108.523 158.205 107.802 158.07 107.192 157.801C106.586 157.532 106.108 157.157 105.76 156.676C105.415 156.195 105.22 155.636 105.175 155H106.629C106.667 155.439 106.815 155.803 107.072 156.091C107.334 156.375 107.663 156.587 108.061 156.727C108.463 156.864 108.894 156.932 109.357 156.932C109.894 156.932 110.377 156.845 110.805 156.67C111.233 156.492 111.572 156.246 111.822 155.932C112.072 155.614 112.197 155.242 112.197 154.818C112.197 154.432 112.089 154.117 111.874 153.875C111.658 153.633 111.374 153.436 111.021 153.284C110.669 153.133 110.288 153 109.879 152.886L108.447 152.477C107.538 152.216 106.819 151.843 106.288 151.358C105.758 150.873 105.493 150.239 105.493 149.455C105.493 148.803 105.669 148.235 106.021 147.75C106.377 147.261 106.855 146.883 107.453 146.614C108.055 146.341 108.728 146.205 109.47 146.205C110.22 146.205 110.887 146.339 111.47 146.608C112.054 146.873 112.516 147.237 112.857 147.699C113.201 148.161 113.383 148.686 113.402 149.273H112.038ZM115.878 158V146.364H122.901V147.614H117.287V151.545H122.537V152.795H117.287V156.75H122.991V158H115.878ZM129.554 158V156.977L135.827 147.614H129.486V146.364H137.509V147.386L131.236 156.75H137.577V158H129.554ZM139.94 158V146.364H146.963V147.614H141.349V151.545H146.599V152.795H141.349V156.75H147.054V158H139.94ZM149.503 158V146.364H153.571C154.382 146.364 155.05 146.504 155.577 146.784C156.103 147.061 156.495 147.434 156.753 147.903C157.01 148.369 157.139 148.886 157.139 149.455C157.139 149.955 157.05 150.367 156.872 150.693C156.698 151.019 156.467 151.277 156.179 151.466C155.895 151.655 155.586 151.795 155.253 151.886V152C155.609 152.023 155.967 152.148 156.327 152.375C156.687 152.602 156.988 152.928 157.23 153.352C157.473 153.777 157.594 154.295 157.594 154.909C157.594 155.492 157.461 156.017 157.196 156.483C156.931 156.949 156.512 157.318 155.94 157.591C155.368 157.864 154.624 158 153.707 158H149.503ZM150.912 156.75H153.707C154.628 156.75 155.281 156.572 155.668 156.216C156.058 155.856 156.253 155.42 156.253 154.909C156.253 154.515 156.152 154.152 155.952 153.818C155.751 153.481 155.465 153.212 155.094 153.011C154.723 152.807 154.283 152.705 153.776 152.705H150.912V156.75ZM150.912 151.477H153.526C153.95 151.477 154.332 151.394 154.673 151.227C155.018 151.061 155.291 150.826 155.491 150.523C155.696 150.22 155.798 149.864 155.798 149.455C155.798 148.943 155.62 148.509 155.264 148.153C154.908 147.794 154.344 147.614 153.571 147.614H150.912V151.477ZM159.909 158V146.364H163.841C164.75 146.364 165.496 146.519 166.08 146.83C166.663 147.136 167.095 147.559 167.375 148.097C167.655 148.634 167.795 149.246 167.795 149.932C167.795 150.617 167.655 151.225 167.375 151.756C167.095 152.286 166.665 152.703 166.085 153.006C165.506 153.305 164.765 153.455 163.864 153.455H160.682V152.182H163.818C164.439 152.182 164.939 152.091 165.318 151.909C165.701 151.727 165.977 151.47 166.148 151.136C166.322 150.799 166.409 150.398 166.409 149.932C166.409 149.466 166.322 149.059 166.148 148.71C165.973 148.362 165.695 148.093 165.312 147.903C164.93 147.71 164.424 147.614 163.795 147.614H161.318V158H159.909ZM165.386 152.773L168.25 158H166.614L163.795 152.773H165.386ZM170.621 158H169.143L173.416 146.364H174.871L179.143 158H177.666L174.189 148.205H174.098L170.621 158ZM171.166 153.455H177.121V154.705H171.166V153.455ZM194.683 146.364V158H193.32L186.979 148.864H186.865V158H185.456V146.364H186.82L193.183 155.523H193.297V146.364H194.683ZM197.503 158V146.364H204.526V147.614H198.912V151.545H204.162V152.795H198.912V156.75H204.616V158H197.503ZM209.179 158L205.997 146.364H207.429L209.861 155.841H209.974L212.452 146.364H214.043L216.52 155.841H216.634L219.065 146.364H220.497L217.315 158H215.861L213.293 148.727H213.202L210.634 158H209.179ZM227.23 146.364L230.685 156.159H230.821L234.276 146.364H235.753L231.48 158H230.026L225.753 146.364H227.23ZM238.974 146.364V158H237.565V146.364H238.974ZM241.8 158V146.364H243.209V156.75H248.618V158H241.8ZM250.8 158V146.364H252.209V156.75H257.618V158H250.8ZM261.011 158H259.534L263.807 146.364H265.261L269.534 158H268.057L264.58 148.205H264.489L261.011 158ZM261.557 153.455H267.511V154.705H261.557V153.455ZM278.754 150C278.629 149.617 278.464 149.275 278.26 148.972C278.059 148.665 277.819 148.403 277.538 148.188C277.262 147.972 276.947 147.807 276.595 147.693C276.243 147.58 275.857 147.523 275.436 147.523C274.747 147.523 274.12 147.701 273.555 148.057C272.991 148.413 272.542 148.938 272.209 149.631C271.875 150.324 271.709 151.174 271.709 152.182C271.709 153.189 271.877 154.04 272.214 154.733C272.552 155.426 273.008 155.951 273.584 156.307C274.16 156.663 274.807 156.841 275.527 156.841C276.194 156.841 276.781 156.699 277.288 156.415C277.8 156.127 278.197 155.722 278.482 155.199C278.769 154.672 278.913 154.053 278.913 153.341L279.345 153.432H275.845V152.182H280.277V153.432C280.277 154.39 280.072 155.223 279.663 155.932C279.258 156.64 278.697 157.189 277.982 157.58C277.269 157.966 276.451 158.159 275.527 158.159C274.497 158.159 273.591 157.917 272.811 157.432C272.035 156.947 271.429 156.258 270.993 155.364C270.561 154.47 270.345 153.409 270.345 152.182C270.345 151.261 270.468 150.434 270.714 149.699C270.964 148.96 271.317 148.331 271.771 147.812C272.226 147.294 272.764 146.896 273.385 146.619C274.006 146.343 274.69 146.205 275.436 146.205C276.05 146.205 276.622 146.297 277.152 146.483C277.686 146.665 278.161 146.924 278.578 147.261C278.999 147.595 279.349 147.994 279.629 148.46C279.91 148.922 280.103 149.436 280.209 150H278.754ZM282.69 158V146.364H289.713V147.614H284.099V151.545H289.349V152.795H284.099V156.75H289.804V158H282.69ZM296.753 158V146.364H298.162V151.545H304.366V146.364H305.776V158H304.366V152.795H298.162V158H296.753ZM318.415 152.182C318.415 153.409 318.193 154.47 317.75 155.364C317.307 156.258 316.699 156.947 315.926 157.432C315.153 157.917 314.271 158.159 313.278 158.159C312.286 158.159 311.403 157.917 310.631 157.432C309.858 156.947 309.25 156.258 308.807 155.364C308.364 154.47 308.142 153.409 308.142 152.182C308.142 150.955 308.364 149.894 308.807 149C309.25 148.106 309.858 147.417 310.631 146.932C311.403 146.447 312.286 146.205 313.278 146.205C314.271 146.205 315.153 146.447 315.926 146.932C316.699 147.417 317.307 148.106 317.75 149C318.193 149.894 318.415 150.955 318.415 152.182ZM317.051 152.182C317.051 151.174 316.883 150.324 316.545 149.631C316.212 148.938 315.759 148.413 315.188 148.057C314.619 147.701 313.983 147.523 313.278 147.523C312.574 147.523 311.936 147.701 311.364 148.057C310.795 148.413 310.343 148.938 310.006 149.631C309.672 150.324 309.506 151.174 309.506 152.182C309.506 153.189 309.672 154.04 310.006 154.733C310.343 155.426 310.795 155.951 311.364 156.307C311.936 156.663 312.574 156.841 313.278 156.841C313.983 156.841 314.619 156.663 315.188 156.307C315.759 155.951 316.212 155.426 316.545 154.733C316.883 154.04 317.051 153.189 317.051 152.182ZM320.784 158V146.364H324.716C325.625 146.364 326.371 146.519 326.955 146.83C327.538 147.136 327.97 147.559 328.25 148.097C328.53 148.634 328.67 149.246 328.67 149.932C328.67 150.617 328.53 151.225 328.25 151.756C327.97 152.286 327.54 152.703 326.96 153.006C326.381 153.305 325.64 153.455 324.739 153.455H321.557V152.182H324.693C325.314 152.182 325.814 152.091 326.193 151.909C326.576 151.727 326.852 151.47 327.023 151.136C327.197 150.799 327.284 150.398 327.284 149.932C327.284 149.466 327.197 149.059 327.023 148.71C326.848 148.362 326.57 148.093 326.188 147.903C325.805 147.71 325.299 147.614 324.67 147.614H322.193V158H320.784ZM326.261 152.773L329.125 158H327.489L324.67 152.773H326.261ZM337.382 149.273C337.314 148.697 337.037 148.25 336.553 147.932C336.068 147.614 335.473 147.455 334.768 147.455C334.253 147.455 333.803 147.538 333.416 147.705C333.034 147.871 332.734 148.1 332.518 148.392C332.306 148.684 332.2 149.015 332.2 149.386C332.2 149.697 332.274 149.964 332.422 150.188C332.573 150.407 332.767 150.591 333.001 150.739C333.236 150.883 333.482 151.002 333.74 151.097C333.998 151.187 334.234 151.261 334.45 151.318L335.632 151.636C335.935 151.716 336.272 151.826 336.643 151.966C337.018 152.106 337.376 152.297 337.717 152.54C338.062 152.778 338.346 153.085 338.57 153.46C338.793 153.835 338.905 154.295 338.905 154.841C338.905 155.47 338.74 156.038 338.411 156.545C338.085 157.053 337.607 157.456 336.979 157.756C336.354 158.055 335.594 158.205 334.7 158.205C333.867 158.205 333.145 158.07 332.536 157.801C331.929 157.532 331.452 157.157 331.104 156.676C330.759 156.195 330.564 155.636 330.518 155H331.973C332.011 155.439 332.159 155.803 332.416 156.091C332.678 156.375 333.007 156.587 333.405 156.727C333.806 156.864 334.238 156.932 334.7 156.932C335.238 156.932 335.721 156.845 336.149 156.67C336.577 156.492 336.916 156.246 337.166 155.932C337.416 155.614 337.541 155.242 337.541 154.818C337.541 154.432 337.433 154.117 337.217 153.875C337.001 153.633 336.717 153.436 336.365 153.284C336.013 153.133 335.632 153 335.223 152.886L333.791 152.477C332.882 152.216 332.162 151.843 331.632 151.358C331.102 150.873 330.837 150.239 330.837 149.455C330.837 148.803 331.013 148.235 331.365 147.75C331.721 147.261 332.198 146.883 332.797 146.614C333.399 146.341 334.071 146.205 334.814 146.205C335.564 146.205 336.231 146.339 336.814 146.608C337.397 146.873 337.859 147.237 338.2 147.699C338.545 148.161 338.727 148.686 338.746 149.273H337.382ZM341.222 158V146.364H348.244V147.614H342.631V151.545H347.881V152.795H342.631V156.75H348.335V158H341.222Z" fill="#505050" fill-opacity="0.5"/>
<path d="M0.772727 166.614V165.364H9.5V166.614H5.84091V177H4.43182V166.614H0.772727ZM11.6747 177V165.364H15.6065C16.5156 165.364 17.2618 165.519 17.8452 165.83C18.4285 166.136 18.8603 166.559 19.1406 167.097C19.4209 167.634 19.5611 168.246 19.5611 168.932C19.5611 169.617 19.4209 170.225 19.1406 170.756C18.8603 171.286 18.4304 171.703 17.8509 172.006C17.2713 172.305 16.5308 172.455 15.6293 172.455H12.4474V171.182H15.5838C16.205 171.182 16.705 171.091 17.0838 170.909C17.4664 170.727 17.7429 170.47 17.9134 170.136C18.0876 169.799 18.1747 169.398 18.1747 168.932C18.1747 168.466 18.0876 168.059 17.9134 167.71C17.7391 167.362 17.4607 167.093 17.0781 166.903C16.6955 166.71 16.1899 166.614 15.5611 166.614H13.0838V177H11.6747ZM17.152 171.773L20.0156 177H18.3793L15.5611 171.773H17.152ZM22.3864 177H20.9091L25.1818 165.364H26.6364L30.9091 177H29.4318L25.9545 167.205H25.8636L22.3864 177ZM22.9318 172.455H28.8864V173.705H22.9318V172.455ZM32.7216 177V165.364H39.6989V166.614H34.1307V170.545H39.1761V171.795H34.1307V177H32.7216ZM42.1122 177V165.364H49.0895V166.614H43.5213V170.545H48.5668V171.795H43.5213V177H42.1122ZM52.9119 165.364V177H51.5028V165.364H52.9119ZM65.1009 169H63.6918C63.6084 168.595 63.4626 168.239 63.2543 167.932C63.0497 167.625 62.7997 167.367 62.5043 167.159C62.2126 166.947 61.8887 166.788 61.5327 166.682C61.1766 166.576 60.8054 166.523 60.419 166.523C59.7145 166.523 59.0762 166.701 58.5043 167.057C57.9361 167.413 57.4834 167.938 57.1463 168.631C56.813 169.324 56.6463 170.174 56.6463 171.182C56.6463 172.189 56.813 173.04 57.1463 173.733C57.4834 174.426 57.9361 174.951 58.5043 175.307C59.0762 175.663 59.7145 175.841 60.419 175.841C60.8054 175.841 61.1766 175.788 61.5327 175.682C61.8887 175.576 62.2126 175.419 62.5043 175.21C62.7997 174.998 63.0497 174.739 63.2543 174.432C63.4626 174.121 63.6084 173.765 63.6918 173.364H65.1009C64.9948 173.958 64.8016 174.491 64.5213 174.96C64.241 175.43 63.8925 175.83 63.4759 176.159C63.0592 176.485 62.5914 176.733 62.0724 176.903C61.5573 177.074 61.0062 177.159 60.419 177.159C59.4266 177.159 58.544 176.917 57.7713 176.432C56.9986 175.947 56.3906 175.258 55.9474 174.364C55.5043 173.47 55.2827 172.409 55.2827 171.182C55.2827 169.955 55.5043 168.894 55.9474 168C56.3906 167.106 56.9986 166.417 57.7713 165.932C58.544 165.447 59.4266 165.205 60.419 165.205C61.0062 165.205 61.5573 165.29 62.0724 165.46C62.5914 165.631 63.0592 165.881 63.4759 166.21C63.8925 166.536 64.241 166.934 64.5213 167.403C64.8016 167.869 64.9948 168.402 65.1009 169ZM71.8778 177V165.364H73.2869V175.75H78.696V177H71.8778ZM82.2869 165.364V177H80.8778V165.364H82.2869ZM93.0668 169C92.9418 168.617 92.777 168.275 92.5724 167.972C92.3717 167.665 92.1312 167.403 91.8509 167.188C91.5743 166.972 91.2599 166.807 90.9077 166.693C90.5554 166.58 90.169 166.523 89.7486 166.523C89.0592 166.523 88.4323 166.701 87.8679 167.057C87.3035 167.413 86.8546 167.938 86.5213 168.631C86.188 169.324 86.0213 170.174 86.0213 171.182C86.0213 172.189 86.1899 173.04 86.527 173.733C86.8641 174.426 87.3205 174.951 87.8963 175.307C88.4721 175.663 89.1198 175.841 89.8395 175.841C90.5062 175.841 91.0933 175.699 91.6009 175.415C92.1122 175.127 92.5099 174.722 92.794 174.199C93.0819 173.672 93.2259 173.053 93.2259 172.341L93.6577 172.432H90.1577V171.182H94.5895V172.432C94.5895 173.39 94.3849 174.223 93.9759 174.932C93.5705 175.64 93.0099 176.189 92.294 176.58C91.5819 176.966 90.7637 177.159 89.8395 177.159C88.8092 177.159 87.9039 176.917 87.1236 176.432C86.3471 175.947 85.741 175.258 85.3054 174.364C84.8736 173.47 84.6577 172.409 84.6577 171.182C84.6577 170.261 84.7808 169.434 85.027 168.699C85.277 167.96 85.6293 167.331 86.0838 166.812C86.5384 166.294 87.0762 165.896 87.6974 165.619C88.3187 165.343 89.0024 165.205 89.7486 165.205C90.3622 165.205 90.9342 165.297 91.4645 165.483C91.9986 165.665 92.474 165.924 92.8906 166.261C93.3111 166.595 93.6615 166.994 93.9418 167.46C94.2221 167.922 94.4152 168.436 94.5213 169H93.0668ZM97.0028 177V165.364H98.4119V170.545H104.616V165.364H106.026V177H104.616V171.795H98.4119V177H97.0028ZM108.21 166.614V165.364H116.938V166.614H113.278V177H111.869V166.614H108.21ZM125.476 168.273C125.408 167.697 125.131 167.25 124.646 166.932C124.161 166.614 123.567 166.455 122.862 166.455C122.347 166.455 121.896 166.538 121.51 166.705C121.127 166.871 120.828 167.1 120.612 167.392C120.4 167.684 120.294 168.015 120.294 168.386C120.294 168.697 120.368 168.964 120.516 169.188C120.667 169.407 120.86 169.591 121.095 169.739C121.33 169.883 121.576 170.002 121.834 170.097C122.091 170.187 122.328 170.261 122.544 170.318L123.726 170.636C124.029 170.716 124.366 170.826 124.737 170.966C125.112 171.106 125.47 171.297 125.811 171.54C126.156 171.778 126.44 172.085 126.663 172.46C126.887 172.835 126.999 173.295 126.999 173.841C126.999 174.47 126.834 175.038 126.504 175.545C126.179 176.053 125.701 176.456 125.072 176.756C124.447 177.055 123.688 177.205 122.794 177.205C121.961 177.205 121.239 177.07 120.629 176.801C120.023 176.532 119.546 176.157 119.197 175.676C118.853 175.195 118.658 174.636 118.612 174H120.067C120.105 174.439 120.252 174.803 120.51 175.091C120.771 175.375 121.101 175.587 121.499 175.727C121.9 175.864 122.332 175.932 122.794 175.932C123.332 175.932 123.815 175.845 124.243 175.67C124.671 175.492 125.01 175.246 125.26 174.932C125.51 174.614 125.635 174.242 125.635 173.818C125.635 173.432 125.527 173.117 125.311 172.875C125.095 172.633 124.811 172.436 124.459 172.284C124.107 172.133 123.726 172 123.317 171.886L121.885 171.477C120.976 171.216 120.256 170.843 119.726 170.358C119.196 169.873 118.93 169.239 118.93 168.455C118.93 167.803 119.107 167.235 119.459 166.75C119.815 166.261 120.292 165.883 120.891 165.614C121.493 165.341 122.165 165.205 122.908 165.205C123.658 165.205 124.324 165.339 124.908 165.608C125.491 165.873 125.953 166.237 126.294 166.699C126.639 167.161 126.821 167.686 126.839 168.273H125.476ZM133.815 177V165.364H135.224V175.75H140.634V177H133.815ZM150.452 165.364H151.861V173.068C151.861 173.864 151.673 174.574 151.298 175.199C150.927 175.82 150.402 176.311 149.724 176.67C149.046 177.027 148.251 177.205 147.338 177.205C146.425 177.205 145.63 177.027 144.952 176.67C144.274 176.311 143.747 175.82 143.372 175.199C143.001 174.574 142.815 173.864 142.815 173.068V165.364H144.224V172.955C144.224 173.523 144.349 174.028 144.599 174.472C144.849 174.911 145.205 175.258 145.668 175.511C146.134 175.761 146.69 175.886 147.338 175.886C147.986 175.886 148.543 175.761 149.009 175.511C149.474 175.258 149.83 174.911 150.077 174.472C150.327 174.028 150.452 173.523 150.452 172.955V165.364ZM154.675 177V165.364H156.084V170.545H162.288V165.364H163.697V177H162.288V171.795H156.084V177H154.675ZM171.018 177V165.364H172.428V175.75H177.837V177H171.018ZM181.23 177H179.753L184.026 165.364H185.48L189.753 177H188.276L184.798 167.205H184.707L181.23 177ZM181.776 172.455H187.73V173.705H181.776V172.455ZM191.565 177V165.364H192.974V170.545H199.179V165.364H200.588V177H199.179V171.795H192.974V177H191.565ZM207.273 166.614V165.364H216V166.614H212.341V177H210.932V166.614H207.273ZM218.175 177V165.364H222.107C223.016 165.364 223.762 165.519 224.345 165.83C224.929 166.136 225.36 166.559 225.641 167.097C225.921 167.634 226.061 168.246 226.061 168.932C226.061 169.617 225.921 170.225 225.641 170.756C225.36 171.286 224.93 171.703 224.351 172.006C223.771 172.305 223.031 172.455 222.129 172.455H218.947V171.182H222.084C222.705 171.182 223.205 171.091 223.584 170.909C223.966 170.727 224.243 170.47 224.413 170.136C224.588 169.799 224.675 169.398 224.675 168.932C224.675 168.466 224.588 168.059 224.413 167.71C224.239 167.362 223.961 167.093 223.578 166.903C223.196 166.71 222.69 166.614 222.061 166.614H219.584V177H218.175ZM223.652 171.773L226.516 177H224.879L222.061 171.773H223.652ZM228.886 177H227.409L231.682 165.364H233.136L237.409 177H235.932L232.455 167.205H232.364L228.886 177ZM229.432 172.455H235.386V173.705H229.432V172.455ZM239.222 177V165.364H246.199V166.614H240.631V170.545H245.676V171.795H240.631V177H239.222ZM248.612 177V165.364H255.589V166.614H250.021V170.545H255.067V171.795H250.021V177H248.612ZM259.412 165.364V177H258.003V165.364H259.412ZM271.601 169H270.192C270.108 168.595 269.963 168.239 269.754 167.932C269.55 167.625 269.3 167.367 269.004 167.159C268.713 166.947 268.389 166.788 268.033 166.682C267.677 166.576 267.305 166.523 266.919 166.523C266.214 166.523 265.576 166.701 265.004 167.057C264.436 167.413 263.983 167.938 263.646 168.631C263.313 169.324 263.146 170.174 263.146 171.182C263.146 172.189 263.313 173.04 263.646 173.733C263.983 174.426 264.436 174.951 265.004 175.307C265.576 175.663 266.214 175.841 266.919 175.841C267.305 175.841 267.677 175.788 268.033 175.682C268.389 175.576 268.713 175.419 269.004 175.21C269.3 174.998 269.55 174.739 269.754 174.432C269.963 174.121 270.108 173.765 270.192 173.364H271.601C271.495 173.958 271.302 174.491 271.021 174.96C270.741 175.43 270.393 175.83 269.976 176.159C269.559 176.485 269.091 176.733 268.572 176.903C268.057 177.074 267.506 177.159 266.919 177.159C265.927 177.159 265.044 176.917 264.271 176.432C263.499 175.947 262.891 175.258 262.447 174.364C262.004 173.47 261.783 172.409 261.783 171.182C261.783 169.955 262.004 168.894 262.447 168C262.891 167.106 263.499 166.417 264.271 165.932C265.044 165.447 265.927 165.205 266.919 165.205C267.506 165.205 268.057 165.29 268.572 165.46C269.091 165.631 269.559 165.881 269.976 166.21C270.393 166.536 270.741 166.934 271.021 167.403C271.302 167.869 271.495 168.402 271.601 169ZM278.378 177V165.364H279.787V175.75H285.196V177H278.378ZM288.787 165.364V177H287.378V165.364H288.787ZM299.567 169C299.442 168.617 299.277 168.275 299.072 167.972C298.872 167.665 298.631 167.403 298.351 167.188C298.074 166.972 297.76 166.807 297.408 166.693C297.055 166.58 296.669 166.523 296.249 166.523C295.559 166.523 294.932 166.701 294.368 167.057C293.804 167.413 293.355 167.938 293.021 168.631C292.688 169.324 292.521 170.174 292.521 171.182C292.521 172.189 292.69 173.04 293.027 173.733C293.364 174.426 293.821 174.951 294.396 175.307C294.972 175.663 295.62 175.841 296.339 175.841C297.006 175.841 297.593 175.699 298.101 175.415C298.612 175.127 299.01 174.722 299.294 174.199C299.582 173.672 299.726 173.053 299.726 172.341L300.158 172.432H296.658V171.182H301.089V172.432C301.089 173.39 300.885 174.223 300.476 174.932C300.071 175.64 299.51 176.189 298.794 176.58C298.082 176.966 297.264 177.159 296.339 177.159C295.309 177.159 294.404 176.917 293.624 176.432C292.847 175.947 292.241 175.258 291.805 174.364C291.374 173.47 291.158 172.409 291.158 171.182C291.158 170.261 291.281 169.434 291.527 168.699C291.777 167.96 292.129 167.331 292.584 166.812C293.038 166.294 293.576 165.896 294.197 165.619C294.819 165.343 295.502 165.205 296.249 165.205C296.862 165.205 297.434 165.297 297.964 165.483C298.499 165.665 298.974 165.924 299.391 166.261C299.811 166.595 300.161 166.994 300.442 167.46C300.722 167.922 300.915 168.436 301.021 169H299.567ZM303.503 177V165.364H304.912V170.545H311.116V165.364H312.526V177H311.116V171.795H304.912V177H303.503ZM314.71 166.614V165.364H323.438V166.614H319.778V177H318.369V166.614H314.71ZM331.976 168.273C331.908 167.697 331.631 167.25 331.146 166.932C330.661 166.614 330.067 166.455 329.362 166.455C328.847 166.455 328.396 166.538 328.01 166.705C327.627 166.871 327.328 167.1 327.112 167.392C326.9 167.684 326.794 168.015 326.794 168.386C326.794 168.697 326.868 168.964 327.016 169.188C327.167 169.407 327.36 169.591 327.595 169.739C327.83 169.883 328.076 170.002 328.334 170.097C328.591 170.187 328.828 170.261 329.044 170.318L330.226 170.636C330.529 170.716 330.866 170.826 331.237 170.966C331.612 171.106 331.97 171.297 332.311 171.54C332.656 171.778 332.94 172.085 333.163 172.46C333.387 172.835 333.499 173.295 333.499 173.841C333.499 174.47 333.334 175.038 333.004 175.545C332.679 176.053 332.201 176.456 331.572 176.756C330.947 177.055 330.188 177.205 329.294 177.205C328.461 177.205 327.739 177.07 327.129 176.801C326.523 176.532 326.046 176.157 325.697 175.676C325.353 175.195 325.158 174.636 325.112 174H326.567C326.605 174.439 326.752 174.803 327.01 175.091C327.271 175.375 327.601 175.587 327.999 175.727C328.4 175.864 328.832 175.932 329.294 175.932C329.832 175.932 330.315 175.845 330.743 175.67C331.171 175.492 331.51 175.246 331.76 174.932C332.01 174.614 332.135 174.242 332.135 173.818C332.135 173.432 332.027 173.117 331.811 172.875C331.595 172.633 331.311 172.436 330.959 172.284C330.607 172.133 330.226 172 329.817 171.886L328.385 171.477C327.476 171.216 326.756 170.843 326.226 170.358C325.696 169.873 325.43 169.239 325.43 168.455C325.43 167.803 325.607 167.235 325.959 166.75C326.315 166.261 326.792 165.883 327.391 165.614C327.993 165.341 328.665 165.205 329.408 165.205C330.158 165.205 330.824 165.339 331.408 165.608C331.991 165.873 332.453 166.237 332.794 166.699C333.139 167.161 333.321 167.686 333.339 168.273H331.976ZM340.315 177V165.364H341.724V175.75H347.134V177H340.315ZM356.952 165.364H358.361V173.068C358.361 173.864 358.173 174.574 357.798 175.199C357.427 175.82 356.902 176.311 356.224 176.67C355.546 177.027 354.751 177.205 353.838 177.205C352.925 177.205 352.13 177.027 351.452 176.67C350.774 176.311 350.247 175.82 349.872 175.199C349.501 174.574 349.315 173.864 349.315 173.068V165.364H350.724V172.955C350.724 173.523 350.849 174.028 351.099 174.472C351.349 174.911 351.705 175.258 352.168 175.511C352.634 175.761 353.19 175.886 353.838 175.886C354.486 175.886 355.043 175.761 355.509 175.511C355.974 175.258 356.33 174.911 356.577 174.472C356.827 174.028 356.952 173.523 356.952 172.955V165.364Z" fill="#505050" fill-opacity="0.5"/>
<path d="M3.52273 196L0.340909 184.364H1.77273L4.20455 193.841H4.31818L6.79545 184.364H8.38636L10.8636 193.841H10.9773L13.4091 184.364H14.8409L11.6591 196H10.2045L7.63636 186.727H7.54545L4.97727 196H3.52273ZM16.1676 196H14.6903L18.9631 184.364H20.4176L24.6903 196H23.2131L19.7358 186.205H19.6449L16.1676 196ZM16.7131 191.455H22.6676V192.705H16.7131V191.455ZM32.8665 187.273C32.7983 186.697 32.5218 186.25 32.0369 185.932C31.5521 185.614 30.9574 185.455 30.2528 185.455C29.7377 185.455 29.2869 185.538 28.9006 185.705C28.518 185.871 28.2188 186.1 28.0028 186.392C27.7907 186.684 27.6847 187.015 27.6847 187.386C27.6847 187.697 27.7585 187.964 27.9062 188.188C28.0578 188.407 28.2509 188.591 28.4858 188.739C28.7206 188.883 28.9669 189.002 29.2244 189.097C29.482 189.187 29.7188 189.261 29.9347 189.318L31.1165 189.636C31.4195 189.716 31.7566 189.826 32.1278 189.966C32.5028 190.106 32.8608 190.297 33.2017 190.54C33.5464 190.778 33.8305 191.085 34.054 191.46C34.2775 191.835 34.3892 192.295 34.3892 192.841C34.3892 193.47 34.2244 194.038 33.8949 194.545C33.5691 195.053 33.0919 195.456 32.4631 195.756C31.8381 196.055 31.0786 196.205 30.1847 196.205C29.3513 196.205 28.6297 196.07 28.0199 195.801C27.4138 195.532 26.9366 195.157 26.5881 194.676C26.2434 194.195 26.0483 193.636 26.0028 193H27.4574C27.4953 193.439 27.643 193.803 27.9006 194.091C28.1619 194.375 28.4915 194.587 28.8892 194.727C29.2907 194.864 29.7225 194.932 30.1847 194.932C30.7225 194.932 31.2055 194.845 31.6335 194.67C32.0616 194.492 32.4006 194.246 32.6506 193.932C32.9006 193.614 33.0256 193.242 33.0256 192.818C33.0256 192.432 32.9176 192.117 32.7017 191.875C32.4858 191.633 32.2017 191.436 31.8494 191.284C31.4972 191.133 31.1165 191 30.7074 190.886L29.2756 190.477C28.3665 190.216 27.6468 189.843 27.1165 189.358C26.5862 188.873 26.321 188.239 26.321 187.455C26.321 186.803 26.4972 186.235 26.8494 185.75C27.2055 185.261 27.6828 184.883 28.2812 184.614C28.8835 184.341 29.5559 184.205 30.2983 184.205C31.0483 184.205 31.715 184.339 32.2983 184.608C32.8816 184.873 33.3438 185.237 33.6847 185.699C34.0294 186.161 34.2112 186.686 34.2301 187.273H32.8665ZM36.706 196V184.364H38.1151V189.545H44.3196V184.364H45.7287V196H44.3196V190.795H38.1151V196H36.706ZM52.4134 185.614V184.364H61.1406V185.614H57.4815V196H56.0724V185.614H52.4134ZM63.3153 196V184.364H67.2472C68.1563 184.364 68.9025 184.519 69.4858 184.83C70.0691 185.136 70.5009 185.559 70.7812 186.097C71.0616 186.634 71.2017 187.246 71.2017 187.932C71.2017 188.617 71.0616 189.225 70.7812 189.756C70.5009 190.286 70.071 190.703 69.4915 191.006C68.9119 191.305 68.1714 191.455 67.2699 191.455H64.0881V190.182H67.2244C67.8456 190.182 68.3456 190.091 68.7244 189.909C69.107 189.727 69.3835 189.47 69.554 189.136C69.7282 188.799 69.8153 188.398 69.8153 187.932C69.8153 187.466 69.7282 187.059 69.554 186.71C69.3797 186.362 69.1013 186.093 68.7188 185.903C68.3362 185.71 67.8305 185.614 67.2017 185.614H64.7244V196H63.3153ZM68.7926 190.773L71.6562 196H70.0199L67.2017 190.773H68.7926ZM83.3679 190.182C83.3679 191.409 83.1463 192.47 82.7031 193.364C82.2599 194.258 81.652 194.947 80.8793 195.432C80.1065 195.917 79.224 196.159 78.2315 196.159C77.2391 196.159 76.3565 195.917 75.5838 195.432C74.8111 194.947 74.2031 194.258 73.7599 193.364C73.3168 192.47 73.0952 191.409 73.0952 190.182C73.0952 188.955 73.3168 187.894 73.7599 187C74.2031 186.106 74.8111 185.417 75.5838 184.932C76.3565 184.447 77.2391 184.205 78.2315 184.205C79.224 184.205 80.1065 184.447 80.8793 184.932C81.652 185.417 82.2599 186.106 82.7031 187C83.1463 187.894 83.3679 188.955 83.3679 190.182ZM82.0043 190.182C82.0043 189.174 81.8357 188.324 81.4986 187.631C81.1652 186.938 80.7126 186.413 80.1406 186.057C79.5724 185.701 78.9361 185.523 78.2315 185.523C77.527 185.523 76.8887 185.701 76.3168 186.057C75.7486 186.413 75.2959 186.938 74.9588 187.631C74.6255 188.324 74.4588 189.174 74.4588 190.182C74.4588 191.189 74.6255 192.04 74.9588 192.733C75.2959 193.426 75.7486 193.951 76.3168 194.307C76.8887 194.663 77.527 194.841 78.2315 194.841C78.9361 194.841 79.5724 194.663 80.1406 194.307C80.7126 193.951 81.1652 193.426 81.4986 192.733C81.8357 192.04 82.0043 191.189 82.0043 190.182ZM85.7372 196V184.364H87.1463V194.75H92.5554V196H85.7372ZM94.7372 196V184.364H96.1463V194.75H101.555V196H94.7372ZM103.737 196V184.364H110.76V185.614H105.146V189.545H110.396V190.795H105.146V194.75H110.851V196H103.737ZM112.3 184.364H113.913L117.141 189.795H117.277L120.504 184.364H122.118L117.913 191.205V196H116.504V191.205L112.3 184.364ZM130.304 187.273C130.236 186.697 129.959 186.25 129.474 185.932C128.99 185.614 128.395 185.455 127.69 185.455C127.175 185.455 126.724 185.538 126.338 185.705C125.955 185.871 125.656 186.1 125.44 186.392C125.228 186.684 125.122 187.015 125.122 187.386C125.122 187.697 125.196 187.964 125.344 188.188C125.495 188.407 125.688 188.591 125.923 188.739C126.158 188.883 126.404 189.002 126.662 189.097C126.92 189.187 127.156 189.261 127.372 189.318L128.554 189.636C128.857 189.716 129.194 189.826 129.565 189.966C129.94 190.106 130.298 190.297 130.639 190.54C130.984 190.778 131.268 191.085 131.491 191.46C131.715 191.835 131.827 192.295 131.827 192.841C131.827 193.47 131.662 194.038 131.332 194.545C131.007 195.053 130.529 195.456 129.901 195.756C129.276 196.055 128.516 196.205 127.622 196.205C126.789 196.205 126.067 196.07 125.457 195.801C124.851 195.532 124.374 195.157 124.026 194.676C123.681 194.195 123.486 193.636 123.44 193H124.895C124.933 193.439 125.08 193.803 125.338 194.091C125.599 194.375 125.929 194.587 126.327 194.727C126.728 194.864 127.16 194.932 127.622 194.932C128.16 194.932 128.643 194.845 129.071 194.67C129.499 194.492 129.838 194.246 130.088 193.932C130.338 193.614 130.463 193.242 130.463 192.818C130.463 192.432 130.355 192.117 130.139 191.875C129.923 191.633 129.639 191.436 129.287 191.284C128.935 191.133 128.554 191 128.145 190.886L126.713 190.477C125.804 190.216 125.084 189.843 124.554 189.358C124.024 188.873 123.759 188.239 123.759 187.455C123.759 186.803 123.935 186.235 124.287 185.75C124.643 185.261 125.12 184.883 125.719 184.614C126.321 184.341 126.993 184.205 127.736 184.205C128.486 184.205 129.152 184.339 129.736 184.608C130.319 184.873 130.781 185.237 131.122 185.699C131.467 186.161 131.649 186.686 131.668 187.273H130.304ZM138.643 196V184.364H145.666V185.614H140.053V189.545H145.303V190.795H140.053V194.75H145.757V196H138.643ZM147.206 184.364H148.82L152.047 189.795H152.183L155.411 184.364H157.024L152.82 191.205V196H151.411V191.205L147.206 184.364ZM158.847 196V184.364H165.869V185.614H160.256V189.545H165.506V190.795H160.256V194.75H165.96V196H158.847ZM174.773 187.273C174.705 186.697 174.428 186.25 173.943 185.932C173.458 185.614 172.864 185.455 172.159 185.455C171.644 185.455 171.193 185.538 170.807 185.705C170.424 185.871 170.125 186.1 169.909 186.392C169.697 186.684 169.591 187.015 169.591 187.386C169.591 187.697 169.665 187.964 169.812 188.188C169.964 188.407 170.157 188.591 170.392 188.739C170.627 188.883 170.873 189.002 171.131 189.097C171.388 189.187 171.625 189.261 171.841 189.318L173.023 189.636C173.326 189.716 173.663 189.826 174.034 189.966C174.409 190.106 174.767 190.297 175.108 190.54C175.453 190.778 175.737 191.085 175.96 191.46C176.184 191.835 176.295 192.295 176.295 192.841C176.295 193.47 176.131 194.038 175.801 194.545C175.475 195.053 174.998 195.456 174.369 195.756C173.744 196.055 172.985 196.205 172.091 196.205C171.258 196.205 170.536 196.07 169.926 195.801C169.32 195.532 168.843 195.157 168.494 194.676C168.15 194.195 167.955 193.636 167.909 193H169.364C169.402 193.439 169.549 193.803 169.807 194.091C170.068 194.375 170.398 194.587 170.795 194.727C171.197 194.864 171.629 194.932 172.091 194.932C172.629 194.932 173.112 194.845 173.54 194.67C173.968 194.492 174.307 194.246 174.557 193.932C174.807 193.614 174.932 193.242 174.932 192.818C174.932 192.432 174.824 192.117 174.608 191.875C174.392 191.633 174.108 191.436 173.756 191.284C173.403 191.133 173.023 191 172.614 190.886L171.182 190.477C170.273 190.216 169.553 189.843 169.023 189.358C168.492 188.873 168.227 188.239 168.227 187.455C168.227 186.803 168.403 186.235 168.756 185.75C169.112 185.261 169.589 184.883 170.188 184.614C170.79 184.341 171.462 184.205 172.205 184.205C172.955 184.205 173.621 184.339 174.205 184.608C174.788 184.873 175.25 185.237 175.591 185.699C175.936 186.161 176.117 186.686 176.136 187.273H174.773ZM192.476 188H191.067C190.983 187.595 190.838 187.239 190.629 186.932C190.425 186.625 190.175 186.367 189.879 186.159C189.588 185.947 189.264 185.788 188.908 185.682C188.552 185.576 188.18 185.523 187.794 185.523C187.089 185.523 186.451 185.701 185.879 186.057C185.311 186.413 184.858 186.938 184.521 187.631C184.188 188.324 184.021 189.174 184.021 190.182C184.021 191.189 184.188 192.04 184.521 192.733C184.858 193.426 185.311 193.951 185.879 194.307C186.451 194.663 187.089 194.841 187.794 194.841C188.18 194.841 188.552 194.788 188.908 194.682C189.264 194.576 189.588 194.419 189.879 194.21C190.175 193.998 190.425 193.739 190.629 193.432C190.838 193.121 190.983 192.765 191.067 192.364H192.476C192.37 192.958 192.177 193.491 191.896 193.96C191.616 194.43 191.268 194.83 190.851 195.159C190.434 195.485 189.966 195.733 189.447 195.903C188.932 196.074 188.381 196.159 187.794 196.159C186.802 196.159 185.919 195.917 185.146 195.432C184.374 194.947 183.766 194.258 183.322 193.364C182.879 192.47 182.658 191.409 182.658 190.182C182.658 188.955 182.879 187.894 183.322 187C183.766 186.106 184.374 185.417 185.146 184.932C185.919 184.447 186.802 184.205 187.794 184.205C188.381 184.205 188.932 184.29 189.447 184.46C189.966 184.631 190.434 184.881 190.851 185.21C191.268 185.536 191.616 185.934 191.896 186.403C192.177 186.869 192.37 187.402 192.476 188ZM196.162 184.364V196H194.753V184.364H196.162ZM198.351 185.614V184.364H207.078V185.614H203.419V196H202.01V185.614H198.351ZM210.662 184.364V196H209.253V184.364H210.662ZM213.101 196V194.977L219.374 185.614H213.033V184.364H221.055V185.386L214.783 194.75H221.124V196H213.101ZM223.487 196V184.364H230.51V185.614H224.896V189.545H230.146V190.795H224.896V194.75H230.601V196H223.487ZM242.277 184.364V196H240.913L234.572 186.864H234.459V196H233.05V184.364H234.413L240.777 193.523H240.891V184.364H242.277ZM251.46 187.273C251.392 186.697 251.116 186.25 250.631 185.932C250.146 185.614 249.551 185.455 248.847 185.455C248.331 185.455 247.881 185.538 247.494 185.705C247.112 185.871 246.813 186.1 246.597 186.392C246.384 186.684 246.278 187.015 246.278 187.386C246.278 187.697 246.352 187.964 246.5 188.188C246.652 188.407 246.845 188.591 247.08 188.739C247.314 188.883 247.561 189.002 247.818 189.097C248.076 189.187 248.312 189.261 248.528 189.318L249.71 189.636C250.013 189.716 250.35 189.826 250.722 189.966C251.097 190.106 251.455 190.297 251.795 190.54C252.14 190.778 252.424 191.085 252.648 191.46C252.871 191.835 252.983 192.295 252.983 192.841C252.983 193.47 252.818 194.038 252.489 194.545C252.163 195.053 251.686 195.456 251.057 195.756C250.432 196.055 249.672 196.205 248.778 196.205C247.945 196.205 247.223 196.07 246.614 195.801C246.008 195.532 245.53 195.157 245.182 194.676C244.837 194.195 244.642 193.636 244.597 193H246.051C246.089 193.439 246.237 193.803 246.494 194.091C246.756 194.375 247.085 194.587 247.483 194.727C247.884 194.864 248.316 194.932 248.778 194.932C249.316 194.932 249.799 194.845 250.227 194.67C250.655 194.492 250.994 194.246 251.244 193.932C251.494 193.614 251.619 193.242 251.619 192.818C251.619 192.432 251.511 192.117 251.295 191.875C251.08 191.633 250.795 191.436 250.443 191.284C250.091 191.133 249.71 191 249.301 190.886L247.869 190.477C246.96 190.216 246.241 189.843 245.71 189.358C245.18 188.873 244.915 188.239 244.915 187.455C244.915 186.803 245.091 186.235 245.443 185.75C245.799 185.261 246.277 184.883 246.875 184.614C247.477 184.341 248.15 184.205 248.892 184.205C249.642 184.205 250.309 184.339 250.892 184.608C251.475 184.873 251.938 185.237 252.278 185.699C252.623 186.161 252.805 186.686 252.824 187.273H251.46ZM261.913 196L258.732 184.364H260.163L262.595 193.841H262.709L265.186 184.364H266.777L269.254 193.841H269.368L271.8 184.364H273.232L270.05 196H268.595L266.027 186.727H265.936L263.368 196H261.913ZM274.558 196H273.081L277.354 184.364H278.808L283.081 196H281.604L278.126 186.205H278.036L274.558 196ZM275.104 191.455H281.058V192.705H275.104V191.455ZM291.257 187.273C291.189 186.697 290.912 186.25 290.428 185.932C289.943 185.614 289.348 185.455 288.643 185.455C288.128 185.455 287.678 185.538 287.291 185.705C286.909 185.871 286.609 186.1 286.393 186.392C286.181 186.684 286.075 187.015 286.075 187.386C286.075 187.697 286.149 187.964 286.297 188.188C286.448 188.407 286.642 188.591 286.876 188.739C287.111 188.883 287.357 189.002 287.615 189.097C287.873 189.187 288.109 189.261 288.325 189.318L289.507 189.636C289.81 189.716 290.147 189.826 290.518 189.966C290.893 190.106 291.251 190.297 291.592 190.54C291.937 190.778 292.221 191.085 292.445 191.46C292.668 191.835 292.78 192.295 292.78 192.841C292.78 193.47 292.615 194.038 292.286 194.545C291.96 195.053 291.482 195.456 290.854 195.756C290.229 196.055 289.469 196.205 288.575 196.205C287.742 196.205 287.02 196.07 286.411 195.801C285.804 195.532 285.327 195.157 284.979 194.676C284.634 194.195 284.439 193.636 284.393 193H285.848C285.886 193.439 286.034 193.803 286.291 194.091C286.553 194.375 286.882 194.587 287.28 194.727C287.681 194.864 288.113 194.932 288.575 194.932C289.113 194.932 289.596 194.845 290.024 194.67C290.452 194.492 290.791 194.246 291.041 193.932C291.291 193.614 291.416 193.242 291.416 192.818C291.416 192.432 291.308 192.117 291.092 191.875C290.876 191.633 290.592 191.436 290.24 191.284C289.888 191.133 289.507 191 289.098 190.886L287.666 190.477C286.757 190.216 286.037 189.843 285.507 189.358C284.977 188.873 284.712 188.239 284.712 187.455C284.712 186.803 284.888 186.235 285.24 185.75C285.596 185.261 286.073 184.883 286.672 184.614C287.274 184.341 287.946 184.205 288.689 184.205C289.439 184.205 290.106 184.339 290.689 184.608C291.272 184.873 291.734 185.237 292.075 185.699C292.42 186.161 292.602 186.686 292.621 187.273H291.257ZM295.097 196V184.364H296.506V189.545H302.71V184.364H304.119V196H302.71V190.795H296.506V196H295.097ZM310.804 185.614V184.364H319.531V185.614H315.872V196H314.463V185.614H310.804ZM321.706 196V184.364H325.638C326.547 184.364 327.293 184.519 327.876 184.83C328.46 185.136 328.892 185.559 329.172 186.097C329.452 186.634 329.592 187.246 329.592 187.932C329.592 188.617 329.452 189.225 329.172 189.756C328.892 190.286 328.462 190.703 327.882 191.006C327.303 191.305 326.562 191.455 325.661 191.455H322.479V190.182H325.615C326.236 190.182 326.736 190.091 327.115 189.909C327.498 189.727 327.774 189.47 327.945 189.136C328.119 188.799 328.206 188.398 328.206 187.932C328.206 187.466 328.119 187.059 327.945 186.71C327.77 186.362 327.492 186.093 327.109 185.903C326.727 185.71 326.221 185.614 325.592 185.614H323.115V196H321.706ZM327.183 190.773L330.047 196H328.411L325.592 190.773H327.183ZM341.759 190.182C341.759 191.409 341.537 192.47 341.094 193.364C340.651 194.258 340.043 194.947 339.27 195.432C338.497 195.917 337.615 196.159 336.622 196.159C335.63 196.159 334.747 195.917 333.974 195.432C333.202 194.947 332.594 194.258 332.151 193.364C331.707 192.47 331.486 191.409 331.486 190.182C331.486 188.955 331.707 187.894 332.151 187C332.594 186.106 333.202 185.417 333.974 184.932C334.747 184.447 335.63 184.205 336.622 184.205C337.615 184.205 338.497 184.447 339.27 184.932C340.043 185.417 340.651 186.106 341.094 187C341.537 187.894 341.759 188.955 341.759 190.182ZM340.395 190.182C340.395 189.174 340.226 188.324 339.889 187.631C339.556 186.938 339.103 186.413 338.531 186.057C337.963 185.701 337.327 185.523 336.622 185.523C335.918 185.523 335.279 185.701 334.707 186.057C334.139 186.413 333.687 186.938 333.349 187.631C333.016 188.324 332.849 189.174 332.849 190.182C332.849 191.189 333.016 192.04 333.349 192.733C333.687 193.426 334.139 193.951 334.707 194.307C335.279 194.663 335.918 194.841 336.622 194.841C337.327 194.841 337.963 194.663 338.531 194.307C339.103 193.951 339.556 193.426 339.889 192.733C340.226 192.04 340.395 191.189 340.395 190.182ZM344.128 196V184.364H345.537V194.75H350.946V196H344.128Z" fill="#505050" fill-opacity="0.5"/>
</g>
<defs>
<clipPath id="clip0_93_388">
<rect width="350" height="200" fill="white"/>
</clipPath>
</defs>
</svg>
