<svg width="700" height="472" viewBox="0 0 700 472" fill="none" xmlns="http://www.w3.org/2000/svg">
<path d="M70.8557 73C71.536 61.5965 59.9172 36.9649 8 29.6667M106.773 73C109.902 53.9942 108.977 14.386 80.2433 8" stroke="#DA7E11" stroke-width="16" stroke-linecap="round"/>
<path d="M192 233.5C192 346.442 283.558 438 396.5 438C421.088 438 444.663 433.661 466.5 425.706C489.094 417.475 509.828 405.374 527.899 390.205C539.259 397.596 531.359 401.601 585 422.5C587.924 423.639 607.127 429.536 626.085 435.358L626.09 435.36C643.645 440.75 660.989 446.077 665 447.5C693.467 457.602 705.308 465.402 697.188 470.293L244.693 471.968C140.979 471.968 129.589 374.629 119.222 286.034C112.132 225.446 105.521 168.948 70.1865 150.469C-16.8156 104.97 130.187 39.4697 160.187 143.969C174.108 192.464 185.555 205.748 193.825 206.057C192.622 215.034 192 224.194 192 233.5Z" fill="#FF9D29"/>
<path fill-rule="evenodd" clip-rule="evenodd" d="M396.5 426C502.815 426 589 339.815 589 233.5C589 127.185 502.815 41 396.5 41C290.185 41 204 127.185 204 233.5C204 339.815 290.185 426 396.5 426ZM396.5 376.11C475.261 376.11 539.11 312.261 539.11 233.5C539.11 154.739 475.261 90.89 396.5 90.89C317.739 90.89 253.89 154.739 253.89 233.5C253.89 312.261 317.739 376.11 396.5 376.11Z" fill="#B06915"/>
<path d="M396 247C403.18 247 409 241.18 409 234C409 226.82 403.18 221 396 221C388.82 221 383 226.82 383 234C383 241.18 388.82 247 396 247Z" fill="#B06915"/>
<path d="M351.437 133.093C348.537 128.071 342.115 126.351 337.093 129.25C332.071 132.149 330.351 138.571 333.25 143.593L372.75 212.009C375.649 217.031 382.071 218.752 387.093 215.853C392.115 212.953 393.836 206.531 390.937 201.509L351.437 133.093Z" fill="#B06915"/>
<path d="M428.593 244.25C423.571 241.351 417.149 243.072 414.25 248.094C411.351 253.116 413.071 259.538 418.093 262.437L486.509 301.937C491.531 304.837 497.953 303.116 500.853 298.094C503.752 293.072 502.031 286.65 497.009 283.75L428.593 244.25Z" fill="#B06915"/>
</svg>
